SplineFontDB: 3.0
FontName: FasterOne-Regular
FullName: Faster One
FamilyName: Faster One
Weight: Book
Copyright: Copyright (c) 2012, Eduardo Tunni (http://www.tipo.net.ar), with Reserved Font Name 'Faster'
Version: 1.001
ItalicAngle: 0.0
UnderlinePosition: -50
UnderlineWidth: 50
Ascent: 800
Descent: 200
sfntRevision: 0x00010042
LayerCount: 2
Layer: 0 1 "Back"  1
Layer: 1 1 "Fore"  0
XUID: [1021 731 874636755 1604861]
FSType: 0
OS2Version: 3
OS2_WeightWidthSlopeOnly: 0
OS2_UseTypoMetrics: 1
CreationTime: 1334179380
ModificationTime: 1351617325
PfmFamily: 17
TTFWeight: 400
TTFWidth: 5
LineGap: 0
VLineGap: 0
Panose: 2 0 5 5 5 0 0 9 0 4
OS2TypoAscent: 898
OS2TypoAOffset: 0
OS2TypoDescent: -165
OS2TypoDOffset: 0
OS2TypoLinegap: 0
OS2WinAscent: 898
OS2WinAOffset: 0
OS2WinDescent: 165
OS2WinDOffset: 0
HheadAscent: 898
HheadAOffset: 0
HheadDescent: -165
HheadDOffset: 0
OS2SubXSize: 650
OS2SubYSize: 600
OS2SubXOff: -16
OS2SubYOff: 75
OS2SupXSize: 650
OS2SupYSize: 600
OS2SupXOff: 74
OS2SupYOff: 350
OS2StrikeYSize: 50
OS2StrikeYPos: 300
OS2Vendor: 'TIPO'
OS2CodePages: 20000001.00000000
OS2UnicodeRanges: 800000af.5000204a.00000000.00000000
Lookup: 4 0 1 "'liga' Standard Ligatures in Latin lookup 0"  {"'liga' Standard Ligatures in Latin lookup 0 subtable"  } ['liga' ('latn' <'dflt' > ) ]
Lookup: 257 0 0 "'cpsp' Capital Spacing in Latin lookup 0"  {"'cpsp' Capital Spacing in Latin lookup 0 subtable"  } ['cpsp' ('latn' <'dflt' > ) ]
Lookup: 257 0 0 "'case' Case-Sensitive Forms in Latin lookup 1"  {"'case' Case-Sensitive Forms in Latin lookup 1 subtable"  } ['case' ('latn' <'dflt' > ) ]
Lookup: 258 0 0 "'kern' Horizontal Kerning in Latin lookup 2"  {"'kern' Horizontal Kerning in Latin lookup 2 per glyph data 0"  "'kern' Horizontal Kerning in Latin lookup 2 per glyph data 1"  "'kern' Horizontal Kerning in Latin lookup 2 kerning class 2"  } ['kern' ('latn' <'dflt' > ) ]
DEI: 91125
KernClass2: 6+ 7 "'kern' Horizontal Kerning in Latin lookup 2 kerning class 2" 

StartChar: exclam
Encoding: 33 33 4
Width: 534
GlyphClass: 2
Flags: W
LayerCount: 2
Fore
SplineSet
237 196 m 1,0,-1
 -186 241 l 1,1,-1
 242 241 l 1,2,-1
 237 196 l 1,0,-1
247 292 m 1,3,-1
 -169 337 l 1,4,-1
 252 337 l 1,5,-1
 247 292 l 1,3,-1
258 388 m 1,6,-1
 -152 433 l 1,7,-1
 263 433 l 1,8,-1
 258 388 l 1,6,-1
268 484 m 1,9,-1
 -135 529 l 1,10,-1
 273 529 l 1,11,-1
 268 484 l 1,9,-1
188 44 m 2,12,13
 188 21 188 21 196 3 c 1,14,-1
 -220 48 l 1,15,-1
 188 48 l 1,16,-1
 188 44 l 2,12,13
223 145 m 1,17,18
 206 127 206 127 197 102 c 1,19,-1
 -203 145 l 1,20,-1
 223 145 l 1,17,18
352 625 m 2,21,-1
 500 625 l 2,22,23
 531 625 531 625 531 605 c 0,24,25
 531 600 531 600 530 598 c 2,26,-1
 425 170 l 1,27,-1
 264 170 l 1,28,-1
 311 598 l 1,29,30
 315 625 315 625 352 625 c 2,21,-1
218 44 m 0,31,32
 218 101 218 101 249 125 c 128,-1,33
 280 149 280 149 337 149 c 128,-1,34
 394 149 394 149 415 136.5 c 128,-1,35
 436 124 436 124 436 96 c 0,36,37
 436 40 436 40 409.5 16.5 c 128,-1,38
 383 -7 383 -7 321.5 -7 c 128,-1,39
 260 -7 260 -7 239 4.5 c 128,-1,40
 218 16 218 16 218 44 c 0,31,32
EndSplineSet
EndChar

StartChar: quotedbl
Encoding: 34 34 5
Width: 665
GlyphClass: 2
Flags: W
LayerCount: 2
Fore
SplineSet
680 604 m 1,0,-1
 669 540 l 2,1,2
 668 536 668 536 574 275 c 1,3,-1
 479 275 l 1,4,-1
 479 506 l 2,5,6
 479 542 479 542 489 598 c 0,7,8
 493 625 493 625 529 625 c 2,9,-1
 649 625 l 2,10,11
 680 625 680 625 680 604 c 1,0,-1
211 337 m 1,12,-1
 211 292 l 1,13,-1
 -100 337 l 1,14,-1
 211 337 l 1,12,-1
211 433 m 1,15,-1
 211 388 l 1,16,-1
 -83 433 l 1,17,-1
 211 433 l 1,15,-1
211 529 m 1,18,-1
 211 484 l 1,19,-1
 -66 529 l 1,20,-1
 211 529 l 1,18,-1
442 604 m 1,21,-1
 431 540 l 2,22,23
 430 536 430 536 336 275 c 1,24,-1
 241 275 l 1,25,-1
 241 506 l 2,26,27
 241 542 241 542 251 598 c 0,28,29
 255 625 255 625 291 625 c 2,30,-1
 411 625 l 2,31,32
 442 625 442 625 442 604 c 1,21,-1
EndSplineSet
EndChar

StartChar: numbersign
Encoding: 35 35 6
Width: 746
GlyphClass: 2
Flags: W
LayerCount: 2
Fore
SplineSet
638 665 m 2,0,-1
 689 665 l 1,1,-1
 613 474 l 1,2,-1
 746 474 l 1,3,-1
 728 426 l 2,4,5
 718 402 718 402 706 398 c 0,6,7
 700 397 700 397 689 395 c 1,8,-1
 582 395 l 1,9,-1
 516 228 l 1,10,-1
 649 228 l 1,11,-1
 631 181 l 1,12,13
 623 163 623 163 615 157.5 c 128,-1,14
 607 152 607 152 592 150 c 1,15,-1
 485 150 l 1,16,-1
 420 -15 l 2,17,18
 415 -25 415 -25 411 -29 c 0,19,20
 400 -40 400 -40 377 -40 c 2,21,-1
 326 -40 l 1,22,-1
 401 150 l 1,23,-1
 221 150 l 1,24,-1
 156 -15 l 2,25,26
 151 -25 151 -25 147 -29 c 0,27,28
 136 -40 136 -40 113 -40 c 2,29,-1
 62 -40 l 1,30,-1
 137 150 l 1,31,-1
 0 150 l 1,32,-1
 19 197 l 2,33,34
 26 215 26 215 34.5 220.5 c 128,-1,35
 43 226 43 226 58 228 c 1,36,-1
 168 228 l 1,37,-1
 234 395 l 1,38,-1
 97 395 l 1,39,-1
 116 443 l 2,40,41
 126 467 126 467 138 470 c 0,42,43
 144 472 144 472 155 474 c 1,44,-1
 265 474 l 1,45,-1
 331 640 l 2,46,47
 336 650 336 650 340 654 c 0,48,49
 351 665 351 665 374 665 c 2,50,-1
 425 665 l 1,51,-1
 349 474 l 1,52,-1
 529 474 l 1,53,-1
 595 640 l 2,54,55
 600 650 600 650 604 654 c 0,56,57
 615 665 615 665 638 665 c 2,0,-1
318 395 m 1,58,-1
 252 228 l 1,59,-1
 432 228 l 1,60,-1
 498 395 l 1,61,-1
 318 395 l 1,58,-1
EndSplineSet
EndChar

StartChar: dollar
Encoding: 36 36 7
Width: 770
GlyphClass: 2
Flags: W
LayerCount: 2
Fore
SplineSet
555 467 m 2,0,1
 522 467 522 467 508.5 455.5 c 128,-1,2
 495 444 495 444 489 414 c 1,3,-1
 548 407 l 2,4,5
 638 396 638 396 675 362.5 c 128,-1,6
 712 329 712 329 712 270 c 0,7,8
 712 163 712 163 654.5 84 c 128,-1,9
 597 5 597 5 487 1 c 1,10,-1
 466 -100 l 1,11,-1
 343 -100 l 1,12,-1
 365 1 l 1,13,14
 277 8 277 8 216 25 c 1,15,-1
 272 184 l 1,16,17
 346 162 346 162 433 162 c 0,18,19
 469 162 469 162 502 166 c 1,20,-1
 509 208 l 1,21,-1
 451 215 l 2,22,23
 364 226 364 226 329.5 261 c 128,-1,24
 295 296 295 296 295 357 c 0,25,26
 295 464 295 464 346 541 c 128,-1,27
 397 618 397 618 501 635 c 1,28,-1
 519 718 l 1,29,-1
 639 718 l 1,30,-1
 623 638 l 1,31,32
 696 633 696 633 753 622 c 1,33,-1
 698 467 l 1,34,-1
 555 467 l 2,0,1
266 388 m 1,35,-1
 -159 433 l 1,36,-1
 272 433 l 1,37,38
 269 422 269 422 266 388 c 1,35,-1
303 529 m 1,39,-1
 285 485 l 1,40,-1
 -130 529 l 1,41,-1
 303 529 l 1,39,-1
266 337 m 1,42,43
 268 310 268 310 274 292 c 1,44,-1
 -149 337 l 1,45,-1
 266 337 l 1,42,43
396 196 m 1,46,-1
 -126 241 l 1,47,-1
 305 241 l 1,48,49
 340 207 340 207 396 196 c 1,46,-1
391 625 m 1,50,51
 358 604 358 604 342 584 c 1,52,-1
 -44 625 l 1,53,-1
 391 625 l 1,50,51
-148 145 m 1,54,-1
 226 145 l 1,55,-1
 211 101 l 1,56,-1
 -148 145 l 1,54,-1
-166 48 m 1,57,-1
 193 48 l 1,58,-1
 178 4 l 1,59,-1
 -166 48 l 1,57,-1
EndSplineSet
EndChar

StartChar: percent
Encoding: 37 37 8
Width: 971
GlyphClass: 2
Flags: W
LayerCount: 2
Fore
SplineSet
358 -40 m 2,0,-1
 307 -40 l 1,1,-1
 576 640 l 2,2,3
 581 650 581 650 585 654 c 0,4,5
 596 665 596 665 619 665 c 2,6,-1
 670 665 l 1,7,-1
 401 -15 l 2,8,9
 396 -25 396 -25 392 -29 c 0,10,11
 381 -40 381 -40 358 -40 c 2,0,-1
686 386 m 128,-1,13
 721 398 721 398 785 398 c 128,-1,14
 849 398 849 398 879.5 370.5 c 128,-1,15
 910 343 910 343 910 285 c 0,16,17
 910 252 910 252 900 195.5 c 128,-1,18
 890 139 890 139 878 105 c 128,-1,19
 866 71 866 71 844 43 c 0,20,21
 805 -9 805 -9 701 -9 c 0,22,23
 625 -9 625 -9 594 18.5 c 128,-1,24
 563 46 563 46 563 105 c 0,25,26
 563 137 563 137 573 193 c 128,-1,27
 583 249 583 249 595 283.5 c 128,-1,28
 607 318 607 318 629 346 c 128,-1,12
 651 374 651 374 686 386 c 128,-1,13
704 92 m 2,29,30
 751 92 751 92 755 116 c 2,31,-1
 787 297 l 1,32,-1
 767 297 l 2,33,34
 722 297 722 297 718 274 c 2,35,-1
 686 92 l 1,36,-1
 704 92 l 2,29,30
184 613 m 128,-1,38
 219 625 219 625 283 625 c 128,-1,39
 347 625 347 625 377.5 597.5 c 128,-1,40
 408 570 408 570 408 512 c 0,41,42
 408 479 408 479 398 422.5 c 128,-1,43
 388 366 388 366 376 332 c 128,-1,44
 364 298 364 298 342 270 c 0,45,46
 303 218 303 218 199 218 c 0,47,48
 123 218 123 218 92 245.5 c 128,-1,49
 61 273 61 273 61 332 c 0,50,51
 61 364 61 364 71 420 c 128,-1,52
 81 476 81 476 93 510.5 c 128,-1,53
 105 545 105 545 127 573 c 128,-1,37
 149 601 149 601 184 613 c 128,-1,38
202 319 m 2,54,55
 249 319 249 319 253 343 c 2,56,-1
 285 524 l 1,57,-1
 265 524 l 2,58,59
 220 524 220 524 216 501 c 2,60,-1
 184 319 l 1,61,-1
 202 319 l 2,54,55
EndSplineSet
EndChar

StartChar: ampersand
Encoding: 38 38 9
Width: 832
GlyphClass: 2
Flags: W
LayerCount: 2
Fore
SplineSet
261 433 m 1,0,-1
 252 388 l 1,1,-1
 -171 433 l 1,2,-1
 261 433 l 1,0,-1
191 241 m 1,3,4
 180 199 180 199 180 196 c 1,5,-1
 -241 241 l 1,6,-1
 191 241 l 1,3,4
173 145 m 1,7,-1
 173 100 l 1,8,-1
 -250 145 l 1,9,-1
 173 145 l 1,7,-1
-136 529 m 1,10,-1
 295 529 l 1,11,12
 284 506 284 506 277 485 c 1,13,-1
 -136 529 l 1,10,-1
246 337 m 1,14,15
 227 316 227 316 215 294 c 1,16,-1
 -186 337 l 1,17,-1
 246 337 l 1,14,15
183 48 m 1,18,19
 191 23 191 23 208 3 c 1,20,-1
 -215 48 l 1,21,-1
 183 48 l 1,18,19
376 625 m 1,22,23
 351 609 351 609 329 584 c 1,24,-1
 -54 625 l 1,25,-1
 376 625 l 1,22,23
341 -15 m 0,26,27
 203 -15 203 -15 203 119 c 0,28,29
 203 198 203 198 235 268 c 0,30,31
 252 305 252 305 284 331 c 128,-1,32
 316 357 316 357 360 363 c 1,33,-1
 360 367 l 1,34,-1
 284 396 l 1,35,36
 308 529 308 529 361.5 577 c 128,-1,37
 415 625 415 625 504 625 c 128,-1,38
 593 625 593 625 684 604 c 1,39,-1
 630 462 l 1,40,-1
 546 462 l 2,41,42
 515 462 515 462 500 453.5 c 128,-1,43
 485 445 485 445 481 420 c 2,44,-1
 475 382 l 1,45,-1
 823 382 l 1,46,-1
 777 242 l 1,47,-1
 711 242 l 1,48,-1
 651 -100 l 1,49,-1
 531 -115 l 1,50,-1
 531 21 l 1,51,52
 410 -15 410 -15 341 -15 c 0,26,27
461 143 m 0,53,54
 497 143 497 143 531 148 c 1,55,-1
 531 242 l 1,56,-1
 420 242 l 1,57,58
 409 202 409 202 409 180 c 0,59,60
 409 143 409 143 461 143 c 0,53,54
EndSplineSet
EndChar

StartChar: quotesingle
Encoding: 39 39 10
Width: 427
GlyphClass: 2
Flags: W
LayerCount: 2
Fore
SplineSet
211 337 m 1,0,-1
 211 292 l 1,1,-1
 -100 337 l 1,2,-1
 211 337 l 1,0,-1
211 433 m 1,3,-1
 211 388 l 1,4,-1
 -83 433 l 1,5,-1
 211 433 l 1,3,-1
211 529 m 1,6,-1
 211 484 l 1,7,-1
 -66 529 l 1,8,-1
 211 529 l 1,6,-1
442 604 m 1,9,-1
 431 540 l 2,10,11
 430 536 430 536 336 275 c 1,12,-1
 241 275 l 1,13,-1
 241 506 l 2,14,15
 241 542 241 542 251 598 c 0,16,17
 255 625 255 625 291 625 c 2,18,-1
 411 625 l 2,19,20
 442 625 442 625 442 604 c 1,9,-1
EndSplineSet
EndChar

StartChar: parenleft
Encoding: 40 40 11
Width: 558
GlyphClass: 2
Flags: W
LayerCount: 2
Fore
SplineSet
230 337 m 1,0,-1
 222 292 l 1,1,-1
 -202 337 l 1,2,-1
 230 337 l 1,0,-1
255 433 m 1,3,-1
 242 388 l 1,4,-1
 -176 433 l 1,5,-1
 255 433 l 1,3,-1
214 196 m 1,6,-1
 -210 241 l 1,7,-1
 216 241 l 1,8,9
 214 211 214 211 214 196 c 1,6,-1
216 145 m 1,10,11
 220 115 220 115 223 100 c 1,12,-1
 -201 145 l 1,13,-1
 216 145 l 1,10,11
-132 529 m 1,14,-1
 299 529 l 1,15,16
 288 510 288 510 276 485 c 1,17,-1
 -132 529 l 1,14,-1
239 48 m 1,18,19
 248 24 248 24 263 3 c 1,20,-1
 -160 48 l 1,21,-1
 239 48 l 1,18,19
-56 625 m 1,22,-1
 375 625 l 1,23,24
 349 601 349 601 336 583 c 1,25,-1
 -56 625 l 1,22,-1
454 425 m 128,-1,27
 439 379 439 379 426.5 308.5 c 128,-1,28
 414 238 414 238 414 195 c 128,-1,29
 414 152 414 152 423.5 127 c 128,-1,30
 433 102 433 102 441.5 95.5 c 128,-1,31
 450 89 450 89 466 81 c 1,32,-1
 431 -66 l 1,33,34
 244 -40 244 -40 244 186 c 0,35,36
 244 242 244 242 256 312 c 0,37,38
 319 658 319 658 564 690 c 1,39,-1
 548 543 l 1,40,41
 530 536 530 536 517.5 526.5 c 128,-1,42
 505 517 505 517 487 494 c 128,-1,26
 469 471 469 471 454 425 c 128,-1,27
EndSplineSet
EndChar

StartChar: parenright
Encoding: 41 41 12
Width: 512
GlyphClass: 2
Flags: W
LayerCount: 2
Fore
SplineSet
269 292 m 1,0,-1
 -155 337 l 1,1,-1
 277 337 l 1,2,-1
 269 292 l 1,0,-1
144 3 m 1,3,-1
 -280 48 l 1,4,-1
 149 48 l 1,5,-1
 144 3 l 1,3,-1
258 241 m 1,6,7
 247 204 247 204 244 196 c 1,8,-1
 -174 241 l 1,9,-1
 258 241 l 1,6,7
-176 625 m 1,10,-1
 255 625 l 1,11,-1
 244 580 l 1,12,-1
 -176 625 l 1,10,-1
284 433 m 1,13,14
 285 429 285 429 285 420.5 c 128,-1,15
 285 412 285 412 283 388 c 1,16,-1
 -140 433 l 1,17,-1
 284 433 l 1,13,14
219 145 m 1,18,19
 201 117 201 117 178 103 c 1,20,-1
 -212 145 l 1,21,-1
 219 145 l 1,18,19
269 484 m 1,22,-1
 -155 529 l 1,23,-1
 231 529 l 1,24,-1
 228 516 l 1,25,26
 251 509 251 509 269 484 c 1,22,-1
486 429 m 0,27,28
 486 378 486 378 473 302 c 0,29,30
 413 -43 413 -43 166 -76 c 1,31,-1
 182 71 l 1,32,33
 197 77 197 77 205.5 82 c 128,-1,34
 214 87 214 87 229.5 102.5 c 128,-1,35
 245 118 245 118 256 140 c 0,36,37
 283 196 283 196 299 285 c 128,-1,38
 315 374 315 374 315 416.5 c 128,-1,39
 315 459 315 459 306 484 c 128,-1,40
 297 509 297 509 287.5 517.5 c 128,-1,41
 278 526 278 526 263 533 c 1,42,-1
 299 680 l 1,43,44
 486 654 486 654 486 429 c 0,27,28
EndSplineSet
EndChar

StartChar: asterisk
Encoding: 42 42 13
Width: 648
GlyphClass: 2
Flags: W
LayerCount: 2
Fore
SplineSet
129 485 m 1,0,-1
 -180 529 l 1,1,-1
 150 529 l 1,2,-1
 129 485 l 1,0,-1
162 337 m 1,3,-1
 153 325 l 2,4,5
 137 302 137 302 135 294 c 1,6,-1
 -169 337 l 1,7,-1
 162 337 l 1,3,-1
207 196 m 1,8,-1
 -114 241 l 1,9,-1
 157 241 l 1,10,11
 158 239 158 239 207 196 c 1,8,-1
148 394 m 1,12,-1
 162 388 l 1,13,-1
 -157 433 l 1,14,-1
 115 433 l 1,15,16
 118 405 118 405 148 394 c 1,12,-1
569 565 m 0,17,18
 587 565 587 565 592 538 c 1,19,-1
 602 467 l 2,20,21
 603 462 603 462 603 453 c 0,22,23
 603 427 603 427 582 422 c 2,24,-1
 525 406 l 1,25,-1
 435 406 l 1,26,-1
 499 351 l 1,27,-1
 523 304 l 2,28,29
 525 300 525 300 525 288 c 128,-1,30
 525 276 525 276 501 260 c 2,31,-1
 437 216 l 2,32,33
 420 204 420 204 409.5 204 c 128,-1,34
 399 204 399 204 392 215 c 2,35,-1
 361 263 l 1,36,-1
 354 345 l 1,37,-1
 315 262 l 1,38,-1
 275 216 l 2,39,40
 266 205 266 205 254.5 205 c 128,-1,41
 243 205 243 205 231 216 c 2,42,-1
 180 260 l 2,43,44
 165 272 165 272 165 283.5 c 128,-1,45
 165 295 165 295 174 304 c 2,46,-1
 215 351 l 1,47,-1
 294 404 l 1,48,-1
 208 404 l 1,49,-1
 159 422 l 2,50,51
 145 427 145 427 145 438.5 c 128,-1,52
 145 450 145 450 153 466 c 2,53,-1
 187 538 l 2,54,55
 201 567 201 567 217 567 c 0,56,57
 219 567 219 567 227 565 c 2,58,-1
 278 547 l 1,59,-1
 338 492 l 1,60,-1
 326 580 l 1,61,-1
 336 638 l 2,62,63
 340 665 340 665 377 665 c 2,64,-1
 449 665 l 2,65,66
 479 665 479 665 479 644 c 0,67,68
 479 640 479 640 469 580 c 1,69,-1
 425 491 l 1,70,-1
 507 548 l 1,71,-1
 561 564 l 2,72,73
 564 565 564 565 569 565 c 0,17,18
EndSplineSet
EndChar

StartChar: plus
Encoding: 43 43 14
Width: 600
GlyphClass: 2
Flags: W
LayerCount: 2
Fore
SplineSet
71 240 m 1,0,-1
 96 384 l 1,1,-1
 244 384 l 1,2,-1
 272 539 l 1,3,-1
 408 539 l 1,4,-1
 380 384 l 1,5,-1
 529 384 l 1,6,-1
 504 240 l 1,7,-1
 355 240 l 1,8,-1
 327 84 l 1,9,-1
 191 84 l 1,10,-1
 219 240 l 1,11,-1
 71 240 l 1,0,-1
EndSplineSet
EndChar

StartChar: comma
Encoding: 44 44 15
Width: 325
GlyphClass: 2
Flags: W
LayerCount: 2
Fore
SplineSet
130 182.5 m 128,-1,1
 155 206 155 206 210 206 c 128,-1,2
 265 206 265 206 284.5 191 c 128,-1,3
 304 176 304 176 304 141 c 0,4,5
 304 72 304 72 248 -15 c 2,6,-1
 160 -151 l 1,7,-1
 80 -122 l 1,8,-1
 136 22 l 1,9,10
 90 30 90 30 90 72 c 0,11,12
 90 84 90 84 93 99 c 0,13,0
 105 159 105 159 130 182.5 c 128,-1,1
-154 48 m 1,14,-1
 59 48 l 1,15,16
 71 10 71 10 97 -1 c 1,17,-1
 -154 48 l 1,14,-1
72 145 m 1,18,19
 66 125 66 125 63 100 c 1,20,-1
 -159 145 l 1,21,-1
 72 145 l 1,18,19
EndSplineSet
EndChar

StartChar: hyphen
Encoding: 45 45 16
Width: 350
GlyphClass: 2
Flags: W
LayerCount: 2
Fore
SplineSet
324 196 m 1,0,-1
 0 241 l 1,1,-1
 332 241 l 1,2,-1
 324 196 l 1,0,-1
341 292 m 1,3,-1
 17 337 l 1,4,-1
 349 337 l 1,5,-1
 341 292 l 1,3,-1
EndSplineSet
Position2: "'case' Case-Sensitive Forms in Latin lookup 1 subtable" dx=0 dy=50 dh=0 dv=0
EndChar

StartChar: period
Encoding: 46 46 17
Width: 325
GlyphClass: 2
Flags: W
LayerCount: 2
Fore
SplineSet
72 145 m 1,0,1
 66 125 66 125 63 100 c 1,2,-1
 -159 145 l 1,3,-1
 72 145 l 1,0,1
70 3 m 1,4,-1
 -154 48 l 1,5,-1
 59 48 l 1,6,7
 61 19 61 19 70 3 c 1,4,-1
128.5 182 m 128,-1,9
 154 206 154 206 209.5 206 c 128,-1,10
 265 206 265 206 284.5 191 c 128,-1,11
 304 176 304 176 304 148 c 128,-1,12
 304 120 304 120 300 99 c 0,13,14
 290 40 290 40 264.5 17 c 128,-1,15
 239 -6 239 -6 183.5 -6 c 128,-1,16
 128 -6 128 -6 108.5 8.5 c 128,-1,17
 89 23 89 23 89 50.5 c 128,-1,18
 89 78 89 78 93 99 c 0,19,8
 103 158 103 158 128.5 182 c 128,-1,9
EndSplineSet
EndChar

StartChar: slash
Encoding: 47 47 18
Width: 651
GlyphClass: 2
Flags: W
LayerCount: 2
Fore
SplineSet
219 -40 m 2,0,-1
 148 -40 l 1,1,-1
 537 640 l 2,2,3
 542 650 542 650 546 654 c 0,4,5
 557 665 557 665 580 665 c 2,6,-1
 651 665 l 1,7,-1
 262 -15 l 2,8,9
 257 -25 257 -25 253 -29 c 0,10,11
 242 -40 242 -40 219 -40 c 2,0,-1
141 3 m 1,12,-1
 -150 48 l 1,13,-1
 165 48 l 1,14,-1
 141 3 l 1,12,-1
251 196 m 1,15,-1
 -40 241 l 1,16,-1
 275 241 l 1,17,-1
 251 196 l 1,15,-1
306 292 m 1,18,-1
 15 337 l 1,19,-1
 330 337 l 1,20,-1
 306 292 l 1,18,-1
361 388 m 1,21,-1
 70 433 l 1,22,-1
 385 433 l 1,23,-1
 361 388 l 1,21,-1
416 484 m 1,24,-1
 125 529 l 1,25,-1
 439 529 l 1,26,-1
 416 484 l 1,24,-1
196 100 m 1,27,-1
 -95 145 l 1,28,-1
 220 145 l 1,29,-1
 196 100 l 1,27,-1
470 580 m 1,30,-1
 179 625 l 1,31,-1
 493 625 l 1,32,-1
 470 580 l 1,30,-1
EndSplineSet
EndChar

StartChar: zero
Encoding: 48 48 19
Width: 773
GlyphClass: 2
Flags: W
LayerCount: 2
Fore
SplineSet
184 292 m 1,0,-1
 -240 337 l 1,1,-1
 192 337 l 1,2,-1
 184 292 l 1,0,-1
174 196 m 1,3,-1
 -250 241 l 1,4,-1
 178 241 l 1,5,6
 176 224 176 224 174 196 c 1,3,-1
215 433 m 1,7,-1
 203 388 l 1,8,-1
 -217 433 l 1,9,-1
 215 433 l 1,7,-1
174 145 m 1,10,11
 176 121 176 121 180 100 c 1,12,-1
 -243 145 l 1,13,-1
 174 145 l 1,10,11
252 529 m 1,14,15
 238 501 238 501 232 485 c 1,16,-1
 -178 529 l 1,17,-1
 252 529 l 1,14,15
339 625 m 1,18,19
 310 606 310 606 291 584 c 1,20,-1
 -91 625 l 1,21,-1
 339 625 l 1,18,19
234 3 m 1,22,-1
 -190 48 l 1,23,-1
 198 48 l 1,24,25
 212 21 212 21 234 3 c 1,22,-1
531 640 m 0,26,27
 647 640 647 640 695 594.5 c 128,-1,28
 743 549 743 549 743 453 c 0,29,30
 743 400 743 400 727.5 312.5 c 128,-1,31
 712 225 712 225 692 168.5 c 128,-1,32
 672 112 672 112 637 68 c 0,33,34
 570 -15 570 -15 416 -15 c 0,35,36
 300 -15 300 -15 252 30 c 128,-1,37
 204 75 204 75 204 171 c 0,38,39
 204 232 204 232 219 315.5 c 128,-1,40
 234 399 234 399 254.5 456 c 128,-1,41
 275 513 275 513 310 556 c 0,42,43
 377 640 377 640 531 640 c 0,26,27
425 146 m 2,44,45
 468 146 468 146 487 155.5 c 128,-1,46
 506 165 506 165 512 199 c 2,47,-1
 561 479 l 1,48,-1
 516 479 l 2,49,50
 474 479 474 479 457.5 470 c 128,-1,51
 441 461 441 461 435 426 c 2,52,-1
 385 146 l 1,53,-1
 425 146 l 2,44,45
EndSplineSet
EndChar

StartChar: one
Encoding: 49 49 20
Width: 709
GlyphClass: 2
Flags: W
LayerCount: 2
Fore
SplineSet
504 0 m 1,0,-1
 304 0 l 1,1,-1
 378 425 l 1,2,-1
 211 425 l 1,3,-1
 236 573 l 1,4,-1
 463 625 l 1,5,-1
 613 625 l 1,6,-1
 504 0 l 1,0,-1
273 3 m 1,7,-1
 -151 48 l 1,8,-1
 281 48 l 1,9,-1
 273 3 l 1,7,-1
307 196 m 1,10,-1
 -117 241 l 1,11,-1
 315 241 l 1,12,-1
 307 196 l 1,10,-1
324 292 m 1,13,-1
 -100 337 l 1,14,-1
 332 337 l 1,15,-1
 324 292 l 1,13,-1
174 388 m 1,16,-1
 -250 433 l 1,17,-1
 182 433 l 1,18,-1
 174 388 l 1,16,-1
190 484 m 1,19,-1
 -234 529 l 1,20,-1
 197 529 l 1,21,-1
 190 484 l 1,19,-1
290 100 m 1,22,-1
 -134 145 l 1,23,-1
 298 145 l 1,24,-1
 290 100 l 1,22,-1
207 589 m 1,25,-1
 -105 625 l 1,26,-1
 327 625 l 1,27,-1
 209 598 l 1,28,-1
 207 589 l 1,25,-1
EndSplineSet
EndChar

StartChar: two
Encoding: 50 50 21
Width: 808
GlyphClass: 2
Flags: W
LayerCount: 2
Fore
SplineSet
322 475 m 1,0,-1
 322 602 l 1,1,2
 448 640 448 640 568 640 c 0,3,4
 702 640 702 640 744 604 c 0,5,6
 784 569 784 569 784 498.5 c 128,-1,7
 784 428 784 428 764.5 378.5 c 128,-1,8
 745 329 745 329 689.5 292 c 128,-1,9
 634 255 634 255 598 240 c 0,10,11
 538 215 538 215 457 188 c 1,12,-1
 452 160 l 1,13,-1
 720 160 l 1,14,-1
 692 0 l 1,15,-1
 204 0 l 1,16,-1
 226 125 l 2,17,18
 236 185 236 185 254.5 214 c 128,-1,19
 273 243 273 243 285.5 258.5 c 128,-1,20
 298 274 298 274 319 289.5 c 128,-1,21
 340 305 340 305 356.5 315.5 c 128,-1,22
 373 326 373 326 402.5 340.5 c 128,-1,23
 432 355 432 355 452 364 c 128,-1,24
 472 373 472 373 509 389 c 128,-1,25
 546 405 546 405 570 416 c 1,26,-1
 579 475 l 1,27,-1
 322 475 l 1,0,-1
174 3 m 1,28,-1
 -250 48 l 1,29,-1
 182 48 l 1,30,-1
 174 3 l 1,28,-1
191 100 m 1,31,-1
 -233 145 l 1,32,-1
 199 145 l 1,33,-1
 191 100 l 1,31,-1
292 529 m 1,34,-1
 292 484 l 1,35,-1
 -132 529 l 1,36,-1
 292 529 l 1,34,-1
293 625 m 1,37,-1
 293 580 l 1,38,-1
 -130 625 l 1,39,-1
 293 625 l 1,37,-1
235 241 m 1,40,-1
 235 240 l 1,41,42
 223 220 223 220 214 197 c 1,43,-1
 -197 241 l 1,44,-1
 235 241 l 1,40,-1
333 337 m 1,45,46
 307 320 307 320 280 297 c 1,47,-1
 -97 337 l 1,48,-1
 333 337 l 1,45,46
537 433 m 1,49,-1
 449 396 l 1,50,-1
 99 433 l 1,51,-1
 537 433 l 1,49,-1
EndSplineSet
EndChar

StartChar: three
Encoding: 51 51 22
Width: 795
GlyphClass: 2
Flags: W
LayerCount: 2
Fore
SplineSet
344 292 m 1,0,-1
 -79 337 l 1,1,-1
 352 337 l 1,2,-1
 344 292 l 1,0,-1
214 145 m 1,3,-1
 200 100 l 1,4,-1
 -218 145 l 1,5,-1
 214 145 l 1,3,-1
182 48 m 1,6,-1
 168 3 l 1,7,-1
 -250 48 l 1,8,-1
 182 48 l 1,6,-1
287 529 m 1,9,-1
 287 484 l 1,10,-1
 -137 529 l 1,11,-1
 287 529 l 1,9,-1
328 196 m 1,12,-1
 -96 241 l 1,13,-1
 336 241 l 1,14,-1
 328 196 l 1,12,-1
288 625 m 1,15,-1
 288 580 l 1,16,-1
 -135 625 l 1,17,-1
 288 625 l 1,15,-1
-63 433 m 1,18,-1
 369 433 l 1,19,-1
 360 388 l 1,20,-1
 -63 433 l 1,18,-1
318 475 m 1,21,-1
 318 602 l 1,22,23
 440 640 440 640 548 640 c 0,24,25
 646 640 646 640 702 620 c 0,26,27
 765 598 765 598 765 522 c 0,28,29
 765 392 765 392 657 337 c 1,30,-1
 656 332 l 1,31,32
 727 297 727 297 727 219 c 0,33,34
 727 -15 727 -15 417 -15 c 0,35,36
 303 -15 303 -15 202 11 c 1,37,-1
 258 176 l 1,38,39
 344 153 344 153 407 153 c 128,-1,40
 470 153 470 153 516 159 c 1,41,-1
 527 223 l 1,42,-1
 366 240 l 1,43,-1
 391 385 l 1,44,-1
 559 405 l 1,45,-1
 570 475 l 1,46,-1
 318 475 l 1,21,-1
EndSplineSet
EndChar

StartChar: four
Encoding: 52 52 23
Width: 812
GlyphClass: 2
Flags: W
LayerCount: 2
Fore
SplineSet
451 3 m 1,0,-1
 27 48 l 1,1,-1
 459 48 l 1,2,-1
 451 3 l 1,0,-1
174 100 m 1,3,-1
 -250 145 l 1,4,-1
 182 145 l 1,5,-1
 174 100 l 1,3,-1
-230 241 m 1,6,-1
 202 241 l 1,7,-1
 197 232 l 1,8,-1
 191 196 l 1,9,-1
 -230 241 l 1,6,-1
230 293 m 1,10,-1
 -177 337 l 1,11,-1
 254 337 l 1,12,-1
 230 293 l 1,10,-1
387 581 m 1,13,-1
 -20 625 l 1,14,-1
 410 625 l 1,15,-1
 387 581 l 1,13,-1
282 390 m 1,16,-1
 -124 433 l 1,17,-1
 306 433 l 1,18,-1
 282 390 l 1,16,-1
335 486 m 1,19,-1
 -71 529 l 1,20,-1
 358 529 l 1,21,-1
 335 486 l 1,19,-1
481 0 m 1,22,-1
 498 100 l 1,23,-1
 205 100 l 1,24,-1
 227 225 l 1,25,-1
 444 625 l 1,26,-1
 781 625 l 1,27,-1
 718 272 l 1,28,-1
 780 272 l 1,29,-1
 750 100 l 1,30,-1
 688 100 l 1,31,-1
 671 0 l 1,32,-1
 481 0 l 1,22,-1
554 475 m 1,33,-1
 434 272 l 1,34,-1
 528 272 l 1,35,-1
 564 475 l 1,36,-1
 554 475 l 1,33,-1
EndSplineSet
EndChar

StartChar: five
Encoding: 53 53 24
Width: 799
GlyphClass: 2
Flags: W
LayerCount: 2
Fore
SplineSet
-161 433 m 1,0,-1
 271 433 l 1,1,-1
 261 388 l 1,2,-1
 -161 433 l 1,0,-1
291 529 m 1,3,-1
 282 484 l 1,4,-1
 -140 529 l 1,5,-1
 291 529 l 1,3,-1
302 580 m 1,6,-1
 -119 625 l 1,7,-1
 311 625 l 1,8,-1
 302 580 l 1,6,-1
-250 48 m 1,9,-1
 182 48 l 1,10,-1
 168 3 l 1,11,-1
 -250 48 l 1,9,-1
199 101 m 1,12,-1
 -217 145 l 1,13,-1
 214 145 l 1,14,-1
 199 101 l 1,12,-1
253 337 m 1,15,-1
 253 326 l 2,16,17
 253 308 253 308 256 292 c 1,18,-1
 -168 337 l 1,19,-1
 253 337 l 1,15,-1
283 241 m 1,20,21
 314 212 314 212 385 198 c 1,22,-1
 -20 241 l 1,23,-1
 283 241 l 1,20,21
257 176 m 1,24,25
 343 153 343 153 411 153 c 128,-1,26
 479 153 479 153 524 159 c 1,27,-1
 532 209 l 1,28,-1
 463 217 l 2,29,30
 362 229 362 229 322.5 251.5 c 128,-1,31
 283 274 283 274 283 326 c 0,32,33
 283 345 283 345 287 365 c 2,34,-1
 342 625 l 1,35,-1
 774 625 l 1,36,-1
 729 453 l 1,37,-1
 507 467 l 1,38,-1
 496 406 l 1,39,-1
 551 399 l 2,40,41
 656 385 656 385 699 351.5 c 128,-1,42
 742 318 742 318 742 252.5 c 128,-1,43
 742 187 742 187 722.5 136 c 128,-1,44
 703 85 703 85 673 56.5 c 128,-1,45
 643 28 643 28 598.5 11.5 c 128,-1,46
 554 -5 554 -5 515 -10 c 128,-1,47
 476 -15 476 -15 426 -15 c 0,48,49
 302 -15 302 -15 201 11 c 1,50,-1
 257 176 l 1,24,25
EndSplineSet
EndChar

StartChar: six
Encoding: 54 54 25
Width: 769
GlyphClass: 2
Flags: W
LayerCount: 2
Fore
SplineSet
183 292 m 1,0,-1
 -240 337 l 1,1,-1
 192 337 l 1,2,3
 190 331 190 331 183 292 c 1,0,-1
177 241 m 1,4,5
 177 238 177 238 175.5 221 c 128,-1,6
 174 204 174 204 174 196 c 1,7,-1
 -250 241 l 1,8,-1
 177 241 l 1,4,5
217 433 m 1,9,10
 211 417 211 417 204 388 c 1,11,-1
 -215 433 l 1,12,-1
 217 433 l 1,9,10
181 100 m 1,13,-1
 -243 145 l 1,14,-1
 175 145 l 1,15,16
 176 123 176 123 181 100 c 1,13,-1
261 529 m 1,17,18
 245 501 245 501 238 486 c 1,19,-1
 -169 529 l 1,20,-1
 261 529 l 1,17,18
361 625 m 1,21,22
 330 606 330 606 307 585 c 1,23,-1
 -68 625 l 1,24,-1
 361 625 l 1,21,22
200 48 m 1,25,26
 214 21 214 21 233 5 c 1,27,-1
 -170 48 l 1,28,-1
 200 48 l 1,25,26
469 257 m 2,29,30
 437 257 437 257 423 249.5 c 128,-1,31
 409 242 409 242 404 215 c 2,32,-1
 390 136 l 1,33,-1
 429 136 l 2,34,35
 461 136 461 136 474.5 143.5 c 128,-1,36
 488 151 488 151 493 178 c 2,37,-1
 507 257 l 1,38,-1
 469 257 l 2,29,30
707 259 m 0,39,40
 707 122 707 122 631.5 53.5 c 128,-1,41
 556 -15 556 -15 412 -15 c 0,42,43
 300 -15 300 -15 252 32 c 128,-1,44
 204 79 204 79 204 177 c 0,45,46
 204 233 204 233 218.5 316 c 128,-1,47
 233 399 233 399 255 456 c 128,-1,48
 277 513 277 513 317 556 c 0,49,50
 394 640 394 640 574 640 c 0,51,52
 610 640 610 640 668 631.5 c 128,-1,53
 726 623 726 623 753 614 c 1,54,-1
 703 475 l 1,55,-1
 451 475 l 1,56,-1
 438 405 l 1,57,-1
 486 405 l 2,58,59
 584 405 584 405 641 381 c 0,60,61
 707 353 707 353 707 259 c 0,39,40
EndSplineSet
EndChar

StartChar: seven
Encoding: 55 55 26
Width: 702
GlyphClass: 2
Flags: W
LayerCount: 2
Fore
SplineSet
174 388 m 1,0,-1
 -250 433 l 1,1,-1
 181 433 l 1,2,-1
 174 388 l 1,0,-1
186 484 m 1,3,-1
 -238 529 l 1,4,-1
 191 529 l 1,5,-1
 186 484 l 1,3,-1
196 580 m 1,6,-1
 -226 625 l 1,7,-1
 201 625 l 1,8,-1
 196 580 l 1,6,-1
185 48 m 1,9,-1
 161 4 l 1,10,-1
 -247 48 l 1,11,-1
 185 48 l 1,9,-1
-86 337 m 1,12,-1
 346 337 l 1,13,-1
 322 293 l 1,14,-1
 -86 337 l 1,12,-1
-193 145 m 1,15,-1
 239 145 l 1,16,-1
 215 101 l 1,17,-1
 -193 145 l 1,15,-1
268 198 m 1,18,-1
 -139 241 l 1,19,-1
 292 241 l 1,20,-1
 268 198 l 1,18,-1
679 500 m 1,21,-1
 408 0 l 1,22,-1
 193 0 l 1,23,-1
 442 448 l 1,24,-1
 213 448 l 1,25,-1
 231 625 l 1,26,-1
 701 625 l 1,27,-1
 679 500 l 1,21,-1
EndSplineSet
EndChar

StartChar: eight
Encoding: 56 56 27
Width: 781
GlyphClass: 2
Flags: W
LayerCount: 2
Fore
SplineSet
198 238 m 1,0,1
 187 217 187 217 181 197 c 1,2,-1
 -233 241 l 1,3,-1
 199 241 l 1,4,-1
 198 238 l 1,0,1
242 433 m 1,5,-1
 242 422 l 2,6,7
 242 399 242 399 244 388 c 1,8,-1
 -180 433 l 1,9,-1
 242 433 l 1,5,-1
263 529 m 1,10,11
 253 507 253 507 248 485 c 1,12,-1
 -168 529 l 1,13,-1
 263 529 l 1,10,11
172 145 m 1,14,15
 171 140 171 140 171 127.5 c 128,-1,16
 171 115 171 115 174 100 c 1,17,-1
 -250 145 l 1,18,-1
 172 145 l 1,14,15
271 318 m 1,19,20
 254 308 254 308 241 294 c 1,21,-1
 -157 337 l 1,22,-1
 260 337 l 1,23,24
 263 330 263 330 271 318 c 1,19,20
351 625 m 1,25,26
 324 609 324 609 300 584 c 1,27,-1
 -79 625 l 1,28,-1
 351 625 l 1,25,26
190 48 m 1,29,30
 203 22 203 22 228 3 c 1,31,-1
 -195 48 l 1,32,-1
 190 48 l 1,29,30
686 606.5 m 128,-1,34
 743 573 743 573 743 498 c 0,35,36
 743 441 743 441 717 391.5 c 128,-1,37
 691 342 691 342 650 315 c 1,38,-1
 649 308 l 1,39,40
 678 292 678 292 694.5 262.5 c 128,-1,41
 711 233 711 233 711 196 c 0,42,43
 711 123 711 123 671 74 c 0,44,45
 597 -15 597 -15 424 -15 c 0,46,47
 201 -15 201 -15 201 131 c 0,48,49
 201 188 201 188 232 236.5 c 128,-1,50
 263 285 263 285 313 308 c 1,51,-1
 314 315 l 1,52,53
 272 351 272 351 272 416.5 c 128,-1,54
 272 482 272 482 295.5 526 c 128,-1,55
 319 570 319 570 360 594 c 0,56,57
 437 640 437 640 533 640 c 128,-1,33
 629 640 629 640 686 606.5 c 128,-1,34
432 240 m 0,58,59
 421 240 421 240 418 223 c 2,60,-1
 402 136 l 1,61,-1
 441 136 l 2,62,63
 473 136 473 136 486.5 143.5 c 128,-1,64
 500 151 500 151 505 178 c 2,65,-1
 509 201 l 1,66,-1
 450 234 l 2,67,68
 439 240 439 240 432 240 c 0,58,59
522 385 m 0,69,70
 541 385 541 385 545 403 c 2,71,-1
 559 484 l 1,72,-1
 521 484 l 2,73,74
 489 484 489 484 474.5 476.5 c 128,-1,75
 460 469 460 469 456 442 c 2,76,-1
 453 423 l 1,77,-1
 509 389 l 2,78,79
 517 385 517 385 522 385 c 0,69,70
EndSplineSet
EndChar

StartChar: nine
Encoding: 57 57 28
Width: 787
GlyphClass: 2
Flags: W
LayerCount: 2
Fore
SplineSet
219 388 m 1,0,-1
 -205 433 l 1,1,-1
 223 433 l 1,2,3
 221 416 221 416 219 388 c 1,0,-1
199 101 m 1,4,-1
 -216 145 l 1,5,-1
 215 145 l 1,6,-1
 199 101 l 1,4,-1
166 4 m 1,7,-1
 -250 48 l 1,8,-1
 181 48 l 1,9,-1
 166 4 l 1,7,-1
253 529 m 1,10,-1
 235 485 l 1,11,-1
 -178 529 l 1,12,-1
 253 529 l 1,10,-1
346 625 m 1,13,-1
 346 624 l 1,14,15
 316 608 316 608 294 584 c 1,16,-1
 -85 625 l 1,17,-1
 346 625 l 1,13,-1
220 337 m 1,18,19
 224 311 224 311 228 298 c 1,20,-1
 -136 337 l 1,21,-1
 220 337 l 1,18,19
329 209 m 1,22,-1
 328 204 l 1,23,-1
 10 241 l 1,24,-1
 267 241 l 1,25,26
 295 217 295 217 329 209 c 1,22,-1
490 376 m 2,27,28
 522 376 522 376 535.5 383.5 c 128,-1,29
 549 391 549 391 554 418 c 2,30,-1
 567 489 l 1,31,-1
 528 489 l 2,32,33
 496 489 496 489 482 481.5 c 128,-1,34
 468 474 468 474 464 447 c 2,35,-1
 452 376 l 1,36,-1
 490 376 l 2,27,28
473 228 m 2,37,38
 335 228 335 228 292 262.5 c 128,-1,39
 249 297 249 297 249 367 c 0,40,41
 249 503 249 503 325.5 571.5 c 128,-1,42
 402 640 402 640 545 640 c 0,43,44
 657 640 657 640 705.5 592.5 c 128,-1,45
 754 545 754 545 754 446 c 0,46,47
 754 391 754 391 740 313 c 0,48,49
 709 141 709 141 641.5 63 c 128,-1,50
 574 -15 574 -15 437.5 -15 c 128,-1,51
 301 -15 301 -15 200 11 c 1,52,-1
 257 176 l 1,53,54
 343 153 343 153 402.5 153 c 128,-1,55
 462 153 462 153 509 159 c 1,56,-1
 521 228 l 1,57,-1
 473 228 l 2,37,38
EndSplineSet
EndChar

StartChar: colon
Encoding: 58 58 29
Width: 325
GlyphClass: 2
Flags: W
LayerCount: 2
Fore
SplineSet
72 145 m 1,0,1
 66 125 66 125 63 100 c 1,2,-1
 -159 145 l 1,3,-1
 72 145 l 1,0,1
70 3 m 1,4,-1
 -154 48 l 1,5,-1
 59 48 l 1,6,7
 61 19 61 19 70 3 c 1,4,-1
128.5 182 m 128,-1,9
 154 206 154 206 209.5 206 c 128,-1,10
 265 206 265 206 284.5 191 c 128,-1,11
 304 176 304 176 304 148 c 128,-1,12
 304 120 304 120 300 99 c 0,13,14
 290 40 290 40 264.5 17 c 128,-1,15
 239 -6 239 -6 183.5 -6 c 128,-1,16
 128 -6 128 -6 108.5 8.5 c 128,-1,17
 89 23 89 23 89 50.5 c 128,-1,18
 89 78 89 78 93 99 c 0,19,8
 103 158 103 158 128.5 182 c 128,-1,9
125 434 m 1,20,21
 119 414 119 414 116 389 c 1,22,-1
 -106 434 l 1,23,-1
 125 434 l 1,20,21
123 292 m 1,24,-1
 -101 337 l 1,25,-1
 112 337 l 1,26,27
 114 308 114 308 123 292 c 1,24,-1
181.5 471 m 128,-1,29
 207 495 207 495 262.5 495 c 128,-1,30
 318 495 318 495 337.5 480 c 128,-1,31
 357 465 357 465 357 437 c 128,-1,32
 357 409 357 409 353 388 c 0,33,34
 343 329 343 329 317.5 306 c 128,-1,35
 292 283 292 283 236.5 283 c 128,-1,36
 181 283 181 283 161.5 297.5 c 128,-1,37
 142 312 142 312 142 339.5 c 128,-1,38
 142 367 142 367 146 388 c 0,39,28
 156 447 156 447 181.5 471 c 128,-1,29
EndSplineSet
EndChar

StartChar: semicolon
Encoding: 59 59 30
Width: 325
GlyphClass: 2
Flags: W
LayerCount: 2
Fore
SplineSet
130 182.5 m 128,-1,1
 155 206 155 206 210 206 c 128,-1,2
 265 206 265 206 284.5 191 c 128,-1,3
 304 176 304 176 304 141 c 0,4,5
 304 72 304 72 248 -15 c 2,6,-1
 160 -151 l 1,7,-1
 80 -122 l 1,8,-1
 136 22 l 1,9,10
 90 30 90 30 90 72 c 0,11,12
 90 84 90 84 93 99 c 0,13,0
 105 159 105 159 130 182.5 c 128,-1,1
-154 48 m 1,14,-1
 59 48 l 1,15,16
 71 10 71 10 97 -1 c 1,17,-1
 -154 48 l 1,14,-1
72 145 m 1,18,19
 66 125 66 125 63 100 c 1,20,-1
 -159 145 l 1,21,-1
 72 145 l 1,18,19
125 434 m 1,22,23
 119 414 119 414 116 389 c 1,24,-1
 -106 434 l 1,25,-1
 125 434 l 1,22,23
123 292 m 1,26,-1
 -101 337 l 1,27,-1
 112 337 l 1,28,29
 114 308 114 308 123 292 c 1,26,-1
181.5 471 m 128,-1,31
 207 495 207 495 262.5 495 c 128,-1,32
 318 495 318 495 337.5 480 c 128,-1,33
 357 465 357 465 357 437 c 128,-1,34
 357 409 357 409 353 388 c 0,35,36
 343 329 343 329 317.5 306 c 128,-1,37
 292 283 292 283 236.5 283 c 128,-1,38
 181 283 181 283 161.5 297.5 c 128,-1,39
 142 312 142 312 142 339.5 c 128,-1,40
 142 367 142 367 146 388 c 0,41,30
 156 447 156 447 181.5 471 c 128,-1,31
EndSplineSet
EndChar

StartChar: less
Encoding: 60 60 31
Width: 600
GlyphClass: 2
Flags: W
LayerCount: 2
Fore
SplineSet
497 557 m 1,0,-1
 537 423 l 1,1,-1
 250 315 l 1,2,-1
 249 308 l 1,3,-1
 488 201 l 1,4,-1
 400 67 l 1,5,-1
 96 221 l 1,6,-1
 128 403 l 1,7,-1
 497 557 l 1,0,-1
EndSplineSet
EndChar

StartChar: equal
Encoding: 61 61 32
Width: 600
GlyphClass: 2
Flags: W
LayerCount: 2
Fore
SplineSet
50 121 m 1,0,-1
 75 265 l 1,1,-1
 508 265 l 1,2,-1
 483 121 l 1,3,-1
 50 121 l 1,0,-1
92 359 m 1,4,-1
 117 503 l 1,5,-1
 550 503 l 1,6,-1
 525 359 l 1,7,-1
 92 359 l 1,4,-1
EndSplineSet
EndChar

StartChar: greater
Encoding: 62 62 33
Width: 600
GlyphClass: 2
Flags: W
LayerCount: 2
Fore
SplineSet
110 67 m 1,0,-1
 70 201 l 1,1,-1
 357 309 l 1,2,-1
 358 316 l 1,3,-1
 119 423 l 1,4,-1
 207 557 l 1,5,-1
 511 403 l 1,6,-1
 479 221 l 1,7,-1
 110 67 l 1,0,-1
EndSplineSet
EndChar

StartChar: question
Encoding: 63 63 34
Width: 610
GlyphClass: 2
Flags: W
LayerCount: 2
Fore
SplineSet
223 292 m 1,0,-1
 -151 337 l 1,1,-1
 228 337 l 1,2,-1
 224 296 l 1,3,-1
 223 292 l 1,0,-1
213 196 m 1,4,-1
 -161 241 l 1,5,-1
 218 241 l 1,6,-1
 213 196 l 1,4,-1
200 484 m 1,7,-1
 -173 529 l 1,8,-1
 201 529 l 1,9,-1
 200 484 l 1,7,-1
166 44 m 2,10,11
 166 18 166 18 174 3 c 1,12,-1
 -200 48 l 1,13,-1
 166 48 l 1,14,-1
 166 44 l 2,10,11
200 145 m 1,15,16
 182 128 182 128 174 102 c 1,17,-1
 -181 145 l 1,18,-1
 200 145 l 1,15,16
292 433 m 1,19,20
 247 415 247 415 237 393 c 1,21,-1
 -90 433 l 1,22,-1
 292 433 l 1,19,20
446 487 m 1,23,24
 422 489 422 489 390 489 c 128,-1,25
 358 489 358 489 304.5 482.5 c 128,-1,26
 251 476 251 476 230 469 c 1,27,-1
 232 612 l 1,28,29
 341 640 341 640 435 640 c 0,30,31
 527 640 527 640 568 625 c 128,-1,32
 609 610 609 610 624.5 585.5 c 128,-1,33
 640 561 640 561 640 523 c 0,34,35
 640 438 640 438 594.5 386.5 c 128,-1,36
 549 335 549 335 442 302 c 1,37,-1
 403 175 l 1,38,-1
 241 175 l 1,39,-1
 261 363 l 2,40,41
 263 381 263 381 276 391 c 128,-1,42
 289 401 289 401 332 416 c 2,43,-1
 440 453 l 1,44,-1
 446 487 l 1,23,24
196 44 m 0,45,46
 196 100 196 100 226.5 124.5 c 128,-1,47
 257 149 257 149 314.5 149 c 128,-1,48
 372 149 372 149 393 136.5 c 128,-1,49
 414 124 414 124 414 96 c 0,50,51
 414 40 414 40 387 16.5 c 128,-1,52
 360 -7 360 -7 299 -7 c 128,-1,53
 238 -7 238 -7 217 4.5 c 128,-1,54
 196 16 196 16 196 44 c 0,45,46
EndSplineSet
EndChar

StartChar: at
Encoding: 64 64 35
Width: 1068
GlyphClass: 2
Flags: W
LayerCount: 2
Fore
SplineSet
715 221 m 2,0,1
 747 221 747 221 763.5 227.5 c 128,-1,2
 780 234 780 234 786 257 c 1,3,-1
 797 319 l 1,4,-1
 767 319 l 2,5,6
 733 319 733 319 715 311.5 c 128,-1,7
 697 304 697 304 693 277 c 2,8,-1
 684 221 l 1,9,-1
 715 221 l 2,0,1
946.5 652.5 m 128,-1,11
 1022 615 1022 615 1022 535 c 0,12,13
 1022 523 1022 523 1018 497 c 2,14,-1
 947 90 l 1,15,-1
 852 90 l 1,16,-1
 809 153 l 1,17,18
 739 81 739 81 629 81 c 0,19,20
 508 81 508 81 508 198 c 0,21,22
 508 322 508 322 580.5 381 c 128,-1,23
 653 440 653 440 780 440 c 2,24,-1
 818 440 l 1,25,-1
 831 513 l 1,26,27
 784 523 784 523 720.5 523 c 128,-1,28
 657 523 657 523 632.5 521.5 c 128,-1,29
 608 520 608 520 576.5 512 c 128,-1,30
 545 504 545 504 525 490 c 0,31,32
 477 455 477 455 464 380 c 2,33,-1
 429 183 l 2,34,35
 425 164 425 164 425 140 c 128,-1,36
 425 116 425 116 436 95.5 c 128,-1,37
 447 75 447 75 462.5 64.5 c 128,-1,38
 478 54 478 54 505 48 c 0,39,40
 541 40 541 40 610 40 c 2,41,-1
 789 40 l 1,42,-1
 772 -54 l 1,43,44
 669 -75 669 -75 592 -75 c 128,-1,45
 515 -75 515 -75 465 -67.5 c 128,-1,46
 415 -60 415 -60 370.5 -42.5 c 128,-1,47
 326 -25 326 -25 296 4 c 0,48,49
 231 65 231 65 231 178 c 0,50,51
 231 208 231 208 240 266 c 2,52,-1
 254 349 l 2,53,54
 270 446 270 446 312.5 515 c 128,-1,55
 355 584 355 584 418 621 c 0,56,57
 535 690 535 690 703 690 c 128,-1,10
 871 690 871 690 946.5 652.5 c 128,-1,11
213 292 m 1,58,-1
 -211 337 l 1,59,-1
 221 337 l 1,60,-1
 213 292 l 1,58,-1
-188 433 m 1,61,-1
 243 433 l 1,62,63
 235 409 235 409 231 388 c 1,64,-1
 -188 433 l 1,61,-1
205 241 m 1,65,66
 203 226 203 226 201 196 c 1,67,-1
 -220 241 l 1,68,-1
 205 241 l 1,65,66
285 529 m 1,69,70
 269 501 269 501 262 485 c 1,71,-1
 -138 529 l 1,72,-1
 285 529 l 1,69,70
202 145 m 1,73,74
 203 128 203 128 209 100 c 1,75,-1
 -210 145 l 1,76,-1
 202 145 l 1,73,74
226 48 m 1,77,78
 237 25 237 25 253 5 c 1,79,-1
 -158 48 l 1,80,-1
 226 48 l 1,77,78
EndSplineSet
EndChar

StartChar: A
Encoding: 65 65 36
Width: 851
GlyphClass: 2
Flags: W
LayerCount: 2
Fore
SplineSet
392 0 m 1,0,-1
 192 0 l 1,1,-1
 455 625 l 1,2,-1
 749 625 l 1,3,-1
 793 0 l 1,4,-1
 592 0 l 1,5,-1
 588 99 l 1,6,-1
 431 99 l 1,7,-1
 392 0 l 1,0,-1
573 258 m 1,8,-1
 573 433 l 1,9,-1
 563 433 l 1,10,-1
 493 258 l 1,11,-1
 573 258 l 1,8,-1
160 4 m 1,12,-1
 -250 48 l 1,13,-1
 179 48 l 1,14,-1
 160 4 l 1,12,-1
201 101 m 1,15,-1
 -209 145 l 1,16,-1
 220 145 l 1,17,-1
 201 101 l 1,15,-1
242 197 m 1,18,-1
 -168 241 l 1,19,-1
 260 241 l 1,20,-1
 242 197 l 1,18,-1
282 293 m 1,21,-1
 -127 337 l 1,22,-1
 301 337 l 1,23,-1
 282 293 l 1,21,-1
323 389 m 1,24,-1
 -86 433 l 1,25,-1
 341 433 l 1,26,-1
 323 389 l 1,24,-1
404 582 m 1,27,-1
 -4 625 l 1,28,-1
 422 625 l 1,29,-1
 404 582 l 1,27,-1
363 486 m 1,30,-1
 -45 529 l 1,31,-1
 381 529 l 1,32,-1
 363 486 l 1,30,-1
404 582 m 1,33,-1
 422 625 l 1,34,-1
 -4 625 l 1,35,-1
 404 582 l 1,33,-1
EndSplineSet
Position2: "'cpsp' Capital Spacing in Latin lookup 0 subtable" dx=0 dy=0 dh=15 dv=0
EndChar

StartChar: B
Encoding: 66 66 37
Width: 774
GlyphClass: 2
Flags: W
LayerCount: 2
Fore
SplineSet
622 625 m 2,0,1
 694 625 694 625 726.5 600 c 128,-1,2
 759 575 759 575 759 523 c 0,3,4
 759 447 759 447 725.5 398 c 128,-1,5
 692 349 692 349 644 337 c 1,6,-1
 643 331 l 1,7,8
 733 314 733 314 733 212 c 0,9,10
 733 122 733 122 684 61 c 128,-1,11
 635 0 635 0 546 0 c 2,12,-1
 204 0 l 1,13,-1
 314 625 l 1,14,-1
 622 625 l 2,0,1
512 249 m 2,15,-1
 437 249 l 1,16,-1
 419 147 l 1,17,-1
 493 147 l 2,18,19
 518 147 518 147 531 167 c 128,-1,20
 544 187 544 187 544 218 c 128,-1,21
 544 249 544 249 512 249 c 2,15,-1
540 488 m 2,22,-1
 480 488 l 1,23,-1
 463 395 l 1,24,-1
 522 395 l 2,25,26
 568 395 568 395 568 460 c 0,27,28
 568 488 568 488 540 488 c 2,22,-1
174 3 m 1,29,-1
 -250 48 l 1,30,-1
 182 48 l 1,31,-1
 174 3 l 1,29,-1
208 196 m 1,32,-1
 -216 241 l 1,33,-1
 216 241 l 1,34,-1
 208 196 l 1,32,-1
225 292 m 1,35,-1
 -199 337 l 1,36,-1
 233 337 l 1,37,-1
 225 292 l 1,35,-1
242 388 m 1,38,-1
 -182 433 l 1,39,-1
 250 433 l 1,40,-1
 242 388 l 1,38,-1
259 484 m 1,41,-1
 -165 529 l 1,42,-1
 266 529 l 1,43,-1
 259 484 l 1,41,-1
191 100 m 1,44,-1
 -233 145 l 1,45,-1
 199 145 l 1,46,-1
 191 100 l 1,44,-1
275 580 m 1,47,-1
 -148 625 l 1,48,-1
 283 625 l 1,49,-1
 275 580 l 1,47,-1
EndSplineSet
Position2: "'cpsp' Capital Spacing in Latin lookup 0 subtable" dx=0 dy=0 dh=15 dv=0
EndChar

StartChar: C
Encoding: 67 67 38
Width: 683
GlyphClass: 2
Flags: W
LayerCount: 2
Fore
SplineSet
192 317 m 2,0,1
 190 309 190 309 188 295 c 1,2,-1
 -205 337 l 1,3,-1
 195 337 l 1,4,-1
 192 317 l 2,0,1
181 241 m 1,5,6
 178 218 178 218 178 199 c 1,7,-1
 -216 241 l 1,8,-1
 181 241 l 1,5,6
219 433 m 1,9,-1
 207 392 l 1,10,-1
 -181 433 l 1,11,-1
 219 433 l 1,9,-1
179 145 m 1,12,13
 183 117 183 117 186 103 c 1,14,-1
 -203 145 l 1,15,-1
 179 145 l 1,12,13
260 529 m 1,16,17
 246 503 246 503 240 489 c 1,18,-1
 -134 529 l 1,19,-1
 260 529 l 1,16,17
209 48 m 1,20,21
 222 25 222 25 239 11 c 1,22,-1
 -107 48 l 1,23,-1
 209 48 l 1,20,21
355 625 m 1,24,25
 326 607 326 607 310 592 c 1,26,-1
 4 625 l 1,27,-1
 355 625 l 1,24,25
443 -15 m 0,28,29
 317 -15 317 -15 262.5 34 c 128,-1,30
 208 83 208 83 208 185 c 0,31,32
 208 228 208 228 222 312 c 0,33,34
 252 484 252 484 325.5 562 c 128,-1,35
 399 640 399 640 558 640 c 0,36,37
 595 640 595 640 642.5 632.5 c 128,-1,38
 690 625 690 625 712 614 c 1,39,-1
 656 461 l 1,40,41
 597 475 597 475 545.5 475 c 128,-1,42
 494 475 494 475 472 465 c 128,-1,43
 450 455 450 455 445 425 c 2,44,-1
 399 163 l 1,45,46
 435 155 435 155 473 155 c 0,47,48
 554 155 554 155 621 179 c 1,49,-1
 605 11 l 1,50,51
 541 -15 541 -15 443 -15 c 0,28,29
EndSplineSet
Position2: "'cpsp' Capital Spacing in Latin lookup 0 subtable" dx=0 dy=0 dh=15 dv=0
EndChar

StartChar: D
Encoding: 68 68 39
Width: 841
GlyphClass: 2
Flags: W
LayerCount: 2
Fore
SplineSet
580 625 m 2,0,1
 709 625 709 625 763.5 579.5 c 128,-1,2
 818 534 818 534 818 432 c 0,3,4
 818 380 818 380 806 312 c 0,5,6
 776 144 776 144 703.5 72 c 128,-1,7
 631 0 631 0 470 0 c 2,8,-1
 204 0 l 1,9,-1
 314 625 l 1,10,-1
 580 625 l 2,0,1
554 465 m 2,11,-1
 475 465 l 1,12,-1
 422 160 l 1,13,-1
 501 160 l 2,14,15
 540 160 540 160 559 169.5 c 128,-1,16
 578 179 578 179 584 213 c 2,17,-1
 619 412 l 2,18,19
 620 418 620 418 620 428 c 0,20,21
 620 451 620 451 604 458 c 128,-1,22
 588 465 588 465 554 465 c 2,11,-1
174 3 m 1,23,-1
 -250 48 l 1,24,-1
 182 48 l 1,25,-1
 174 3 l 1,23,-1
208 196 m 1,26,-1
 -216 241 l 1,27,-1
 216 241 l 1,28,-1
 208 196 l 1,26,-1
225 292 m 1,29,-1
 -199 337 l 1,30,-1
 233 337 l 1,31,-1
 225 292 l 1,29,-1
242 388 m 1,32,-1
 -182 433 l 1,33,-1
 250 433 l 1,34,-1
 242 388 l 1,32,-1
259 484 m 1,35,-1
 -165 529 l 1,36,-1
 266 529 l 1,37,-1
 259 484 l 1,35,-1
191 100 m 1,38,-1
 -233 145 l 1,39,-1
 199 145 l 1,40,-1
 191 100 l 1,38,-1
275 580 m 1,41,-1
 -148 625 l 1,42,-1
 283 625 l 1,43,-1
 275 580 l 1,41,-1
EndSplineSet
Position2: "'cpsp' Capital Spacing in Latin lookup 0 subtable" dx=0 dy=0 dh=15 dv=0
EndChar

StartChar: E
Encoding: 69 69 40
Width: 726
GlyphClass: 2
Flags: W
LayerCount: 2
Fore
SplineSet
625 236 m 1,0,-1
 435 236 l 1,1,-1
 422 160 l 1,2,-1
 655 160 l 1,3,-1
 627 0 l 1,4,-1
 204 0 l 1,5,-1
 314 625 l 1,6,-1
 732 625 l 1,7,-1
 680 465 l 1,8,-1
 475 465 l 1,9,-1
 461 381 l 1,10,-1
 651 381 l 1,11,-1
 625 236 l 1,0,-1
174 3 m 1,12,-1
 -250 48 l 1,13,-1
 182 48 l 1,14,-1
 174 3 l 1,12,-1
208 196 m 1,15,-1
 -216 241 l 1,16,-1
 216 241 l 1,17,-1
 208 196 l 1,15,-1
225 292 m 1,18,-1
 -199 337 l 1,19,-1
 233 337 l 1,20,-1
 225 292 l 1,18,-1
242 388 m 1,21,-1
 -182 433 l 1,22,-1
 250 433 l 1,23,-1
 242 388 l 1,21,-1
259 484 m 1,24,-1
 -165 529 l 1,25,-1
 266 529 l 1,26,-1
 259 484 l 1,24,-1
191 100 m 1,27,-1
 -233 145 l 1,28,-1
 199 145 l 1,29,-1
 191 100 l 1,27,-1
275 580 m 1,30,-1
 -148 625 l 1,31,-1
 283 625 l 1,32,-1
 275 580 l 1,30,-1
EndSplineSet
Position2: "'cpsp' Capital Spacing in Latin lookup 0 subtable" dx=0 dy=0 dh=15 dv=0
EndChar

StartChar: F
Encoding: 70 70 41
Width: 666
GlyphClass: 2
Flags: W
LayerCount: 2
Fore
SplineSet
596 232 m 1,0,-1
 434 232 l 1,1,-1
 394 0 l 1,2,-1
 204 0 l 1,3,-1
 314 625 l 1,4,-1
 704 625 l 1,5,-1
 651 465 l 1,6,-1
 475 465 l 1,7,-1
 461 381 l 1,8,-1
 623 381 l 1,9,-1
 596 232 l 1,0,-1
174 3 m 1,10,-1
 -250 48 l 1,11,-1
 182 48 l 1,12,-1
 174 3 l 1,10,-1
208 196 m 1,13,-1
 -216 241 l 1,14,-1
 216 241 l 1,15,-1
 208 196 l 1,13,-1
225 292 m 1,16,-1
 -199 337 l 1,17,-1
 233 337 l 1,18,-1
 225 292 l 1,16,-1
242 388 m 1,19,-1
 -182 433 l 1,20,-1
 250 433 l 1,21,-1
 242 388 l 1,19,-1
259 484 m 1,22,-1
 -165 529 l 1,23,-1
 266 529 l 1,24,-1
 259 484 l 1,22,-1
191 100 m 1,25,-1
 -233 145 l 1,26,-1
 199 145 l 1,27,-1
 191 100 l 1,25,-1
275 580 m 1,28,-1
 -148 625 l 1,29,-1
 283 625 l 1,30,-1
 275 580 l 1,28,-1
EndSplineSet
PairPos2: "'kern' Horizontal Kerning in Latin lookup 2 per glyph data 1" ae dx=0 dy=0 dh=-60 dv=0 dx=0 dy=0 dh=0 dv=0
PairPos2: "'kern' Horizontal Kerning in Latin lookup 2 per glyph data 1" aring dx=0 dy=0 dh=-60 dv=0 dx=0 dy=0 dh=0 dv=0
PairPos2: "'kern' Horizontal Kerning in Latin lookup 2 per glyph data 1" adieresis dx=0 dy=0 dh=-60 dv=0 dx=0 dy=0 dh=0 dv=0
PairPos2: "'kern' Horizontal Kerning in Latin lookup 2 per glyph data 1" atilde dx=0 dy=0 dh=-60 dv=0 dx=0 dy=0 dh=0 dv=0
PairPos2: "'kern' Horizontal Kerning in Latin lookup 2 per glyph data 1" acircumflex dx=0 dy=0 dh=-60 dv=0 dx=0 dy=0 dh=0 dv=0
PairPos2: "'kern' Horizontal Kerning in Latin lookup 2 per glyph data 1" aacute dx=0 dy=0 dh=-60 dv=0 dx=0 dy=0 dh=0 dv=0
PairPos2: "'kern' Horizontal Kerning in Latin lookup 2 per glyph data 1" agrave dx=0 dy=0 dh=-60 dv=0 dx=0 dy=0 dh=0 dv=0
PairPos2: "'kern' Horizontal Kerning in Latin lookup 2 per glyph data 1" AE dx=0 dy=0 dh=-60 dv=0 dx=0 dy=0 dh=0 dv=0
PairPos2: "'kern' Horizontal Kerning in Latin lookup 2 per glyph data 1" Aring dx=0 dy=0 dh=-60 dv=0 dx=0 dy=0 dh=0 dv=0
PairPos2: "'kern' Horizontal Kerning in Latin lookup 2 per glyph data 1" Adieresis dx=0 dy=0 dh=-60 dv=0 dx=0 dy=0 dh=0 dv=0
PairPos2: "'kern' Horizontal Kerning in Latin lookup 2 per glyph data 1" Atilde dx=0 dy=0 dh=-60 dv=0 dx=0 dy=0 dh=0 dv=0
PairPos2: "'kern' Horizontal Kerning in Latin lookup 2 per glyph data 1" Acircumflex dx=0 dy=0 dh=-60 dv=0 dx=0 dy=0 dh=0 dv=0
PairPos2: "'kern' Horizontal Kerning in Latin lookup 2 per glyph data 1" Aacute dx=0 dy=0 dh=-60 dv=0 dx=0 dy=0 dh=0 dv=0
PairPos2: "'kern' Horizontal Kerning in Latin lookup 2 per glyph data 1" Agrave dx=0 dy=0 dh=-60 dv=0 dx=0 dy=0 dh=0 dv=0
PairPos2: "'kern' Horizontal Kerning in Latin lookup 2 per glyph data 1" a dx=0 dy=0 dh=-60 dv=0 dx=0 dy=0 dh=0 dv=0
PairPos2: "'kern' Horizontal Kerning in Latin lookup 2 per glyph data 1" A dx=0 dy=0 dh=-60 dv=0 dx=0 dy=0 dh=0 dv=0
Position2: "'cpsp' Capital Spacing in Latin lookup 0 subtable" dx=0 dy=0 dh=15 dv=0
EndChar

StartChar: G
Encoding: 71 71 42
Width: 767
GlyphClass: 2
Flags: W
LayerCount: 2
Fore
SplineSet
683 30 m 1,0,1
 561 -15 561 -15 438 -15 c 128,-1,2
 315 -15 315 -15 260.5 34 c 128,-1,3
 206 83 206 83 206 185 c 0,4,5
 206 228 206 228 220 312 c 0,6,7
 250 486 250 486 326 563 c 128,-1,8
 402 640 402 640 578 640 c 0,9,10
 616 640 616 640 673 632 c 128,-1,11
 730 624 730 624 757 614 c 1,12,-1
 702 461 l 1,13,14
 627 475 627 475 564.5 475 c 128,-1,15
 502 475 502 475 475 465 c 128,-1,16
 448 455 448 455 443 425 c 2,17,-1
 394 142 l 1,18,-1
 457 142 l 2,19,20
 491 142 491 142 507.5 149.5 c 128,-1,21
 524 157 524 157 529 184 c 2,22,-1
 534 211 l 1,23,-1
 486 211 l 1,24,-1
 513 364 l 1,25,-1
 742 364 l 1,26,-1
 683 30 l 1,0,1
192 317 m 2,27,28
 190 309 190 309 188 295 c 1,29,-1
 -205 337 l 1,30,-1
 195 337 l 1,31,-1
 192 317 l 2,27,28
181 241 m 1,32,33
 178 218 178 218 178 199 c 1,34,-1
 -216 241 l 1,35,-1
 181 241 l 1,32,33
219 433 m 1,36,-1
 207 392 l 1,37,-1
 -181 433 l 1,38,-1
 219 433 l 1,36,-1
179 145 m 1,39,40
 183 117 183 117 186 103 c 1,41,-1
 -203 145 l 1,42,-1
 179 145 l 1,39,40
260 529 m 1,43,44
 246 503 246 503 240 489 c 1,45,-1
 -134 529 l 1,46,-1
 260 529 l 1,43,44
209 48 m 1,47,48
 222 25 222 25 239 11 c 1,49,-1
 -107 48 l 1,50,-1
 209 48 l 1,47,48
355 625 m 1,51,52
 326 607 326 607 310 592 c 1,53,-1
 4 625 l 1,54,-1
 355 625 l 1,51,52
EndSplineSet
Position2: "'cpsp' Capital Spacing in Latin lookup 0 subtable" dx=0 dy=0 dh=15 dv=0
EndChar

StartChar: H
Encoding: 72 72 43
Width: 846
GlyphClass: 2
Flags: W
LayerCount: 2
Fore
SplineSet
537 0 m 1,0,-1
 575 221 l 1,1,-1
 432 221 l 1,2,-1
 394 0 l 1,3,-1
 204 0 l 1,4,-1
 314 625 l 1,5,-1
 504 625 l 1,6,-1
 465 404 l 1,7,-1
 608 404 l 1,8,-1
 647 625 l 1,9,-1
 837 625 l 1,10,-1
 727 0 l 1,11,-1
 537 0 l 1,0,-1
174 3 m 1,12,-1
 -250 48 l 1,13,-1
 182 48 l 1,14,-1
 174 3 l 1,12,-1
208 196 m 1,15,-1
 -216 241 l 1,16,-1
 216 241 l 1,17,-1
 208 196 l 1,15,-1
225 292 m 1,18,-1
 -199 337 l 1,19,-1
 233 337 l 1,20,-1
 225 292 l 1,18,-1
242 388 m 1,21,-1
 -182 433 l 1,22,-1
 250 433 l 1,23,-1
 242 388 l 1,21,-1
259 484 m 1,24,-1
 -165 529 l 1,25,-1
 266 529 l 1,26,-1
 259 484 l 1,24,-1
191 100 m 1,27,-1
 -233 145 l 1,28,-1
 199 145 l 1,29,-1
 191 100 l 1,27,-1
275 580 m 1,30,-1
 -148 625 l 1,31,-1
 283 625 l 1,32,-1
 275 580 l 1,30,-1
EndSplineSet
Position2: "'cpsp' Capital Spacing in Latin lookup 0 subtable" dx=0 dy=0 dh=15 dv=0
EndChar

StartChar: I
Encoding: 73 73 44
Width: 504
GlyphClass: 2
Flags: W
LayerCount: 2
Fore
SplineSet
204 0 m 1,0,-1
 314 625 l 1,1,-1
 504 625 l 1,2,-1
 394 0 l 1,3,-1
 204 0 l 1,0,-1
174 3 m 1,4,-1
 -250 48 l 1,5,-1
 182 48 l 1,6,-1
 174 3 l 1,4,-1
208 196 m 1,7,-1
 -216 241 l 1,8,-1
 216 241 l 1,9,-1
 208 196 l 1,7,-1
225 292 m 1,10,-1
 -199 337 l 1,11,-1
 233 337 l 1,12,-1
 225 292 l 1,10,-1
242 388 m 1,13,-1
 -182 433 l 1,14,-1
 250 433 l 1,15,-1
 242 388 l 1,13,-1
259 484 m 1,16,-1
 -165 529 l 1,17,-1
 266 529 l 1,18,-1
 259 484 l 1,16,-1
191 100 m 1,19,-1
 -233 145 l 1,20,-1
 199 145 l 1,21,-1
 191 100 l 1,19,-1
275 580 m 1,22,-1
 -148 625 l 1,23,-1
 283 625 l 1,24,-1
 275 580 l 1,22,-1
EndSplineSet
Position2: "'cpsp' Capital Spacing in Latin lookup 0 subtable" dx=0 dy=0 dh=15 dv=0
EndChar

StartChar: J
Encoding: 74 74 45
Width: 566
GlyphClass: 2
Flags: W
LayerCount: 2
Fore
SplineSet
265 160 m 2,0,1
 294 160 294 160 303.5 168.5 c 128,-1,2
 313 177 313 177 315 190 c 2,3,-1
 363 465 l 1,4,-1
 285 465 l 1,5,-1
 314 625 l 1,6,-1
 582 625 l 1,7,-1
 501 165 l 2,8,9
 487 84 487 84 441.5 42 c 128,-1,10
 396 0 396 0 325 0 c 2,11,-1
 177 0 l 1,12,-1
 206 160 l 1,13,-1
 265 160 l 2,0,1
147 3 m 1,14,-1
 -277 48 l 1,15,-1
 155 48 l 1,16,-1
 147 3 l 1,14,-1
285 196 m 1,17,-1
 -139 241 l 1,18,-1
 293 241 l 1,19,-1
 285 196 l 1,17,-1
302 292 m 1,20,-1
 -122 337 l 1,21,-1
 310 337 l 1,22,-1
 302 292 l 1,20,-1
319 388 m 1,23,-1
 -105 433 l 1,24,-1
 327 433 l 1,25,-1
 319 388 l 1,23,-1
257 484 m 1,26,-1
 -167 529 l 1,27,-1
 264 529 l 1,28,-1
 257 484 l 1,26,-1
164 100 m 1,29,-1
 -260 145 l 1,30,-1
 172 145 l 1,31,-1
 164 100 l 1,29,-1
275 580 m 1,32,-1
 -148 625 l 1,33,-1
 283 625 l 1,34,-1
 275 580 l 1,32,-1
EndSplineSet
Position2: "'cpsp' Capital Spacing in Latin lookup 0 subtable" dx=0 dy=0 dh=15 dv=0
EndChar

StartChar: K
Encoding: 75 75 46
Width: 771
GlyphClass: 2
Flags: W
LayerCount: 2
Fore
SplineSet
448 253 m 2,0,-1
 449 272 l 1,1,-1
 441 272 l 1,2,-1
 394 0 l 1,3,-1
 204 0 l 1,4,-1
 314 625 l 1,5,-1
 504 625 l 1,6,-1
 459 370 l 1,7,-1
 467 370 l 1,8,9
 475 402 475 402 485 418 c 2,10,-1
 611 625 l 1,11,-1
 816 625 l 1,12,-1
 620 318 l 1,13,-1
 711 0 l 1,14,-1
 506 0 l 1,15,-1
 451 224 l 2,16,17
 448 234 448 234 448 253 c 2,0,-1
174 3 m 1,18,-1
 -250 48 l 1,19,-1
 182 48 l 1,20,-1
 174 3 l 1,18,-1
208 196 m 1,21,-1
 -216 241 l 1,22,-1
 216 241 l 1,23,-1
 208 196 l 1,21,-1
225 292 m 1,24,-1
 -199 337 l 1,25,-1
 233 337 l 1,26,-1
 225 292 l 1,24,-1
242 388 m 1,27,-1
 -182 433 l 1,28,-1
 250 433 l 1,29,-1
 242 388 l 1,27,-1
259 484 m 1,30,-1
 -165 529 l 1,31,-1
 266 529 l 1,32,-1
 259 484 l 1,30,-1
191 100 m 1,33,-1
 -233 145 l 1,34,-1
 199 145 l 1,35,-1
 191 100 l 1,33,-1
275 580 m 1,36,-1
 -148 625 l 1,37,-1
 283 625 l 1,38,-1
 275 580 l 1,36,-1
EndSplineSet
PairPos2: "'kern' Horizontal Kerning in Latin lookup 2 per glyph data 1" ydieresis dx=0 dy=0 dh=-20 dv=0 dx=0 dy=0 dh=0 dv=0
PairPos2: "'kern' Horizontal Kerning in Latin lookup 2 per glyph data 1" yacute dx=0 dy=0 dh=-20 dv=0 dx=0 dy=0 dh=0 dv=0
PairPos2: "'kern' Horizontal Kerning in Latin lookup 2 per glyph data 1" ae dx=0 dy=0 dh=-50 dv=0 dx=0 dy=0 dh=0 dv=0
PairPos2: "'kern' Horizontal Kerning in Latin lookup 2 per glyph data 1" aring dx=0 dy=0 dh=-50 dv=0 dx=0 dy=0 dh=0 dv=0
PairPos2: "'kern' Horizontal Kerning in Latin lookup 2 per glyph data 1" adieresis dx=0 dy=0 dh=-50 dv=0 dx=0 dy=0 dh=0 dv=0
PairPos2: "'kern' Horizontal Kerning in Latin lookup 2 per glyph data 1" atilde dx=0 dy=0 dh=-50 dv=0 dx=0 dy=0 dh=0 dv=0
PairPos2: "'kern' Horizontal Kerning in Latin lookup 2 per glyph data 1" acircumflex dx=0 dy=0 dh=-50 dv=0 dx=0 dy=0 dh=0 dv=0
PairPos2: "'kern' Horizontal Kerning in Latin lookup 2 per glyph data 1" aacute dx=0 dy=0 dh=-50 dv=0 dx=0 dy=0 dh=0 dv=0
PairPos2: "'kern' Horizontal Kerning in Latin lookup 2 per glyph data 1" agrave dx=0 dy=0 dh=-50 dv=0 dx=0 dy=0 dh=0 dv=0
PairPos2: "'kern' Horizontal Kerning in Latin lookup 2 per glyph data 1" Aring dx=0 dy=0 dh=-40 dv=0 dx=0 dy=0 dh=0 dv=0
PairPos2: "'kern' Horizontal Kerning in Latin lookup 2 per glyph data 1" Adieresis dx=0 dy=0 dh=-40 dv=0 dx=0 dy=0 dh=0 dv=0
PairPos2: "'kern' Horizontal Kerning in Latin lookup 2 per glyph data 1" Atilde dx=0 dy=0 dh=-40 dv=0 dx=0 dy=0 dh=0 dv=0
PairPos2: "'kern' Horizontal Kerning in Latin lookup 2 per glyph data 1" Acircumflex dx=0 dy=0 dh=-40 dv=0 dx=0 dy=0 dh=0 dv=0
PairPos2: "'kern' Horizontal Kerning in Latin lookup 2 per glyph data 1" Aacute dx=0 dy=0 dh=-40 dv=0 dx=0 dy=0 dh=0 dv=0
PairPos2: "'kern' Horizontal Kerning in Latin lookup 2 per glyph data 1" Agrave dx=0 dy=0 dh=-40 dv=0 dx=0 dy=0 dh=0 dv=0
PairPos2: "'kern' Horizontal Kerning in Latin lookup 2 per glyph data 1" y dx=0 dy=0 dh=-20 dv=0 dx=0 dy=0 dh=0 dv=0
PairPos2: "'kern' Horizontal Kerning in Latin lookup 2 per glyph data 1" w dx=0 dy=0 dh=-15 dv=0 dx=0 dy=0 dh=0 dv=0
PairPos2: "'kern' Horizontal Kerning in Latin lookup 2 per glyph data 1" v dx=0 dy=0 dh=-70 dv=0 dx=0 dy=0 dh=0 dv=0
PairPos2: "'kern' Horizontal Kerning in Latin lookup 2 per glyph data 1" a dx=0 dy=0 dh=-50 dv=0 dx=0 dy=0 dh=0 dv=0
PairPos2: "'kern' Horizontal Kerning in Latin lookup 2 per glyph data 1" A dx=0 dy=0 dh=-40 dv=0 dx=0 dy=0 dh=0 dv=0
Position2: "'cpsp' Capital Spacing in Latin lookup 0 subtable" dx=0 dy=0 dh=15 dv=0
EndChar

StartChar: L
Encoding: 76 76 47
Width: 622
GlyphClass: 2
Flags: W
LayerCount: 2
Fore
SplineSet
584 0 m 1,0,-1
 204 0 l 1,1,-1
 314 625 l 1,2,-1
 504 625 l 1,3,-1
 422 160 l 1,4,-1
 612 160 l 1,5,-1
 584 0 l 1,0,-1
174 3 m 1,6,-1
 -250 48 l 1,7,-1
 182 48 l 1,8,-1
 174 3 l 1,6,-1
208 196 m 1,9,-1
 -216 241 l 1,10,-1
 216 241 l 1,11,-1
 208 196 l 1,9,-1
225 292 m 1,12,-1
 -199 337 l 1,13,-1
 233 337 l 1,14,-1
 225 292 l 1,12,-1
242 388 m 1,15,-1
 -182 433 l 1,16,-1
 250 433 l 1,17,-1
 242 388 l 1,15,-1
259 484 m 1,18,-1
 -165 529 l 1,19,-1
 266 529 l 1,20,-1
 259 484 l 1,18,-1
191 100 m 1,21,-1
 -233 145 l 1,22,-1
 199 145 l 1,23,-1
 191 100 l 1,21,-1
275 580 m 1,24,-1
 -148 625 l 1,25,-1
 283 625 l 1,26,-1
 275 580 l 1,24,-1
EndSplineSet
Position2: "'cpsp' Capital Spacing in Latin lookup 0 subtable" dx=0 dy=0 dh=15 dv=0
EndChar

StartChar: M
Encoding: 77 77 48
Width: 1023
GlyphClass: 2
Flags: W
LayerCount: 2
Fore
SplineSet
172 3 m 1,0,-1
 -250 48 l 1,1,-1
 182 48 l 1,2,-1
 172 3 l 1,0,-1
194 100 m 1,3,-1
 -227 145 l 1,4,-1
 205 145 l 1,5,-1
 194 100 l 1,3,-1
217 196 m 1,6,-1
 -204 241 l 1,7,-1
 227 241 l 1,8,-1
 217 196 l 1,6,-1
239 292 m 1,9,-1
 -181 337 l 1,10,-1
 250 337 l 1,11,-1
 239 292 l 1,9,-1
262 388 m 1,12,-1
 -158 433 l 1,13,-1
 272 433 l 1,14,-1
 262 388 l 1,12,-1
284 484 m 1,15,-1
 -135 529 l 1,16,-1
 295 529 l 1,17,-1
 284 484 l 1,15,-1
307 580 m 1,18,-1
 -112 625 l 1,19,-1
 317 625 l 1,20,-1
 307 580 l 1,18,-1
400 0 m 1,21,-1
 202 0 l 1,22,-1
 348 625 l 1,23,-1
 596 625 l 1,24,-1
 614 307 l 1,25,-1
 621 307 l 1,26,-1
 751 625 l 1,27,-1
 999 625 l 1,28,-1
 925 0 l 1,29,-1
 726 0 l 1,30,-1
 768 303 l 1,31,-1
 761 303 l 1,32,-1
 636 0 l 1,33,-1
 491 0 l 1,34,-1
 470 303 l 1,35,-1
 465 303 l 1,36,-1
 400 0 l 1,21,-1
EndSplineSet
Position2: "'cpsp' Capital Spacing in Latin lookup 0 subtable" dx=0 dy=0 dh=15 dv=0
EndChar

StartChar: N
Encoding: 78 78 49
Width: 851
GlyphClass: 2
Flags: W
LayerCount: 2
Fore
SplineSet
451 222 m 2,0,1
 447 229 447 229 447 241.5 c 128,-1,2
 447 254 447 254 449 270 c 1,3,-1
 441 270 l 1,4,-1
 394 0 l 1,5,-1
 204 0 l 1,6,-1
 314 625 l 1,7,-1
 493 625 l 1,8,-1
 595 403 l 2,9,10
 598 396 598 396 598 383.5 c 128,-1,11
 598 371 598 371 596 355 c 1,12,-1
 604 355 l 1,13,-1
 652 625 l 1,14,-1
 842 625 l 1,15,-1
 732 0 l 1,16,-1
 553 0 l 1,17,-1
 451 222 l 2,0,1
174 3 m 1,18,-1
 -250 48 l 1,19,-1
 182 48 l 1,20,-1
 174 3 l 1,18,-1
208 196 m 1,21,-1
 -216 241 l 1,22,-1
 216 241 l 1,23,-1
 208 196 l 1,21,-1
225 292 m 1,24,-1
 -199 337 l 1,25,-1
 233 337 l 1,26,-1
 225 292 l 1,24,-1
242 388 m 1,27,-1
 -182 433 l 1,28,-1
 250 433 l 1,29,-1
 242 388 l 1,27,-1
259 484 m 1,30,-1
 -165 529 l 1,31,-1
 266 529 l 1,32,-1
 259 484 l 1,30,-1
191 100 m 1,33,-1
 -233 145 l 1,34,-1
 199 145 l 1,35,-1
 191 100 l 1,33,-1
275 580 m 1,36,-1
 -148 625 l 1,37,-1
 283 625 l 1,38,-1
 275 580 l 1,36,-1
EndSplineSet
Position2: "'cpsp' Capital Spacing in Latin lookup 0 subtable" dx=0 dy=0 dh=15 dv=0
EndChar

StartChar: O
Encoding: 79 79 50
Width: 815
GlyphClass: 2
Flags: W
LayerCount: 2
Fore
SplineSet
475 156 m 2,0,1
 514 156 514 156 533 165.5 c 128,-1,2
 552 175 552 175 558 209 c 2,3,-1
 604 469 l 1,4,-1
 524 469 l 2,5,6
 486 469 486 469 467 459.5 c 128,-1,7
 448 450 448 450 442 416 c 2,8,-1
 396 156 l 1,9,-1
 475 156 l 2,0,1
557 640 m 0,10,11
 684 640 684 640 738 590.5 c 128,-1,12
 792 541 792 541 792 438 c 128,-1,13
 792 335 792 335 759.5 222.5 c 128,-1,14
 727 110 727 110 656.5 47.5 c 128,-1,15
 586 -15 586 -15 450.5 -15 c 128,-1,16
 315 -15 315 -15 261 34.5 c 128,-1,17
 207 84 207 84 207 187 c 0,18,19
 207 236 207 236 221 316.5 c 128,-1,20
 235 397 235 397 258 455.5 c 128,-1,21
 281 514 281 514 320 557 c 0,22,23
 395 640 395 640 557 640 c 0,10,11
192 317 m 2,24,25
 190 309 190 309 188 295 c 1,26,-1
 -205 337 l 1,27,-1
 195 337 l 1,28,-1
 192 317 l 2,24,25
181 241 m 1,29,30
 178 218 178 218 178 199 c 1,31,-1
 -216 241 l 1,32,-1
 181 241 l 1,29,30
219 433 m 1,33,-1
 207 392 l 1,34,-1
 -181 433 l 1,35,-1
 219 433 l 1,33,-1
179 145 m 1,36,37
 183 117 183 117 186 103 c 1,38,-1
 -203 145 l 1,39,-1
 179 145 l 1,36,37
260 529 m 1,40,41
 246 503 246 503 240 489 c 1,42,-1
 -134 529 l 1,43,-1
 260 529 l 1,40,41
209 48 m 1,44,45
 222 25 222 25 239 11 c 1,46,-1
 -107 48 l 1,47,-1
 209 48 l 1,44,45
355 625 m 1,48,49
 326 607 326 607 310 592 c 1,50,-1
 4 625 l 1,51,-1
 355 625 l 1,48,49
EndSplineSet
Position2: "'cpsp' Capital Spacing in Latin lookup 0 subtable" dx=0 dy=0 dh=15 dv=0
EndChar

StartChar: P
Encoding: 80 80 51
Width: 769
GlyphClass: 2
Flags: W
LayerCount: 2
Fore
SplineSet
544 151 m 2,0,-1
 420 151 l 1,1,-1
 394 0 l 1,2,-1
 204 0 l 1,3,-1
 314 625 l 1,4,-1
 614 625 l 2,5,6
 784 625 784 625 784 467 c 0,7,8
 784 392 784 392 763 331.5 c 128,-1,9
 742 271 742 271 716.5 235.5 c 128,-1,10
 691 200 691 200 646.5 175.5 c 128,-1,11
 602 151 602 151 544 151 c 2,0,-1
492 311 m 2,12,13
 526 311 526 311 543.5 318.5 c 128,-1,14
 561 326 561 326 566 353 c 0,15,16
 579 427 579 427 579 434 c 0,17,18
 579 453 579 453 564 459 c 128,-1,19
 549 465 549 465 519 465 c 2,20,-1
 475 465 l 1,21,-1
 448 311 l 1,22,-1
 492 311 l 2,12,13
174 3 m 1,23,-1
 -250 48 l 1,24,-1
 182 48 l 1,25,-1
 174 3 l 1,23,-1
208 196 m 1,26,-1
 -216 241 l 1,27,-1
 216 241 l 1,28,-1
 208 196 l 1,26,-1
241 388 m 1,29,-1
 -182 433 l 1,30,-1
 249 433 l 1,31,-1
 241 388 l 1,29,-1
258 484 m 1,32,-1
 -165 529 l 1,33,-1
 266 529 l 1,34,-1
 258 484 l 1,32,-1
191 100 m 1,35,-1
 -233 145 l 1,36,-1
 199 145 l 1,37,-1
 191 100 l 1,35,-1
275 580 m 1,38,-1
 -148 625 l 1,39,-1
 283 625 l 1,40,-1
 275 580 l 1,38,-1
224 292 m 1,41,-1
 -199 337 l 1,42,-1
 232 337 l 1,43,-1
 224 292 l 1,41,-1
EndSplineSet
PairPos2: "'kern' Horizontal Kerning in Latin lookup 2 per glyph data 1" ae dx=0 dy=0 dh=-40 dv=0 dx=0 dy=0 dh=0 dv=0
PairPos2: "'kern' Horizontal Kerning in Latin lookup 2 per glyph data 1" aring dx=0 dy=0 dh=-40 dv=0 dx=0 dy=0 dh=0 dv=0
PairPos2: "'kern' Horizontal Kerning in Latin lookup 2 per glyph data 1" adieresis dx=0 dy=0 dh=-40 dv=0 dx=0 dy=0 dh=0 dv=0
PairPos2: "'kern' Horizontal Kerning in Latin lookup 2 per glyph data 1" atilde dx=0 dy=0 dh=-40 dv=0 dx=0 dy=0 dh=0 dv=0
PairPos2: "'kern' Horizontal Kerning in Latin lookup 2 per glyph data 1" acircumflex dx=0 dy=0 dh=-40 dv=0 dx=0 dy=0 dh=0 dv=0
PairPos2: "'kern' Horizontal Kerning in Latin lookup 2 per glyph data 1" aacute dx=0 dy=0 dh=-40 dv=0 dx=0 dy=0 dh=0 dv=0
PairPos2: "'kern' Horizontal Kerning in Latin lookup 2 per glyph data 1" agrave dx=0 dy=0 dh=-40 dv=0 dx=0 dy=0 dh=0 dv=0
PairPos2: "'kern' Horizontal Kerning in Latin lookup 2 per glyph data 1" AE dx=0 dy=0 dh=-15 dv=0 dx=0 dy=0 dh=0 dv=0
PairPos2: "'kern' Horizontal Kerning in Latin lookup 2 per glyph data 1" Aring dx=0 dy=0 dh=-15 dv=0 dx=0 dy=0 dh=0 dv=0
PairPos2: "'kern' Horizontal Kerning in Latin lookup 2 per glyph data 1" Adieresis dx=0 dy=0 dh=-15 dv=0 dx=0 dy=0 dh=0 dv=0
PairPos2: "'kern' Horizontal Kerning in Latin lookup 2 per glyph data 1" Atilde dx=0 dy=0 dh=-15 dv=0 dx=0 dy=0 dh=0 dv=0
PairPos2: "'kern' Horizontal Kerning in Latin lookup 2 per glyph data 1" Acircumflex dx=0 dy=0 dh=-15 dv=0 dx=0 dy=0 dh=0 dv=0
PairPos2: "'kern' Horizontal Kerning in Latin lookup 2 per glyph data 1" Aacute dx=0 dy=0 dh=-15 dv=0 dx=0 dy=0 dh=0 dv=0
PairPos2: "'kern' Horizontal Kerning in Latin lookup 2 per glyph data 1" Agrave dx=0 dy=0 dh=-15 dv=0 dx=0 dy=0 dh=0 dv=0
PairPos2: "'kern' Horizontal Kerning in Latin lookup 2 per glyph data 1" a dx=0 dy=0 dh=-40 dv=0 dx=0 dy=0 dh=0 dv=0
PairPos2: "'kern' Horizontal Kerning in Latin lookup 2 per glyph data 1" A dx=0 dy=0 dh=-15 dv=0 dx=0 dy=0 dh=0 dv=0
Position2: "'cpsp' Capital Spacing in Latin lookup 0 subtable" dx=0 dy=0 dh=15 dv=0
EndChar

StartChar: Q
Encoding: 81 81 52
Width: 815
GlyphClass: 2
Flags: W
LayerCount: 2
Fore
SplineSet
207 187 m 0,0,1
 207 236 207 236 221 316.5 c 128,-1,2
 235 397 235 397 258 455.5 c 128,-1,3
 281 514 281 514 320 557 c 0,4,5
 395 640 395 640 557 640 c 0,6,7
 683 640 683 640 737.5 589.5 c 128,-1,8
 792 539 792 539 792 439 c 128,-1,9
 792 339 792 339 763 247.5 c 128,-1,10
 734 156 734 156 693 107 c 1,11,-1
 755 65 l 1,12,-1
 685 -50 l 1,13,-1
 509 -15 l 1,14,-1
 516 23 l 1,15,-1
 431 0 l 1,16,17
 310 0 310 0 258.5 48.5 c 128,-1,18
 207 97 207 97 207 187 c 0,0,1
475 156 m 2,19,20
 514 156 514 156 533 165.5 c 128,-1,21
 552 175 552 175 558 209 c 2,22,-1
 604 469 l 1,23,-1
 524 469 l 2,24,25
 486 469 486 469 467 459.5 c 128,-1,26
 448 450 448 450 442 416 c 2,27,-1
 396 156 l 1,28,-1
 475 156 l 2,19,20
195 337 m 1,29,-1
 188 295 l 1,30,-1
 -205 337 l 1,31,-1
 195 337 l 1,29,-1
181 241 m 1,32,33
 178 218 178 218 178 199 c 1,34,-1
 -216 241 l 1,35,-1
 181 241 l 1,32,33
219 433 m 1,36,-1
 207 392 l 1,37,-1
 -181 433 l 1,38,-1
 219 433 l 1,36,-1
179 145 m 1,39,40
 181 128 181 128 187 103 c 1,41,-1
 -203 145 l 1,42,-1
 179 145 l 1,39,40
260 529 m 1,43,44
 246 503 246 503 240 489 c 1,45,-1
 -134 529 l 1,46,-1
 260 529 l 1,43,44
215 48 m 1,47,48
 229 33 229 33 255 11 c 1,49,-1
 -107 48 l 1,50,-1
 215 48 l 1,47,48
355 625 m 1,51,52
 326 607 326 607 310 592 c 1,53,-1
 4 625 l 1,54,-1
 355 625 l 1,51,52
EndSplineSet
Position2: "'cpsp' Capital Spacing in Latin lookup 0 subtable" dx=0 dy=0 dh=15 dv=0
EndChar

StartChar: R
Encoding: 82 82 53
Width: 795
GlyphClass: 2
Flags: W
LayerCount: 2
Fore
SplineSet
614 625 m 2,0,1
 785 625 785 625 785 472 c 0,2,3
 785 409 785 409 766 352 c 0,4,5
 731 244 731 244 656 208 c 1,6,-1
 722 0 l 1,7,-1
 513 0 l 1,8,-1
 467 186 l 1,9,-1
 426 186 l 1,10,-1
 394 0 l 1,11,-1
 204 0 l 1,12,-1
 314 625 l 1,13,-1
 614 625 l 2,0,1
497 340 m 2,14,15
 531 340 531 340 548.5 347.5 c 128,-1,16
 566 355 566 355 572.5 390.5 c 128,-1,17
 579 426 579 426 579 434 c 0,18,19
 579 454 579 454 563.5 459.5 c 128,-1,20
 548 465 548 465 513 465 c 2,21,-1
 475 465 l 1,22,-1
 453 340 l 1,23,-1
 497 340 l 2,14,15
174 3 m 1,24,-1
 -250 48 l 1,25,-1
 182 48 l 1,26,-1
 174 3 l 1,24,-1
208 196 m 1,27,-1
 -216 241 l 1,28,-1
 216 241 l 1,29,-1
 208 196 l 1,27,-1
241 388 m 1,30,-1
 -182 433 l 1,31,-1
 249 433 l 1,32,-1
 241 388 l 1,30,-1
258 484 m 1,33,-1
 -165 529 l 1,34,-1
 266 529 l 1,35,-1
 258 484 l 1,33,-1
191 100 m 1,36,-1
 -233 145 l 1,37,-1
 199 145 l 1,38,-1
 191 100 l 1,36,-1
275 580 m 1,39,-1
 -148 625 l 1,40,-1
 283 625 l 1,41,-1
 275 580 l 1,39,-1
224 292 m 1,42,-1
 -199 337 l 1,43,-1
 232 337 l 1,44,-1
 224 292 l 1,42,-1
EndSplineSet
Position2: "'cpsp' Capital Spacing in Latin lookup 0 subtable" dx=0 dy=0 dh=15 dv=0
EndChar

StartChar: S
Encoding: 83 83 54
Width: 798
GlyphClass: 2
Flags: W
LayerCount: 2
Fore
SplineSet
258 388 m 1,0,-1
 -166 433 l 1,1,-1
 265 433 l 1,2,3
 260 413 260 413 258 388 c 1,0,-1
292 529 m 1,4,-1
 277 485 l 1,5,-1
 -138 529 l 1,6,-1
 292 529 l 1,4,-1
258 337 m 1,7,8
 260 310 260 310 266 292 c 1,9,-1
 -157 337 l 1,10,-1
 258 337 l 1,7,8
398 196 m 1,11,-1
 -131 241 l 1,12,-1
 300 241 l 1,13,14
 333 209 333 209 398 196 c 1,11,-1
367 625 m 1,15,16
 344 610 344 610 323 584 c 1,17,-1
 -63 625 l 1,18,-1
 367 625 l 1,15,16
-148 145 m 1,19,-1
 226 145 l 1,20,-1
 211 101 l 1,21,-1
 -148 145 l 1,19,-1
-165 48 m 1,22,-1
 194 48 l 1,23,-1
 179 4 l 1,24,-1
 -165 48 l 1,22,-1
269 176 m 1,25,26
 353 153 353 153 422.5 153 c 128,-1,27
 492 153 492 153 536 159 c 1,28,-1
 544 209 l 1,29,-1
 461 217 l 2,30,31
 366 226 366 226 326.5 260 c 128,-1,32
 287 294 287 294 287 356 c 0,33,34
 287 383 287 383 293 416 c 0,35,36
 316 544 316 544 377 592 c 128,-1,37
 438 640 438 640 564.5 640 c 128,-1,38
 691 640 691 640 788 615 c 1,39,-1
 736 455 l 1,40,41
 649 470 649 470 596.5 470 c 128,-1,42
 544 470 544 470 506 465 c 1,43,-1
 498 416 l 1,44,-1
 565 409 l 2,45,46
 667 398 667 398 710 360.5 c 128,-1,47
 753 323 753 323 753 260 c 0,48,49
 753 196 753 196 726 128 c 1,50,51
 711 93 711 93 694.5 69.5 c 128,-1,52
 678 46 678 46 652.5 29.5 c 128,-1,53
 627 13 627 13 606 4.5 c 128,-1,54
 585 -4 585 -4 552 -8 c 1,55,56
 506 -15 506 -15 438 -15 c 0,57,58
 314 -15 314 -15 213 11 c 1,59,-1
 269 176 l 1,25,26
EndSplineSet
Position2: "'cpsp' Capital Spacing in Latin lookup 0 subtable" dx=0 dy=0 dh=15 dv=0
EndChar

StartChar: T
Encoding: 84 84 55
Width: 727
GlyphClass: 2
Flags: W
LayerCount: 2
Fore
SplineSet
736 465 m 1,0,-1
 598 465 l 1,1,-1
 517 0 l 1,2,-1
 327 0 l 1,3,-1
 408 465 l 1,4,-1
 271 465 l 1,5,-1
 300 625 l 1,6,-1
 765 625 l 1,7,-1
 736 465 l 1,0,-1
296 3 m 1,8,-1
 -128 48 l 1,9,-1
 304 48 l 1,10,-1
 296 3 l 1,8,-1
330 196 m 1,11,-1
 -94 241 l 1,12,-1
 338 241 l 1,13,-1
 330 196 l 1,11,-1
347 292 m 1,14,-1
 -77 337 l 1,15,-1
 355 337 l 1,16,-1
 347 292 l 1,14,-1
364 388 m 1,17,-1
 -60 433 l 1,18,-1
 372 433 l 1,19,-1
 364 388 l 1,17,-1
313 100 m 1,20,-1
 -111 145 l 1,21,-1
 321 145 l 1,22,-1
 313 100 l 1,20,-1
244 484 m 1,23,-1
 -180 529 l 1,24,-1
 251 529 l 1,25,-1
 244 484 l 1,23,-1
260 580 m 1,26,-1
 -163 625 l 1,27,-1
 268 625 l 1,28,-1
 260 580 l 1,26,-1
EndSplineSet
PairPos2: "'kern' Horizontal Kerning in Latin lookup 2 per glyph data 1" quotedblbase dx=0 dy=0 dh=-30 dv=0 dx=0 dy=0 dh=0 dv=0
PairPos2: "'kern' Horizontal Kerning in Latin lookup 2 per glyph data 1" quotesinglbase dx=0 dy=0 dh=-30 dv=0 dx=0 dy=0 dh=0 dv=0
PairPos2: "'kern' Horizontal Kerning in Latin lookup 2 per glyph data 1" oe dx=0 dy=0 dh=-50 dv=0 dx=0 dy=0 dh=0 dv=0
PairPos2: "'kern' Horizontal Kerning in Latin lookup 2 per glyph data 1" oslash dx=0 dy=0 dh=-50 dv=0 dx=0 dy=0 dh=0 dv=0
PairPos2: "'kern' Horizontal Kerning in Latin lookup 2 per glyph data 1" odieresis dx=0 dy=0 dh=-50 dv=0 dx=0 dy=0 dh=0 dv=0
PairPos2: "'kern' Horizontal Kerning in Latin lookup 2 per glyph data 1" otilde dx=0 dy=0 dh=-50 dv=0 dx=0 dy=0 dh=0 dv=0
PairPos2: "'kern' Horizontal Kerning in Latin lookup 2 per glyph data 1" ocircumflex dx=0 dy=0 dh=-50 dv=0 dx=0 dy=0 dh=0 dv=0
PairPos2: "'kern' Horizontal Kerning in Latin lookup 2 per glyph data 1" oacute dx=0 dy=0 dh=-50 dv=0 dx=0 dy=0 dh=0 dv=0
PairPos2: "'kern' Horizontal Kerning in Latin lookup 2 per glyph data 1" ograve dx=0 dy=0 dh=-50 dv=0 dx=0 dy=0 dh=0 dv=0
PairPos2: "'kern' Horizontal Kerning in Latin lookup 2 per glyph data 1" ccedilla dx=0 dy=0 dh=-50 dv=0 dx=0 dy=0 dh=0 dv=0
PairPos2: "'kern' Horizontal Kerning in Latin lookup 2 per glyph data 1" AE dx=0 dy=0 dh=-35 dv=0 dx=0 dy=0 dh=0 dv=0
PairPos2: "'kern' Horizontal Kerning in Latin lookup 2 per glyph data 1" Aring dx=0 dy=0 dh=-35 dv=0 dx=0 dy=0 dh=0 dv=0
PairPos2: "'kern' Horizontal Kerning in Latin lookup 2 per glyph data 1" Adieresis dx=0 dy=0 dh=-35 dv=0 dx=0 dy=0 dh=0 dv=0
PairPos2: "'kern' Horizontal Kerning in Latin lookup 2 per glyph data 1" Atilde dx=0 dy=0 dh=-35 dv=0 dx=0 dy=0 dh=0 dv=0
PairPos2: "'kern' Horizontal Kerning in Latin lookup 2 per glyph data 1" Acircumflex dx=0 dy=0 dh=-35 dv=0 dx=0 dy=0 dh=0 dv=0
PairPos2: "'kern' Horizontal Kerning in Latin lookup 2 per glyph data 1" Aacute dx=0 dy=0 dh=-35 dv=0 dx=0 dy=0 dh=0 dv=0
PairPos2: "'kern' Horizontal Kerning in Latin lookup 2 per glyph data 1" Agrave dx=0 dy=0 dh=-35 dv=0 dx=0 dy=0 dh=0 dv=0
PairPos2: "'kern' Horizontal Kerning in Latin lookup 2 per glyph data 1" q dx=0 dy=0 dh=-50 dv=0 dx=0 dy=0 dh=0 dv=0
PairPos2: "'kern' Horizontal Kerning in Latin lookup 2 per glyph data 1" o dx=0 dy=0 dh=-50 dv=0 dx=0 dy=0 dh=0 dv=0
PairPos2: "'kern' Horizontal Kerning in Latin lookup 2 per glyph data 1" g dx=0 dy=0 dh=-50 dv=0 dx=0 dy=0 dh=0 dv=0
PairPos2: "'kern' Horizontal Kerning in Latin lookup 2 per glyph data 1" c dx=0 dy=0 dh=-50 dv=0 dx=0 dy=0 dh=0 dv=0
PairPos2: "'kern' Horizontal Kerning in Latin lookup 2 per glyph data 1" A dx=0 dy=0 dh=-35 dv=0 dx=0 dy=0 dh=0 dv=0
PairPos2: "'kern' Horizontal Kerning in Latin lookup 2 per glyph data 1" period dx=0 dy=0 dh=-30 dv=0 dx=0 dy=0 dh=0 dv=0
PairPos2: "'kern' Horizontal Kerning in Latin lookup 2 per glyph data 1" comma dx=0 dy=0 dh=-30 dv=0 dx=0 dy=0 dh=0 dv=0
Position2: "'cpsp' Capital Spacing in Latin lookup 0 subtable" dx=0 dy=0 dh=15 dv=0
EndChar

StartChar: U
Encoding: 85 85 56
Width: 814
GlyphClass: 2
Flags: W
LayerCount: 2
Fore
SplineSet
238 388 m 1,0,-1
 -186 433 l 1,1,-1
 246 433 l 1,2,-1
 238 388 l 1,0,-1
221 292 m 1,3,-1
 -202 337 l 1,4,-1
 229 337 l 1,5,-1
 221 292 l 1,3,-1
272 580 m 1,6,-1
 -151 625 l 1,7,-1
 280 625 l 1,8,-1
 272 580 l 1,6,-1
-168 529 m 1,9,-1
 263 529 l 1,10,-1
 255 484 l 1,11,-1
 -168 529 l 1,9,-1
212 241 m 1,12,13
 208 208 208 208 207 196 c 1,14,-1
 -216 241 l 1,15,-1
 212 241 l 1,12,13
205 145 m 1,16,17
 205 121 205 121 208 100 c 1,18,-1
 -215 145 l 1,19,-1
 205 145 l 1,16,17
222 48 m 1,20,21
 235 20 235 20 254 3 c 1,22,-1
 -169 48 l 1,23,-1
 222 48 l 1,20,21
486 156 m 2,24,25
 521 156 521 156 536 165.5 c 128,-1,26
 551 175 551 175 557 209 c 2,27,-1
 631 625 l 1,28,-1
 821 625 l 1,29,-1
 759 274 l 2,30,31
 744 189 744 189 724.5 137 c 128,-1,32
 705 85 705 85 670 49 c 128,-1,33
 635 13 635 13 583.5 -1 c 128,-1,34
 532 -15 532 -15 453 -15 c 0,35,36
 332 -15 332 -15 283.5 21.5 c 128,-1,37
 235 58 235 58 235 147 c 0,38,39
 235 196 235 196 249 274 c 2,40,-1
 311 625 l 1,41,-1
 501 625 l 1,42,-1
 418 156 l 1,43,-1
 486 156 l 2,24,25
EndSplineSet
Position2: "'cpsp' Capital Spacing in Latin lookup 0 subtable" dx=0 dy=0 dh=15 dv=0
EndChar

StartChar: V
Encoding: 86 86 57
Width: 793
GlyphClass: 2
Flags: W
LayerCount: 2
Fore
SplineSet
-146 48 m 1,0,-1
 275 48 l 1,1,-1
 278 3 l 1,2,-1
 -146 48 l 1,0,-1
-152 145 m 1,3,-1
 269 145 l 1,4,-1
 272 100 l 1,5,-1
 -152 145 l 1,3,-1
-175 529 m 1,6,-1
 246 529 l 1,7,-1
 249 484 l 1,8,-1
 -175 529 l 1,6,-1
-169 433 m 1,9,-1
 252 433 l 1,10,-1
 254 388 l 1,11,-1
 -169 433 l 1,9,-1
-180 625 m 1,12,-1
 241 625 l 1,13,-1
 243 580 l 1,14,-1
 -180 625 l 1,12,-1
-163 337 m 1,15,-1
 257 337 l 1,16,-1
 260 292 l 1,17,-1
 -163 337 l 1,15,-1
-157 241 m 1,18,-1
 263 241 l 1,19,-1
 266 196 l 1,20,-1
 -157 241 l 1,18,-1
482 625 m 1,21,-1
 482 228 l 1,22,-1
 491 228 l 1,23,-1
 642 625 l 1,24,-1
 843 625 l 1,25,-1
 586 0 l 1,26,-1
 308 0 l 1,27,-1
 271 625 l 1,28,-1
 482 625 l 1,21,-1
EndSplineSet
PairPos2: "'kern' Horizontal Kerning in Latin lookup 2 per glyph data 1" quotedblbase dx=0 dy=0 dh=-30 dv=0 dx=0 dy=0 dh=0 dv=0
PairPos2: "'kern' Horizontal Kerning in Latin lookup 2 per glyph data 1" quotesinglbase dx=0 dy=0 dh=-30 dv=0 dx=0 dy=0 dh=0 dv=0
PairPos2: "'kern' Horizontal Kerning in Latin lookup 2 per glyph data 1" ae dx=0 dy=0 dh=-55 dv=0 dx=0 dy=0 dh=0 dv=0
PairPos2: "'kern' Horizontal Kerning in Latin lookup 2 per glyph data 1" aring dx=0 dy=0 dh=-55 dv=0 dx=0 dy=0 dh=0 dv=0
PairPos2: "'kern' Horizontal Kerning in Latin lookup 2 per glyph data 1" adieresis dx=0 dy=0 dh=-55 dv=0 dx=0 dy=0 dh=0 dv=0
PairPos2: "'kern' Horizontal Kerning in Latin lookup 2 per glyph data 1" atilde dx=0 dy=0 dh=-55 dv=0 dx=0 dy=0 dh=0 dv=0
PairPos2: "'kern' Horizontal Kerning in Latin lookup 2 per glyph data 1" acircumflex dx=0 dy=0 dh=-55 dv=0 dx=0 dy=0 dh=0 dv=0
PairPos2: "'kern' Horizontal Kerning in Latin lookup 2 per glyph data 1" aacute dx=0 dy=0 dh=-55 dv=0 dx=0 dy=0 dh=0 dv=0
PairPos2: "'kern' Horizontal Kerning in Latin lookup 2 per glyph data 1" agrave dx=0 dy=0 dh=-55 dv=0 dx=0 dy=0 dh=0 dv=0
PairPos2: "'kern' Horizontal Kerning in Latin lookup 2 per glyph data 1" AE dx=0 dy=0 dh=-35 dv=0 dx=0 dy=0 dh=0 dv=0
PairPos2: "'kern' Horizontal Kerning in Latin lookup 2 per glyph data 1" Aring dx=0 dy=0 dh=-35 dv=0 dx=0 dy=0 dh=0 dv=0
PairPos2: "'kern' Horizontal Kerning in Latin lookup 2 per glyph data 1" Adieresis dx=0 dy=0 dh=-35 dv=0 dx=0 dy=0 dh=0 dv=0
PairPos2: "'kern' Horizontal Kerning in Latin lookup 2 per glyph data 1" Atilde dx=0 dy=0 dh=-35 dv=0 dx=0 dy=0 dh=0 dv=0
PairPos2: "'kern' Horizontal Kerning in Latin lookup 2 per glyph data 1" Acircumflex dx=0 dy=0 dh=-35 dv=0 dx=0 dy=0 dh=0 dv=0
PairPos2: "'kern' Horizontal Kerning in Latin lookup 2 per glyph data 1" Aacute dx=0 dy=0 dh=-35 dv=0 dx=0 dy=0 dh=0 dv=0
PairPos2: "'kern' Horizontal Kerning in Latin lookup 2 per glyph data 1" Agrave dx=0 dy=0 dh=-35 dv=0 dx=0 dy=0 dh=0 dv=0
PairPos2: "'kern' Horizontal Kerning in Latin lookup 2 per glyph data 1" a dx=0 dy=0 dh=-55 dv=0 dx=0 dy=0 dh=0 dv=0
PairPos2: "'kern' Horizontal Kerning in Latin lookup 2 per glyph data 1" A dx=0 dy=0 dh=-35 dv=0 dx=0 dy=0 dh=0 dv=0
PairPos2: "'kern' Horizontal Kerning in Latin lookup 2 per glyph data 1" period dx=0 dy=0 dh=-30 dv=0 dx=0 dy=0 dh=0 dv=0
PairPos2: "'kern' Horizontal Kerning in Latin lookup 2 per glyph data 1" comma dx=0 dy=0 dh=-30 dv=0 dx=0 dy=0 dh=0 dv=0
Position2: "'cpsp' Capital Spacing in Latin lookup 0 subtable" dx=0 dy=0 dh=15 dv=0
EndChar

StartChar: W
Encoding: 87 87 58
Width: 993
GlyphClass: 2
Flags: W
LayerCount: 2
Fore
SplineSet
223 625 m 1,0,-1
 223 580 l 1,1,-1
 -170 625 l 1,2,-1
 223 625 l 1,0,-1
223 529 m 1,3,-1
 223 484 l 1,4,-1
 -170 529 l 1,5,-1
 223 529 l 1,3,-1
223 433 m 1,6,-1
 223 388 l 1,7,-1
 -170 433 l 1,8,-1
 223 433 l 1,6,-1
223 337 m 1,9,-1
 223 292 l 1,10,-1
 -170 337 l 1,11,-1
 223 337 l 1,9,-1
223 241 m 1,12,-1
 223 196 l 1,13,-1
 -170 241 l 1,14,-1
 223 241 l 1,12,-1
223 145 m 1,15,-1
 223 100 l 1,16,-1
 -170 145 l 1,17,-1
 223 145 l 1,15,-1
223 48 m 1,18,-1
 223 3 l 1,19,-1
 -170 48 l 1,20,-1
 223 48 l 1,18,-1
578 0 m 1,21,-1
 578 230 l 1,22,-1
 567 230 l 1,23,-1
 484 0 l 1,24,-1
 253 0 l 1,25,-1
 253 625 l 1,26,-1
 452 625 l 1,27,-1
 434 276 l 1,28,-1
 440 276 l 1,29,-1
 570 625 l 1,30,-1
 721 625 l 1,31,-1
 721 276 l 1,32,-1
 727 276 l 1,33,-1
 834 625 l 1,34,-1
 1033 625 l 1,35,-1
 830 0 l 1,36,-1
 578 0 l 1,21,-1
EndSplineSet
PairPos2: "'kern' Horizontal Kerning in Latin lookup 2 per glyph data 1" quotedblbase dx=0 dy=0 dh=-20 dv=0 dx=0 dy=0 dh=0 dv=0
PairPos2: "'kern' Horizontal Kerning in Latin lookup 2 per glyph data 1" quotesinglbase dx=0 dy=0 dh=-20 dv=0 dx=0 dy=0 dh=0 dv=0
PairPos2: "'kern' Horizontal Kerning in Latin lookup 2 per glyph data 1" ae dx=0 dy=0 dh=-35 dv=0 dx=0 dy=0 dh=0 dv=0
PairPos2: "'kern' Horizontal Kerning in Latin lookup 2 per glyph data 1" aring dx=0 dy=0 dh=-35 dv=0 dx=0 dy=0 dh=0 dv=0
PairPos2: "'kern' Horizontal Kerning in Latin lookup 2 per glyph data 1" adieresis dx=0 dy=0 dh=-35 dv=0 dx=0 dy=0 dh=0 dv=0
PairPos2: "'kern' Horizontal Kerning in Latin lookup 2 per glyph data 1" atilde dx=0 dy=0 dh=-35 dv=0 dx=0 dy=0 dh=0 dv=0
PairPos2: "'kern' Horizontal Kerning in Latin lookup 2 per glyph data 1" acircumflex dx=0 dy=0 dh=-35 dv=0 dx=0 dy=0 dh=0 dv=0
PairPos2: "'kern' Horizontal Kerning in Latin lookup 2 per glyph data 1" aacute dx=0 dy=0 dh=-35 dv=0 dx=0 dy=0 dh=0 dv=0
PairPos2: "'kern' Horizontal Kerning in Latin lookup 2 per glyph data 1" agrave dx=0 dy=0 dh=-35 dv=0 dx=0 dy=0 dh=0 dv=0
PairPos2: "'kern' Horizontal Kerning in Latin lookup 2 per glyph data 1" AE dx=0 dy=0 dh=-10 dv=0 dx=0 dy=0 dh=0 dv=0
PairPos2: "'kern' Horizontal Kerning in Latin lookup 2 per glyph data 1" Aring dx=0 dy=0 dh=-10 dv=0 dx=0 dy=0 dh=0 dv=0
PairPos2: "'kern' Horizontal Kerning in Latin lookup 2 per glyph data 1" Adieresis dx=0 dy=0 dh=-10 dv=0 dx=0 dy=0 dh=0 dv=0
PairPos2: "'kern' Horizontal Kerning in Latin lookup 2 per glyph data 1" Atilde dx=0 dy=0 dh=-10 dv=0 dx=0 dy=0 dh=0 dv=0
PairPos2: "'kern' Horizontal Kerning in Latin lookup 2 per glyph data 1" Acircumflex dx=0 dy=0 dh=-10 dv=0 dx=0 dy=0 dh=0 dv=0
PairPos2: "'kern' Horizontal Kerning in Latin lookup 2 per glyph data 1" Aacute dx=0 dy=0 dh=-10 dv=0 dx=0 dy=0 dh=0 dv=0
PairPos2: "'kern' Horizontal Kerning in Latin lookup 2 per glyph data 1" Agrave dx=0 dy=0 dh=-10 dv=0 dx=0 dy=0 dh=0 dv=0
PairPos2: "'kern' Horizontal Kerning in Latin lookup 2 per glyph data 1" a dx=0 dy=0 dh=-35 dv=0 dx=0 dy=0 dh=0 dv=0
PairPos2: "'kern' Horizontal Kerning in Latin lookup 2 per glyph data 1" A dx=0 dy=0 dh=-10 dv=0 dx=0 dy=0 dh=0 dv=0
PairPos2: "'kern' Horizontal Kerning in Latin lookup 2 per glyph data 1" period dx=0 dy=0 dh=-20 dv=0 dx=0 dy=0 dh=0 dv=0
PairPos2: "'kern' Horizontal Kerning in Latin lookup 2 per glyph data 1" comma dx=0 dy=0 dh=-20 dv=0 dx=0 dy=0 dh=0 dv=0
Position2: "'cpsp' Capital Spacing in Latin lookup 0 subtable" dx=0 dy=0 dh=15 dv=0
EndChar

StartChar: X
Encoding: 88 88 59
Width: 772
GlyphClass: 2
Flags: W
LayerCount: 2
Fore
SplineSet
284 293 m 1,0,-1
 -127 337 l 1,1,-1
 299 337 l 1,2,-1
 302 324 l 1,3,-1
 284 293 l 1,0,-1
-289 48 m 1,4,-1
 143 48 l 1,5,-1
 118 5 l 1,6,-1
 -289 48 l 1,4,-1
286 388 m 1,7,-1
 -137 433 l 1,8,-1
 275 433 l 1,9,-1
 286 388 l 1,7,-1
229 198 m 1,10,-1
 -177 241 l 1,11,-1
 254 241 l 1,12,-1
 229 198 l 1,10,-1
263 484 m 1,13,-1
 -160 529 l 1,14,-1
 252 529 l 1,15,16
 255 514 255 514 263 484 c 1,13,-1
240 580 m 1,17,-1
 -183 625 l 1,18,-1
 229 625 l 1,19,20
 232 610 232 610 240 580 c 1,17,-1
174 102 m 1,21,-1
 -232 145 l 1,22,-1
 199 145 l 1,23,-1
 174 102 l 1,21,-1
476 625 m 1,24,-1
 511 458 l 1,25,-1
 521 458 l 1,26,-1
 616 625 l 1,27,-1
 822 625 l 1,28,-1
 636 323 l 1,29,-1
 712 0 l 1,30,-1
 501 0 l 1,31,-1
 461 180 l 1,32,-1
 453 180 l 1,33,-1
 351 0 l 1,34,-1
 150 0 l 1,35,-1
 334 317 l 1,36,-1
 260 625 l 1,37,-1
 476 625 l 1,24,-1
EndSplineSet
PairPos2: "'kern' Horizontal Kerning in Latin lookup 2 per glyph data 1" ydieresis dx=0 dy=0 dh=-20 dv=0 dx=0 dy=0 dh=0 dv=0
PairPos2: "'kern' Horizontal Kerning in Latin lookup 2 per glyph data 1" yacute dx=0 dy=0 dh=-20 dv=0 dx=0 dy=0 dh=0 dv=0
PairPos2: "'kern' Horizontal Kerning in Latin lookup 2 per glyph data 1" y dx=0 dy=0 dh=-20 dv=0 dx=0 dy=0 dh=0 dv=0
PairPos2: "'kern' Horizontal Kerning in Latin lookup 2 per glyph data 1" w dx=0 dy=0 dh=-15 dv=0 dx=0 dy=0 dh=0 dv=0
PairPos2: "'kern' Horizontal Kerning in Latin lookup 2 per glyph data 1" v dx=0 dy=0 dh=-15 dv=0 dx=0 dy=0 dh=0 dv=0
Position2: "'cpsp' Capital Spacing in Latin lookup 0 subtable" dx=0 dy=0 dh=15 dv=0
EndChar

StartChar: Y
Encoding: 89 89 60
Width: 654
GlyphClass: 2
Flags: W
LayerCount: 2
Fore
SplineSet
233 3 m 1,0,-1
 -190 48 l 1,1,-1
 241 48 l 1,2,-1
 233 3 l 1,0,-1
250 100 m 1,3,-1
 -173 145 l 1,4,-1
 257 145 l 1,5,-1
 250 100 l 1,3,-1
257 196 m 1,6,-1
 -167 241 l 1,7,-1
 248 241 l 1,8,-1
 257 196 l 1,6,-1
238 292 m 1,9,-1
 -186 337 l 1,10,-1
 229 337 l 1,11,-1
 238 292 l 1,9,-1
191 529 m 1,12,-1
 200 484 l 1,13,-1
 -223 529 l 1,14,-1
 191 529 l 1,12,-1
210 433 m 1,15,-1
 219 388 l 1,16,-1
 -204 433 l 1,17,-1
 210 433 l 1,15,-1
182 580 m 1,18,-1
 -241 625 l 1,19,-1
 173 625 l 1,20,-1
 182 580 l 1,18,-1
413 625 m 1,21,-1
 426 405 l 1,22,-1
 433 405 l 1,23,-1
 525 625 l 1,24,-1
 735 625 l 1,25,-1
 483 170 l 1,26,-1
 454 0 l 1,27,-1
 264 0 l 1,28,-1
 293 170 l 1,29,-1
 203 625 l 1,30,-1
 413 625 l 1,21,-1
EndSplineSet
Position2: "'cpsp' Capital Spacing in Latin lookup 0 subtable" dx=0 dy=0 dh=15 dv=0
EndChar

StartChar: Z
Encoding: 90 90 61
Width: 748
GlyphClass: 2
Flags: W
LayerCount: 2
Fore
SplineSet
119 3 m 1,0,-1
 -563 48 l 1,1,-1
 127 48 l 1,2,-1
 119 3 l 1,0,-1
136 100 m 1,3,-1
 -288 145 l 1,4,-1
 144 145 l 1,5,-1
 136 100 l 1,3,-1
243 484 m 1,6,-1
 -181 529 l 1,7,-1
 246 529 l 1,8,-1
 243 484 l 1,6,-1
250 580 m 1,9,-1
 -173 625 l 1,10,-1
 253 625 l 1,11,-1
 250 580 l 1,9,-1
-109 337 m 1,12,-1
 323 337 l 1,13,-1
 285 295 l 1,14,-1
 -109 337 l 1,12,-1
-196 241 m 1,15,-1
 236 241 l 1,16,-1
 198 199 l 1,17,-1
 -196 241 l 1,15,-1
-23 433 m 1,18,-1
 409 433 l 1,19,-1
 371 391 l 1,20,-1
 -23 433 l 1,18,-1
662 0 m 1,21,-1
 150 0 l 1,22,-1
 172 125 l 1,23,-1
 473 459 l 1,24,-1
 471 465 l 1,25,-1
 272 465 l 1,26,-1
 283 625 l 1,27,-1
 768 625 l 1,28,-1
 746 500 l 1,29,-1
 447 166 l 1,30,-1
 448 160 l 1,31,-1
 690 160 l 1,32,-1
 662 0 l 1,21,-1
EndSplineSet
Position2: "'cpsp' Capital Spacing in Latin lookup 0 subtable" dx=0 dy=0 dh=15 dv=0
EndChar

StartChar: bracketleft
Encoding: 91 91 62
Width: 557
GlyphClass: 2
Flags: W
LayerCount: 2
Fore
SplineSet
207 10 m 0,0,1
 207 15 207 15 209 29 c 2,2,-1
 306 575 l 2,3,4
 318 637 318 637 376 658 c 0,5,6
 434 680 434 680 562 680 c 1,7,-1
 545 533 l 1,8,9
 542 533 542 533 465 526 c 1,10,-1
 386 78 l 1,11,-1
 464 71 l 1,12,-1
 429 -76 l 1,13,14
 330 -76 330 -76 285 -66 c 128,-1,15
 240 -56 240 -56 223.5 -37.5 c 128,-1,16
 207 -19 207 -19 207 10 c 0,0,1
177 3 m 1,17,-1
 -250 48 l 1,18,-1
 182 48 l 1,19,20
 177 29 177 29 177 3 c 1,17,-1
208 196 m 1,21,-1
 -216 241 l 1,22,-1
 216 241 l 1,23,-1
 208 196 l 1,21,-1
225 292 m 1,24,-1
 -199 337 l 1,25,-1
 233 337 l 1,26,-1
 225 292 l 1,24,-1
242 388 m 1,27,-1
 -182 433 l 1,28,-1
 250 433 l 1,29,-1
 242 388 l 1,27,-1
259 484 m 1,30,-1
 -165 529 l 1,31,-1
 266 529 l 1,32,-1
 259 484 l 1,30,-1
191 100 m 1,33,-1
 -233 145 l 1,34,-1
 199 145 l 1,35,-1
 191 100 l 1,33,-1
275 580 m 1,36,-1
 -148 625 l 1,37,-1
 295 625 l 1,38,39
 279 610 279 610 275 580 c 1,36,-1
EndSplineSet
EndChar

StartChar: backslash
Encoding: 92 92 63
Width: 503
GlyphClass: 2
Flags: W
LayerCount: 2
Fore
SplineSet
71 665 m 2,0,1
 90 665 90 665 98 659.5 c 128,-1,2
 106 654 106 654 114 640 c 2,3,-1
 503 -40 l 1,4,-1
 432 -40 l 2,5,6
 413 -40 413 -40 405 -34.5 c 128,-1,7
 397 -29 397 -29 389 -15 c 2,8,-1
 0 665 l 1,9,-1
 71 665 l 2,0,1
EndSplineSet
EndChar

StartChar: bracketright
Encoding: 93 93 64
Width: 532
GlyphClass: 2
Flags: W
LayerCount: 2
Fore
SplineSet
515 594 m 0,0,1
 515 589 515 589 513 575 c 2,2,-1
 416 29 l 2,3,4
 408 -21 408 -21 368 -43 c 0,5,6
 328 -66 328 -66 287 -70 c 0,7,8
 225 -76 225 -76 160 -76 c 1,9,-1
 177 71 l 1,10,-1
 257 78 l 1,11,-1
 336 526 l 1,12,13
 261 533 261 533 258 533 c 1,14,-1
 293 680 l 1,15,16
 392 680 392 680 437 670 c 128,-1,17
 482 660 482 660 498.5 641.5 c 128,-1,18
 515 623 515 623 515 594 c 0,0,1
139 3 m 1,19,-1
 -210 48 l 1,20,-1
 144 48 l 1,21,-1
 139 3 l 1,19,-1
247 196 m 1,22,-1
 -176 241 l 1,23,-1
 255 241 l 1,24,-1
 247 196 l 1,22,-1
264 292 m 1,25,-1
 -159 337 l 1,26,-1
 272 337 l 1,27,-1
 264 292 l 1,25,-1
280 388 m 1,28,-1
 -142 433 l 1,29,-1
 288 433 l 1,30,-1
 280 388 l 1,28,-1
217 484 m 1,31,-1
 -125 529 l 1,32,-1
 227 529 l 1,33,-1
 217 484 l 1,31,-1
230 100 m 1,34,-1
 -193 145 l 1,35,-1
 238 145 l 1,36,-1
 230 100 l 1,34,-1
239 580 m 1,37,-1
 -108 625 l 1,38,-1
 249 625 l 1,39,-1
 239 580 l 1,37,-1
EndSplineSet
EndChar

StartChar: asciicircum
Encoding: 94 94 65
Width: 600
GlyphClass: 2
Flags: W
LayerCount: 2
Fore
SplineSet
528 262 m 1,0,-1
 392 218 l 1,1,-1
 329 442 l 1,2,-1
 323 442 l 1,3,-1
 181 218 l 1,4,-1
 62 262 l 1,5,-1
 265 587 l 1,6,-1
 438 587 l 1,7,-1
 528 262 l 1,0,-1
EndSplineSet
EndChar

StartChar: underscore
Encoding: 95 95 66
Width: 406
GlyphClass: 2
Flags: W
LayerCount: 2
Fore
SplineSet
-103 -135 m 1,0,-1
 -410 -81 l 1,1,-1
 -94 -81 l 1,2,-1
 -103 -135 l 1,0,-1
21 15 m 2,3,-1
 373 15 l 1,4,-1
 354 -93 l 2,5,6
 349 -120 349 -120 332.5 -127.5 c 128,-1,7
 316 -135 316 -135 282 -135 c 2,8,-1
 -70 -135 l 1,9,-1
 -51 -27 l 2,10,11
 -46 0 -46 0 -29.5 7.5 c 128,-1,12
 -13 15 -13 15 21 15 c 2,3,-1
EndSplineSet
EndChar

StartChar: grave
Encoding: 96 96 67
Width: 279
GlyphClass: 2
Flags: W
LayerCount: 2
Fore
SplineSet
-7 655 m 2,0,1
 -11 659 -11 659 -11 666 c 128,-1,2
 -11 673 -11 673 -2 684 c 2,3,-1
 61 758 l 2,4,5
 70 769 70 769 77 769 c 128,-1,6
 84 769 84 769 90 765 c 2,7,-1
 279 626 l 1,8,-1
 238 569 l 1,9,-1
 64 604 l 2,10,11
 48 607 48 607 38 616 c 2,12,-1
 -7 655 l 2,0,1
-37 684 m 1,13,-1
 -432 723 l 1,14,-1
 -8 723 l 1,15,16
 -11 719 -11 719 -18 712 c 0,17,18
 -31 697 -31 697 -37 684 c 1,13,-1
6 603 m 1,19,-1
 -402 642 l 1,20,-1
 -35 642 l 1,21,22
 -29 633 -29 633 6 603 c 1,19,-1
EndSplineSet
EndChar

StartChar: a
Encoding: 97 97 68
Width: 758
GlyphClass: 2
Flags: W
LayerCount: 2
Fore
SplineSet
526 0 m 1,0,-1
 522 81 l 1,1,-1
 396 81 l 1,2,-1
 365 0 l 1,3,-1
 192 0 l 1,4,-1
 414 529 l 1,5,-1
 662 529 l 1,6,-1
 701 0 l 1,7,-1
 526 0 l 1,0,-1
522 224 m 1,8,-1
 522 376 l 1,9,-1
 508 376 l 1,10,-1
 449 224 l 1,11,-1
 522 224 l 1,8,-1
160 4 m 1,12,-1
 -250 48 l 1,13,-1
 179 48 l 1,14,-1
 160 4 l 1,12,-1
201 101 m 1,15,-1
 -209 145 l 1,16,-1
 220 145 l 1,17,-1
 201 101 l 1,15,-1
242 197 m 1,18,-1
 -168 241 l 1,19,-1
 260 241 l 1,20,-1
 242 197 l 1,18,-1
282 293 m 1,21,-1
 -127 337 l 1,22,-1
 301 337 l 1,23,-1
 282 293 l 1,21,-1
323 389 m 1,24,-1
 -86 433 l 1,25,-1
 341 433 l 1,26,-1
 323 389 l 1,24,-1
363 486 m 1,27,-1
 -45 529 l 1,28,-1
 381 529 l 1,29,-1
 363 486 l 1,27,-1
EndSplineSet
EndChar

StartChar: b
Encoding: 98 98 69
Width: 714
GlyphClass: 2
Flags: W
LayerCount: 2
Fore
SplineSet
566 529 m 2,0,1
 680 529 680 529 680 435 c 0,2,3
 680 383 680 383 655.5 341 c 128,-1,4
 631 299 631 299 596 283 c 1,5,-1
 595 277 l 1,6,7
 661 256 661 256 661 186 c 0,8,9
 661 98 661 98 613.5 49 c 128,-1,10
 566 0 566 0 470 0 c 2,11,-1
 204 0 l 1,12,-1
 296 529 l 1,13,-1
 566 529 l 2,0,1
470 205 m 2,14,-1
 408 205 l 1,15,-1
 395 131 l 1,16,-1
 457 131 l 2,17,18
 492 131 492 131 492 182 c 0,19,20
 492 205 492 205 470 205 c 2,14,-1
496 402 m 2,21,-1
 442 402 l 1,22,-1
 431 338 l 1,23,-1
 486 338 l 2,24,25
 516 338 516 338 516 382 c 0,26,27
 516 402 516 402 496 402 c 2,21,-1
172 3 m 1,28,-1
 -252 48 l 1,29,-1
 180 48 l 1,30,-1
 172 3 l 1,28,-1
206 196 m 1,31,-1
 -218 241 l 1,32,-1
 214 241 l 1,33,-1
 206 196 l 1,31,-1
223 292 m 1,34,-1
 -201 337 l 1,35,-1
 231 337 l 1,36,-1
 223 292 l 1,34,-1
240 388 m 1,37,-1
 -184 433 l 1,38,-1
 248 433 l 1,39,-1
 240 388 l 1,37,-1
257 484 m 1,40,-1
 -167 529 l 1,41,-1
 264 529 l 1,42,-1
 257 484 l 1,40,-1
189 100 m 1,43,-1
 -235 145 l 1,44,-1
 197 145 l 1,45,-1
 189 100 l 1,43,-1
EndSplineSet
EndChar

StartChar: c
Encoding: 99 99 70
Width: 620
GlyphClass: 2
Flags: W
LayerCount: 2
Fore
SplineSet
539 11 m 1,0,1
 485 -12 485 -12 389 -12 c 128,-1,2
 293 -12 293 -12 247.5 28.5 c 128,-1,3
 202 69 202 69 202 156 c 0,4,5
 202 195 202 195 214 264 c 0,6,7
 239 409 239 409 300.5 474 c 128,-1,8
 362 539 362 539 497 539 c 0,9,10
 594 539 594 539 630 517 c 1,11,-1
 579 378 l 1,12,13
 529 392 529 392 488 392 c 128,-1,14
 447 392 447 392 430.5 385 c 128,-1,15
 414 378 414 378 410 358 c 2,16,-1
 371 144 l 1,17,18
 392 139 392 139 443.5 139 c 128,-1,19
 495 139 495 139 555 161 c 1,20,-1
 539 11 l 1,0,1
179 241 m 1,21,22
 175 210 175 210 174 199 c 1,23,-1
 -220 241 l 1,24,-1
 179 241 l 1,21,22
198 337 m 1,25,-1
 189 295 l 1,26,-1
 -202 337 l 1,27,-1
 198 337 l 1,25,-1
173 145 m 1,28,29
 173 129 173 129 177 103 c 1,30,-1
 -216 145 l 1,31,-1
 173 145 l 1,28,29
233 433 m 1,32,33
 221 407 221 407 216 393 c 1,34,-1
 -162 433 l 1,35,-1
 233 433 l 1,32,33
194 48 m 1,36,37
 206 24 206 24 220 11 c 1,38,-1
 -129 48 l 1,39,-1
 194 48 l 1,36,37
320 529 m 1,40,41
 296 515 296 515 279 496 c 1,42,-1
 -28 529 l 1,43,-1
 320 529 l 1,40,41
EndSplineSet
EndChar

StartChar: d
Encoding: 100 100 71
Width: 775
GlyphClass: 2
Flags: W
LayerCount: 2
Fore
SplineSet
521 529 m 2,0,1
 630 529 630 529 677 490 c 128,-1,2
 724 451 724 451 724 365 c 0,3,4
 724 324 724 324 713 264 c 0,5,6
 688 122 688 122 626.5 61 c 128,-1,7
 565 0 565 0 428 0 c 2,8,-1
 204 0 l 1,9,-1
 296 529 l 1,10,-1
 521 529 l 2,0,1
497 383 m 2,11,-1
 439 383 l 1,12,-1
 397 143 l 1,13,-1
 455 143 l 2,14,15
 484 143 484 143 499.5 150.5 c 128,-1,16
 515 158 515 158 519 181 c 2,17,-1
 548 346 l 2,18,19
 549 350 549 350 549 362 c 0,20,21
 549 383 549 383 497 383 c 2,11,-1
171 3 m 1,22,-1
 -253 48 l 1,23,-1
 179 48 l 1,24,-1
 171 3 l 1,22,-1
205 196 m 1,25,-1
 -219 241 l 1,26,-1
 213 241 l 1,27,-1
 205 196 l 1,25,-1
222 292 m 1,28,-1
 -202 337 l 1,29,-1
 230 337 l 1,30,-1
 222 292 l 1,28,-1
239 388 m 1,31,-1
 -185 433 l 1,32,-1
 247 433 l 1,33,-1
 239 388 l 1,31,-1
256 484 m 1,34,-1
 -168 529 l 1,35,-1
 263 529 l 1,36,-1
 256 484 l 1,34,-1
188 100 m 1,37,-1
 -236 145 l 1,38,-1
 196 145 l 1,39,-1
 188 100 l 1,37,-1
EndSplineSet
EndChar

StartChar: e
Encoding: 101 101 72
Width: 656
GlyphClass: 2
Flags: W
LayerCount: 2
Fore
SplineSet
559 215 m 1,0,-1
 410 215 l 1,1,-1
 398 147 l 1,2,-1
 583 147 l 1,3,-1
 557 0 l 1,4,-1
 204 0 l 1,5,-1
 296 529 l 1,6,-1
 648 529 l 1,7,-1
 601 379 l 1,8,-1
 438 379 l 1,9,-1
 426 311 l 1,10,-1
 576 311 l 1,11,-1
 559 215 l 1,0,-1
171 3 m 1,12,-1
 -253 48 l 1,13,-1
 179 48 l 1,14,-1
 171 3 l 1,12,-1
205 196 m 1,15,-1
 -219 241 l 1,16,-1
 213 241 l 1,17,-1
 205 196 l 1,15,-1
222 292 m 1,18,-1
 -202 337 l 1,19,-1
 230 337 l 1,20,-1
 222 292 l 1,18,-1
239 388 m 1,21,-1
 -185 433 l 1,22,-1
 247 433 l 1,23,-1
 239 388 l 1,21,-1
256 484 m 1,24,-1
 -168 529 l 1,25,-1
 263 529 l 1,26,-1
 256 484 l 1,24,-1
188 100 m 1,27,-1
 -236 145 l 1,28,-1
 196 145 l 1,29,-1
 188 100 l 1,27,-1
EndSplineSet
EndChar

StartChar: f
Encoding: 102 102 73
Width: 591
GlyphClass: 2
Flags: W
LayerCount: 2
Fore
SplineSet
538 192 m 1,0,-1
 406 192 l 1,1,-1
 372 0 l 1,2,-1
 204 0 l 1,3,-1
 296 529 l 1,4,-1
 629 529 l 1,5,-1
 583 379 l 1,6,-1
 438 379 l 1,7,-1
 426 311 l 1,8,-1
 558 311 l 1,9,-1
 538 192 l 1,0,-1
172 3 m 1,10,-1
 -252 48 l 1,11,-1
 180 48 l 1,12,-1
 172 3 l 1,10,-1
206 196 m 1,13,-1
 -218 241 l 1,14,-1
 214 241 l 1,15,-1
 206 196 l 1,13,-1
223 292 m 1,16,-1
 -201 337 l 1,17,-1
 231 337 l 1,18,-1
 223 292 l 1,16,-1
240 388 m 1,19,-1
 -184 433 l 1,20,-1
 248 433 l 1,21,-1
 240 388 l 1,19,-1
257 484 m 1,22,-1
 -167 529 l 1,23,-1
 264 529 l 1,24,-1
 257 484 l 1,22,-1
189 100 m 1,25,-1
 -235 145 l 1,26,-1
 197 145 l 1,27,-1
 189 100 l 1,25,-1
EndSplineSet
EndChar

StartChar: g
Encoding: 103 103 74
Width: 696
GlyphClass: 2
Flags: W
LayerCount: 2
Fore
SplineSet
605 28 m 1,0,1
 503 -12 503 -12 397 -12 c 128,-1,2
 291 -12 291 -12 246 29.5 c 128,-1,3
 201 71 201 71 201 158 c 0,4,5
 201 201 201 201 215 281 c 128,-1,6
 229 361 229 361 258 418 c 0,7,8
 321 539 321 539 513 539 c 0,9,10
 625 539 625 539 669 517 c 1,11,-1
 618 378 l 1,12,13
 555 392 555 392 504.5 392 c 128,-1,14
 454 392 454 392 433 385 c 128,-1,15
 412 378 412 378 408 358 c 2,16,-1
 366 128 l 1,17,-1
 412 128 l 2,18,19
 437 128 437 128 450.5 133.5 c 128,-1,20
 464 139 464 139 467 158 c 2,21,-1
 474 197 l 1,22,-1
 433 197 l 1,23,-1
 453 311 l 1,24,-1
 655 311 l 1,25,-1
 605 28 l 1,0,1
177 241 m 1,26,27
 173 210 173 210 172 199 c 1,28,-1
 -222 241 l 1,29,-1
 177 241 l 1,26,27
196 337 m 1,30,-1
 187 295 l 1,31,-1
 -204 337 l 1,32,-1
 196 337 l 1,30,-1
171 145 m 1,33,34
 171 129 171 129 175 103 c 1,35,-1
 -218 145 l 1,36,-1
 171 145 l 1,33,34
231 433 m 1,37,38
 219 407 219 407 214 393 c 1,39,-1
 -164 433 l 1,40,-1
 231 433 l 1,37,38
192 48 m 1,41,42
 204 24 204 24 218 11 c 1,43,-1
 -131 48 l 1,44,-1
 192 48 l 1,41,42
318 529 m 1,45,46
 294 515 294 515 277 496 c 1,47,-1
 -30 529 l 1,48,-1
 318 529 l 1,45,46
EndSplineSet
EndChar

StartChar: h
Encoding: 104 104 75
Width: 772
GlyphClass: 2
Flags: W
LayerCount: 2
Fore
SplineSet
485 0 m 1,0,-1
 516 183 l 1,1,-1
 404 183 l 1,2,-1
 372 0 l 1,3,-1
 204 0 l 1,4,-1
 296 529 l 1,5,-1
 465 529 l 1,6,-1
 432 346 l 1,7,-1
 545 346 l 1,8,-1
 577 529 l 1,9,-1
 746 529 l 1,10,-1
 653 0 l 1,11,-1
 485 0 l 1,0,-1
171 3 m 1,12,-1
 -253 48 l 1,13,-1
 179 48 l 1,14,-1
 171 3 l 1,12,-1
205 196 m 1,15,-1
 -219 241 l 1,16,-1
 213 241 l 1,17,-1
 205 196 l 1,15,-1
222 292 m 1,18,-1
 -202 337 l 1,19,-1
 230 337 l 1,20,-1
 222 292 l 1,18,-1
239 388 m 1,21,-1
 -185 433 l 1,22,-1
 247 433 l 1,23,-1
 239 388 l 1,21,-1
256 484 m 1,24,-1
 -168 529 l 1,25,-1
 263 529 l 1,26,-1
 256 484 l 1,24,-1
188 100 m 1,27,-1
 -236 145 l 1,28,-1
 196 145 l 1,29,-1
 188 100 l 1,27,-1
EndSplineSet
EndChar

StartChar: i
Encoding: 105 105 76
Width: 489
GlyphClass: 2
Flags: W
LayerCount: 2
Fore
SplineSet
204 0 m 1,0,-1
 296 529 l 1,1,-1
 472 529 l 1,2,-1
 379 0 l 1,3,-1
 204 0 l 1,0,-1
171 3 m 1,4,-1
 -253 48 l 1,5,-1
 179 48 l 1,6,-1
 171 3 l 1,4,-1
205 196 m 1,7,-1
 -219 241 l 1,8,-1
 213 241 l 1,9,-1
 205 196 l 1,7,-1
222 292 m 1,10,-1
 -202 337 l 1,11,-1
 230 337 l 1,12,-1
 222 292 l 1,10,-1
239 388 m 1,13,-1
 -185 433 l 1,14,-1
 247 433 l 1,15,-1
 239 388 l 1,13,-1
256 484 m 1,16,-1
 -168 529 l 1,17,-1
 263 529 l 1,18,-1
 256 484 l 1,16,-1
188 100 m 1,19,-1
 -236 145 l 1,20,-1
 196 145 l 1,21,-1
 188 100 l 1,19,-1
EndSplineSet
EndChar

StartChar: j
Encoding: 106 106 77
Width: 534
GlyphClass: 2
Flags: W
LayerCount: 2
Fore
SplineSet
273 143 m 2,0,1
 307 143 307 143 310 163 c 2,2,-1
 347 379 l 1,3,-1
 282 379 l 1,4,-1
 309 529 l 1,5,-1
 542 529 l 1,6,-1
 474 141 l 1,7,8
 448 0 448 0 321 0 c 2,9,-1
 176 0 l 1,10,-1
 202 143 l 1,11,-1
 273 143 l 2,0,1
145 3 m 1,12,-1
 -279 48 l 1,13,-1
 153 48 l 1,14,-1
 145 3 l 1,12,-1
285 196 m 1,15,-1
 -139 241 l 1,16,-1
 293 241 l 1,17,-1
 285 196 l 1,15,-1
302 292 m 1,18,-1
 -122 337 l 1,19,-1
 310 337 l 1,20,-1
 302 292 l 1,18,-1
252 388 m 1,21,-1
 -172 433 l 1,22,-1
 260 433 l 1,23,-1
 252 388 l 1,21,-1
270 484 m 1,24,-1
 -154 529 l 1,25,-1
 277 529 l 1,26,-1
 270 484 l 1,24,-1
163 100 m 1,27,-1
 -261 145 l 1,28,-1
 171 145 l 1,29,-1
 163 100 l 1,27,-1
EndSplineSet
EndChar

StartChar: k
Encoding: 107 107 78
Width: 697
GlyphClass: 2
Flags: W
LayerCount: 2
Fore
SplineSet
455 0 m 1,0,-1
 408 173 l 1,1,-1
 402 173 l 1,2,-1
 372 0 l 1,3,-1
 204 0 l 1,4,-1
 296 529 l 1,5,-1
 465 529 l 1,6,-1
 436 367 l 1,7,-1
 441 367 l 1,8,-1
 544 529 l 1,9,-1
 727 529 l 1,10,-1
 559 270 l 1,11,-1
 638 0 l 1,12,-1
 455 0 l 1,0,-1
171 3 m 1,13,-1
 -253 48 l 1,14,-1
 179 48 l 1,15,-1
 171 3 l 1,13,-1
205 196 m 1,16,-1
 -219 241 l 1,17,-1
 213 241 l 1,18,-1
 205 196 l 1,16,-1
222 292 m 1,19,-1
 -202 337 l 1,20,-1
 230 337 l 1,21,-1
 222 292 l 1,19,-1
239 388 m 1,22,-1
 -185 433 l 1,23,-1
 247 433 l 1,24,-1
 239 388 l 1,22,-1
256 484 m 1,25,-1
 -168 529 l 1,26,-1
 263 529 l 1,27,-1
 256 484 l 1,25,-1
188 100 m 1,28,-1
 -236 145 l 1,29,-1
 196 145 l 1,30,-1
 188 100 l 1,28,-1
EndSplineSet
EndChar

StartChar: l
Encoding: 108 108 79
Width: 567
GlyphClass: 2
Flags: W
LayerCount: 2
Fore
SplineSet
529 0 m 1,0,-1
 204 0 l 1,1,-1
 296 529 l 1,2,-1
 472 529 l 1,3,-1
 405 147 l 1,4,-1
 555 147 l 1,5,-1
 529 0 l 1,0,-1
171 3 m 1,6,-1
 -253 48 l 1,7,-1
 179 48 l 1,8,-1
 171 3 l 1,6,-1
205 196 m 1,9,-1
 -219 241 l 1,10,-1
 213 241 l 1,11,-1
 205 196 l 1,9,-1
222 292 m 1,12,-1
 -202 337 l 1,13,-1
 230 337 l 1,14,-1
 222 292 l 1,12,-1
239 388 m 1,15,-1
 -185 433 l 1,16,-1
 247 433 l 1,17,-1
 239 388 l 1,15,-1
256 484 m 1,18,-1
 -168 529 l 1,19,-1
 263 529 l 1,20,-1
 256 484 l 1,18,-1
188 100 m 1,21,-1
 -236 145 l 1,22,-1
 196 145 l 1,23,-1
 188 100 l 1,21,-1
EndSplineSet
EndChar

StartChar: m
Encoding: 109 109 80
Width: 901
GlyphClass: 2
Flags: W
LayerCount: 2
Fore
SplineSet
575 0 m 1,0,-1
 443 0 l 1,1,-1
 428 215 l 1,2,-1
 423 215 l 1,3,-1
 375 0 l 1,4,-1
 204 0 l 1,5,-1
 325 529 l 1,6,-1
 542 529 l 1,7,-1
 557 281 l 1,8,-1
 561 281 l 1,9,-1
 662 529 l 1,10,-1
 879 529 l 1,11,-1
 815 0 l 1,12,-1
 643 0 l 1,13,-1
 670 215 l 1,14,-1
 665 215 l 1,15,-1
 575 0 l 1,0,-1
171 3 m 1,16,-1
 -253 48 l 1,17,-1
 181 48 l 1,18,-1
 171 3 l 1,16,-1
193 100 m 1,19,-1
 -230 145 l 1,20,-1
 204 145 l 1,21,-1
 193 100 l 1,19,-1
216 196 m 1,22,-1
 -207 241 l 1,23,-1
 226 241 l 1,24,-1
 216 196 l 1,22,-1
236 292 m 1,25,-1
 -184 337 l 1,26,-1
 247 337 l 1,27,-1
 236 292 l 1,25,-1
259 388 m 1,28,-1
 -161 433 l 1,29,-1
 269 433 l 1,30,-1
 259 388 l 1,28,-1
281 484 m 1,31,-1
 -138 529 l 1,32,-1
 292 529 l 1,33,-1
 281 484 l 1,31,-1
EndSplineSet
EndChar

StartChar: n
Encoding: 110 110 81
Width: 769
GlyphClass: 2
Flags: W
LayerCount: 2
Fore
SplineSet
514 0 m 1,0,-1
 411 198 l 1,1,-1
 407 198 l 1,2,-1
 372 0 l 1,3,-1
 204 0 l 1,4,-1
 296 529 l 1,5,-1
 432 529 l 1,6,-1
 536 332 l 1,7,-1
 542 332 l 1,8,-1
 576 529 l 1,9,-1
 743 529 l 1,10,-1
 650 0 l 1,11,-1
 514 0 l 1,0,-1
171 3 m 1,12,-1
 -253 48 l 1,13,-1
 179 48 l 1,14,-1
 171 3 l 1,12,-1
205 196 m 1,15,-1
 -219 241 l 1,16,-1
 213 241 l 1,17,-1
 205 196 l 1,15,-1
222 292 m 1,18,-1
 -202 337 l 1,19,-1
 230 337 l 1,20,-1
 222 292 l 1,18,-1
239 388 m 1,21,-1
 -185 433 l 1,22,-1
 247 433 l 1,23,-1
 239 388 l 1,21,-1
256 484 m 1,24,-1
 -168 529 l 1,25,-1
 263 529 l 1,26,-1
 256 484 l 1,24,-1
188 100 m 1,27,-1
 -236 145 l 1,28,-1
 196 145 l 1,29,-1
 188 100 l 1,27,-1
EndSplineSet
EndChar

StartChar: o
Encoding: 111 111 82
Width: 759
GlyphClass: 2
Flags: W
LayerCount: 2
Fore
SplineSet
509 539 m 0,0,1
 617 539 617 539 663 497.5 c 128,-1,2
 709 456 709 456 709 368 c 0,3,4
 709 325 709 325 698 264 c 0,5,6
 673 120 673 120 610 54 c 128,-1,7
 547 -12 547 -12 412 -12 c 0,8,9
 306 -12 306 -12 261 29.5 c 128,-1,10
 216 71 216 71 216 158 c 0,11,12
 216 203 216 203 227 264 c 0,13,14
 252 408 252 408 314 473.5 c 128,-1,15
 376 539 376 539 509 539 c 0,0,1
441 140 m 2,16,17
 470 140 470 140 484.5 147 c 128,-1,18
 499 154 499 154 504 178 c 2,19,-1
 542 387 l 1,20,-1
 481 387 l 2,21,22
 453 387 453 387 437.5 380 c 128,-1,23
 422 373 422 373 419 350 c 1,24,-1
 382 140 l 1,25,-1
 441 140 l 2,16,17
192 241 m 1,26,27
 188 210 188 210 187 199 c 1,28,-1
 -207 241 l 1,29,-1
 192 241 l 1,26,27
211 337 m 1,30,-1
 202 295 l 1,31,-1
 -189 337 l 1,32,-1
 211 337 l 1,30,-1
186 145 m 1,33,34
 186 129 186 129 190 103 c 1,35,-1
 -203 145 l 1,36,-1
 186 145 l 1,33,34
246 433 m 1,37,38
 234 407 234 407 229 393 c 1,39,-1
 -149 433 l 1,40,-1
 246 433 l 1,37,38
207 48 m 1,41,42
 219 24 219 24 233 11 c 1,43,-1
 -116 48 l 1,44,-1
 207 48 l 1,41,42
333 529 m 1,45,46
 309 515 309 515 292 496 c 1,47,-1
 -15 529 l 1,48,-1
 333 529 l 1,45,46
EndSplineSet
EndChar

StartChar: p
Encoding: 112 112 83
Width: 695
GlyphClass: 2
Flags: W
LayerCount: 2
Fore
SplineSet
491 124 m 2,0,-1
 394 124 l 1,1,-1
 372 0 l 1,2,-1
 204 0 l 1,3,-1
 296 529 l 1,4,-1
 550 529 l 2,5,6
 695 529 695 529 695 392 c 0,7,8
 695 330 695 330 677 278 c 128,-1,9
 659 226 659 226 638 196 c 128,-1,10
 617 166 617 166 578.5 145 c 128,-1,11
 540 124 540 124 491 124 c 2,0,-1
513 356 m 2,12,13
 513 357 513 357 514 362 c 1,14,15
 514 383 514 383 471 383 c 2,16,-1
 439 383 l 1,17,-1
 418 259 l 1,18,-1
 449 259 l 2,19,20
 472 259 472 259 485 264.5 c 128,-1,21
 498 270 498 270 501 288 c 2,22,-1
 513 356 l 2,12,13
171 3 m 1,23,-1
 -253 48 l 1,24,-1
 179 48 l 1,25,-1
 171 3 l 1,23,-1
205 196 m 1,26,-1
 -219 241 l 1,27,-1
 213 241 l 1,28,-1
 205 196 l 1,26,-1
222 292 m 1,29,-1
 -202 337 l 1,30,-1
 230 337 l 1,31,-1
 222 292 l 1,29,-1
239 388 m 1,32,-1
 -185 433 l 1,33,-1
 247 433 l 1,34,-1
 239 388 l 1,32,-1
256 484 m 1,35,-1
 -168 529 l 1,36,-1
 263 529 l 1,37,-1
 256 484 l 1,35,-1
188 100 m 1,38,-1
 -236 145 l 1,39,-1
 196 145 l 1,40,-1
 188 100 l 1,38,-1
EndSplineSet
EndChar

StartChar: q
Encoding: 113 113 84
Width: 733
GlyphClass: 2
Flags: W
LayerCount: 2
Fore
SplineSet
202 155 m 0,0,1
 202 200 202 200 213 264 c 0,2,3
 238 408 238 408 300.5 473.5 c 128,-1,4
 363 539 363 539 496 539 c 0,5,6
 604 539 604 539 650 497.5 c 128,-1,7
 696 456 696 456 696 368 c 0,8,9
 696 193 696 193 612 95 c 1,10,-1
 656 63 l 1,11,-1
 596 -42 l 1,12,-1
 440 -10 l 1,13,-1
 446 26 l 1,14,-1
 371 1 l 1,15,16
 280 1 280 1 241 37.5 c 128,-1,17
 202 74 202 74 202 155 c 0,0,1
428 140 m 2,18,19
 457 140 457 140 471.5 147 c 128,-1,20
 486 154 486 154 491 178 c 2,21,-1
 529 387 l 1,22,-1
 468 387 l 2,23,24
 440 387 440 387 424.5 380 c 128,-1,25
 409 373 409 373 406 350 c 1,26,-1
 369 140 l 1,27,-1
 428 140 l 2,18,19
178 241 m 1,28,29
 174 210 174 210 173 199 c 1,30,-1
 -221 241 l 1,31,-1
 178 241 l 1,28,29
197 337 m 1,32,-1
 188 295 l 1,33,-1
 -203 337 l 1,34,-1
 197 337 l 1,32,-1
172 145 m 1,35,36
 172 129 172 129 176 103 c 1,37,-1
 -217 145 l 1,38,-1
 172 145 l 1,35,36
232 433 m 1,39,40
 220 407 220 407 215 393 c 1,41,-1
 -163 433 l 1,42,-1
 232 433 l 1,39,40
193 48 m 1,43,44
 205 24 205 24 219 11 c 1,45,-1
 -130 48 l 1,46,-1
 193 48 l 1,43,44
319 529 m 1,47,48
 295 515 295 515 278 496 c 1,49,-1
 -29 529 l 1,50,-1
 319 529 l 1,47,48
EndSplineSet
EndChar

StartChar: r
Encoding: 114 114 85
Width: 721
GlyphClass: 2
Flags: W
LayerCount: 2
Fore
SplineSet
550 529 m 2,0,1
 696 529 696 529 696 397 c 0,2,3
 696 337 696 337 672 272.5 c 128,-1,4
 648 208 648 208 591 176 c 1,5,-1
 648 0 l 1,6,-1
 461 0 l 1,7,-1
 423 154 l 1,8,-1
 399 154 l 1,9,-1
 372 0 l 1,10,-1
 204 0 l 1,11,-1
 296 529 l 1,12,-1
 550 529 l 2,0,1
513 356 m 2,13,14
 513 357 513 357 514 366 c 1,15,16
 514 383 514 383 461 383 c 2,17,-1
 439 383 l 1,18,-1
 423 291 l 1,19,-1
 455 291 l 2,20,21
 501 291 501 291 507 321 c 2,22,-1
 513 356 l 2,13,14
171 3 m 1,23,-1
 -253 48 l 1,24,-1
 179 48 l 1,25,-1
 171 3 l 1,23,-1
205 196 m 1,26,-1
 -219 241 l 1,27,-1
 213 241 l 1,28,-1
 205 196 l 1,26,-1
222 292 m 1,29,-1
 -202 337 l 1,30,-1
 230 337 l 1,31,-1
 222 292 l 1,29,-1
239 388 m 1,32,-1
 -185 433 l 1,33,-1
 247 433 l 1,34,-1
 239 388 l 1,32,-1
256 484 m 1,35,-1
 -168 529 l 1,36,-1
 263 529 l 1,37,-1
 256 484 l 1,35,-1
188 100 m 1,38,-1
 -236 145 l 1,39,-1
 196 145 l 1,40,-1
 188 100 l 1,38,-1
EndSplineSet
EndChar

StartChar: s
Encoding: 115 115 86
Width: 718
GlyphClass: 2
Flags: W
LayerCount: 2
Fore
SplineSet
-238 48 m 1,0,-1
 194 48 l 1,1,-1
 180 3 l 1,2,-1
 -238 48 l 1,0,-1
270 433 m 1,3,4
 264 417 264 417 257 388 c 1,5,-1
 -161 433 l 1,6,-1
 270 433 l 1,3,4
245 300 m 2,7,-1
 245 292 l 1,8,-1
 -179 337 l 1,9,-1
 247 337 l 1,10,11
 245 313 245 313 245 300 c 2,7,-1
212 101 m 1,12,-1
 -205 145 l 1,13,-1
 226 145 l 1,14,-1
 212 101 l 1,12,-1
339 529 m 1,15,16
 312 509 312 509 298 487 c 1,17,-1
 -92 529 l 1,18,-1
 339 529 l 1,15,16
254 241 m 1,19,20
 263 215 263 215 283 196 c 1,21,-1
 -140 241 l 1,22,-1
 254 241 l 1,19,20
653 372 m 1,23,24
 585 388 585 388 537 388 c 128,-1,25
 489 388 489 388 466 385 c 1,26,-1
 461 356 l 1,27,-1
 511 350 l 1,28,29
 672 329 672 329 672 217 c 0,30,31
 672 204 672 204 666 168.5 c 128,-1,32
 660 133 660 133 646 100 c 128,-1,33
 632 67 632 67 610.5 46.5 c 128,-1,34
 589 26 589 26 568.5 13.5 c 128,-1,35
 548 1 548 1 516 -4 c 0,36,37
 466 -12 466 -12 382.5 -12 c 128,-1,38
 299 -12 299 -12 214 11 c 1,39,-1
 263 159 l 1,40,41
 341 137 341 137 399.5 137 c 128,-1,42
 458 137 458 137 482 140 c 1,43,-1
 487 172 l 1,44,-1
 424 179 l 2,45,46
 343 188 343 188 309 217 c 128,-1,47
 275 246 275 246 275 300 c 0,48,49
 275 320 275 320 280 350 c 0,50,51
 300 457 300 457 352 498 c 128,-1,52
 404 539 404 539 510.5 539 c 128,-1,53
 617 539 617 539 701 518 c 1,54,-1
 653 372 l 1,23,24
EndSplineSet
EndChar

StartChar: t
Encoding: 116 116 87
Width: 623
GlyphClass: 2
Flags: W
LayerCount: 2
Fore
SplineSet
627 379 m 1,0,-1
 519 379 l 1,1,-1
 453 0 l 1,2,-1
 277 0 l 1,3,-1
 343 379 l 1,4,-1
 232 379 l 1,5,-1
 259 529 l 1,6,-1
 654 529 l 1,7,-1
 627 379 l 1,0,-1
247 3 m 1,8,-1
 -177 48 l 1,9,-1
 255 48 l 1,10,-1
 247 3 l 1,8,-1
281 196 m 1,11,-1
 -143 241 l 1,12,-1
 289 241 l 1,13,-1
 281 196 l 1,11,-1
298 292 m 1,14,-1
 -126 337 l 1,15,-1
 306 337 l 1,16,-1
 298 292 l 1,14,-1
202 388 m 1,17,-1
 -222 433 l 1,18,-1
 210 433 l 1,19,-1
 202 388 l 1,17,-1
219 484 m 1,20,-1
 -205 529 l 1,21,-1
 226 529 l 1,22,-1
 219 484 l 1,20,-1
264 100 m 1,23,-1
 -160 145 l 1,24,-1
 272 145 l 1,25,-1
 264 100 l 1,23,-1
EndSplineSet
EndChar

StartChar: u
Encoding: 117 117 88
Width: 727
GlyphClass: 2
Flags: W
LayerCount: 2
Fore
SplineSet
205 196 m 1,0,-1
 -219 241 l 1,1,-1
 213 241 l 1,2,-1
 205 196 l 1,0,-1
222 292 m 1,3,-1
 -202 337 l 1,4,-1
 230 337 l 1,5,-1
 222 292 l 1,3,-1
239 388 m 1,6,-1
 -185 433 l 1,7,-1
 247 433 l 1,8,-1
 239 388 l 1,6,-1
256 484 m 1,9,-1
 -168 529 l 1,10,-1
 263 529 l 1,11,-1
 256 484 l 1,9,-1
201 145 m 1,12,-1
 201 125 l 2,13,14
 201 108 201 108 202 100 c 1,15,-1
 -222 145 l 1,16,-1
 201 145 l 1,12,-1
240 3 m 1,17,-1
 -184 48 l 1,18,-1
 211 48 l 1,19,20
 222 20 222 20 240 3 c 1,17,-1
445 140 m 2,21,22
 472 140 472 140 482.5 146.5 c 128,-1,23
 493 153 493 153 497 178 c 2,24,-1
 560 529 l 1,25,-1
 728 529 l 1,26,-1
 676 231 l 2,27,28
 652 91 652 91 598.5 39.5 c 128,-1,29
 545 -12 545 -12 416 -12 c 0,30,31
 313 -12 313 -12 272 18.5 c 128,-1,32
 231 49 231 49 231 125 c 0,33,34
 231 167 231 167 242 231 c 2,35,-1
 295 529 l 1,36,-1
 463 529 l 1,37,-1
 395 140 l 1,38,-1
 445 140 l 2,21,22
EndSplineSet
EndChar

StartChar: v
Encoding: 118 118 89
Width: 725
GlyphClass: 2
Flags: W
LayerCount: 2
Fore
SplineSet
459 529 m 1,0,-1
 459 227 l 1,1,-1
 463 227 l 1,2,-1
 579 529 l 1,3,-1
 760 529 l 1,4,-1
 546 0 l 1,5,-1
 303 0 l 1,6,-1
 274 529 l 1,7,-1
 459 529 l 1,0,-1
-151 48 m 1,8,-1
 267 48 l 1,9,-1
 270 3 l 1,10,-1
 -151 48 l 1,8,-1
-157 145 m 1,11,-1
 262 145 l 1,12,-1
 264 100 l 1,13,-1
 -157 145 l 1,11,-1
-180 529 m 1,14,-1
 241 529 l 1,15,-1
 244 484 l 1,16,-1
 -180 529 l 1,14,-1
-174 433 m 1,17,-1
 247 433 l 1,18,-1
 249 388 l 1,19,-1
 -174 433 l 1,17,-1
-168 337 m 1,20,-1
 251 337 l 1,21,-1
 254 292 l 1,22,-1
 -168 337 l 1,20,-1
-162 241 m 1,23,-1
 256 241 l 1,24,-1
 259 196 l 1,25,-1
 -162 241 l 1,23,-1
EndSplineSet
EndChar

StartChar: w
Encoding: 119 119 90
Width: 959
GlyphClass: 2
Flags: W
LayerCount: 2
Fore
SplineSet
253 0 m 1,0,-1
 253 529 l 1,1,-1
 435 529 l 1,2,-1
 435 243 l 1,3,-1
 440 243 l 1,4,-1
 552 529 l 1,5,-1
 704 529 l 1,6,-1
 704 243 l 1,7,-1
 708 243 l 1,8,-1
 800 529 l 1,9,-1
 991 529 l 1,10,-1
 796 0 l 1,11,-1
 579 0 l 1,12,-1
 564 187 l 1,13,-1
 557 187 l 1,14,-1
 480 0 l 1,15,-1
 253 0 l 1,0,-1
220 529 m 1,16,-1
 220 484 l 1,17,-1
 -173 529 l 1,18,-1
 220 529 l 1,16,-1
220 433 m 1,19,-1
 220 388 l 1,20,-1
 -173 433 l 1,21,-1
 220 433 l 1,19,-1
220 337 m 1,22,-1
 220 292 l 1,23,-1
 -173 337 l 1,24,-1
 220 337 l 1,22,-1
220 241 m 1,25,-1
 220 196 l 1,26,-1
 -173 241 l 1,27,-1
 220 241 l 1,25,-1
220 145 m 1,28,-1
 220 100 l 1,29,-1
 -173 145 l 1,30,-1
 220 145 l 1,28,-1
220 48 m 1,31,-1
 220 3 l 1,32,-1
 -173 48 l 1,33,-1
 220 48 l 1,31,-1
EndSplineSet
EndChar

StartChar: x
Encoding: 120 120 91
Width: 703
GlyphClass: 2
Flags: W
LayerCount: 2
Fore
SplineSet
140 48 m 1,0,-1
 112 5 l 1,1,-1
 -292 48 l 1,2,-1
 140 48 l 1,0,-1
267 241 m 1,3,-1
 239 198 l 1,4,-1
 -165 241 l 1,5,-1
 267 241 l 1,3,-1
-228 145 m 1,6,-1
 204 145 l 1,7,-1
 176 102 l 1,8,-1
 -228 145 l 1,6,-1
221 484 m 1,9,-1
 -203 529 l 1,10,-1
 207 529 l 1,11,-1
 221 484 l 1,9,-1
-143 337 m 1,12,-1
 266 337 l 1,13,-1
 280 292 l 1,14,-1
 -143 337 l 1,12,-1
-172 433 m 1,15,-1
 237 433 l 1,16,-1
 251 388 l 1,17,-1
 -172 433 l 1,15,-1
438 529 m 1,18,-1
 464 411 l 1,19,-1
 473 411 l 1,20,-1
 544 529 l 1,21,-1
 736 529 l 1,22,-1
 561 267 l 1,23,-1
 644 0 l 1,24,-1
 448 0 l 1,25,-1
 417 124 l 1,26,-1
 408 124 l 1,27,-1
 334 0 l 1,28,-1
 144 0 l 1,29,-1
 319 267 l 1,30,-1
 237 529 l 1,31,-1
 438 529 l 1,18,-1
EndSplineSet
EndChar

StartChar: y
Encoding: 121 121 92
Width: 635
GlyphClass: 2
Flags: W
LayerCount: 2
Fore
SplineSet
234 3 m 1,0,-1
 -190 48 l 1,1,-1
 242 48 l 1,2,-1
 234 3 l 1,0,-1
251 100 m 1,3,-1
 -173 145 l 1,4,-1
 259 145 l 1,5,-1
 251 100 l 1,3,-1
211 388 m 1,6,-1
 -213 433 l 1,7,-1
 202 433 l 1,8,-1
 211 388 l 1,6,-1
191 484 m 1,9,-1
 -233 529 l 1,10,-1
 182 529 l 1,11,-1
 191 484 l 1,9,-1
231 292 m 1,12,-1
 -193 337 l 1,13,-1
 222 337 l 1,14,-1
 231 292 l 1,12,-1
251 196 m 1,15,-1
 -173 241 l 1,16,-1
 241 241 l 1,17,-1
 251 196 l 1,15,-1
384 529 m 1,18,-1
 406 337 l 1,19,-1
 412 337 l 1,20,-1
 495 529 l 1,21,-1
 670 529 l 1,22,-1
 458 151 l 1,23,-1
 433 0 l 1,24,-1
 264 0 l 1,25,-1
 290 151 l 1,26,-1
 212 529 l 1,27,-1
 384 529 l 1,18,-1
EndSplineSet
EndChar

StartChar: z
Encoding: 122 122 93
Width: 666
GlyphClass: 2
Flags: W
LayerCount: 2
Fore
SplineSet
120 3 m 1,0,-1
 -304 48 l 1,1,-1
 128 48 l 1,2,-1
 120 3 l 1,0,-1
223 388 m 1,3,-1
 -201 433 l 1,4,-1
 226 433 l 1,5,-1
 223 388 l 1,3,-1
230 484 m 1,6,-1
 -194 529 l 1,7,-1
 233 529 l 1,8,-1
 230 484 l 1,6,-1
159 145 m 1,9,-1
 141 124 l 1,10,-1
 137 101 l 1,11,-1
 -273 145 l 1,12,-1
 159 145 l 1,9,-1
333 337 m 1,13,-1
 296 295 l 1,14,-1
 -99 337 l 1,15,-1
 333 337 l 1,13,-1
-185 241 m 1,16,-1
 247 241 l 1,17,-1
 209 199 l 1,18,-1
 -185 241 l 1,16,-1
586 0 m 1,19,-1
 151 0 l 1,20,-1
 170 111 l 1,21,-1
 410 377 l 1,22,-1
 408 383 l 1,23,-1
 253 383 l 1,24,-1
 263 529 l 1,25,-1
 675 529 l 1,26,-1
 655 418 l 1,27,-1
 414 149 l 1,28,-1
 416 143 l 1,29,-1
 610 143 l 1,30,-1
 586 0 l 1,19,-1
EndSplineSet
EndChar

StartChar: braceleft
Encoding: 123 123 94
Width: 557
GlyphClass: 2
Flags: W
LayerCount: 2
Fore
SplineSet
207 10 m 0,0,1
 207 18 207 18 260 229 c 1,2,-1
 200 245 l 1,3,-1
 220 357 l 1,4,-1
 285 373 l 1,5,-1
 306 575 l 2,6,7
 314 647 314 647 393 666 c 0,8,9
 434 675 434 675 468.5 677.5 c 128,-1,10
 503 680 503 680 562 680 c 1,11,-1
 545 533 l 1,12,13
 542 533 542 533 465 526 c 1,14,-1
 453 409 l 2,15,16
 448 366 448 366 431.5 344 c 128,-1,17
 415 322 415 322 387 307 c 1,18,-1
 385 295 l 1,19,20
 422 267 422 267 422 218 c 0,21,22
 422 201 422 201 415 175 c 2,23,-1
 386 78 l 1,24,-1
 464 71 l 1,25,-1
 429 -76 l 1,26,27
 330 -76 330 -76 285 -66 c 128,-1,28
 240 -56 240 -56 223.5 -37.5 c 128,-1,29
 207 -19 207 -19 207 10 c 0,0,1
177 3 m 1,30,-1
 -250 48 l 1,31,-1
 183 48 l 1,32,33
 177 26 177 26 177 3 c 1,30,-1
220 196 m 1,34,-1
 -216 241 l 1,35,-1
 169 241 l 1,36,-1
 166 223 l 1,37,-1
 223 208 l 1,38,-1
 220 196 l 1,34,-1
178 292 m 1,39,-1
 -199 337 l 1,40,-1
 186 337 l 1,41,-1
 178 292 l 1,39,-1
258 397 m 1,42,-1
 232 391 l 1,43,-1
 -182 433 l 1,44,-1
 262 433 l 1,45,-1
 258 397 l 1,42,-1
267 484 m 1,46,-1
 -165 529 l 1,47,-1
 271 529 l 1,48,-1
 267 484 l 1,46,-1
196 100 m 1,49,-1
 -233 145 l 1,50,-1
 207 145 l 1,51,-1
 196 100 l 1,49,-1
276 580 m 1,52,-1
 -148 625 l 1,53,-1
 292 625 l 1,54,55
 280 610 280 610 276 580 c 1,52,-1
EndSplineSet
EndChar

StartChar: bar
Encoding: 124 124 95
Width: 522
GlyphClass: 2
Flags: W
LayerCount: 2
Fore
SplineSet
187 -79 m 1,0,-1
 325 704 l 1,1,-1
 439 704 l 1,2,-1
 301 -79 l 1,3,-1
 187 -79 l 1,0,-1
171 3 m 1,4,-1
 -253 48 l 1,5,-1
 179 48 l 1,6,-1
 171 3 l 1,4,-1
205 196 m 1,7,-1
 -219 241 l 1,8,-1
 213 241 l 1,9,-1
 205 196 l 1,7,-1
222 292 m 1,10,-1
 -202 337 l 1,11,-1
 230 337 l 1,12,-1
 222 292 l 1,10,-1
239 388 m 1,13,-1
 -185 433 l 1,14,-1
 247 433 l 1,15,-1
 239 388 l 1,13,-1
256 484 m 1,16,-1
 -168 529 l 1,17,-1
 263 529 l 1,18,-1
 256 484 l 1,16,-1
188 100 m 1,19,-1
 -236 145 l 1,20,-1
 196 145 l 1,21,-1
 188 100 l 1,19,-1
272 580 m 1,22,-1
 -151 625 l 1,23,-1
 280 625 l 1,24,-1
 272 580 l 1,22,-1
EndSplineSet
Position2: "'case' Case-Sensitive Forms in Latin lookup 1 subtable" dx=0 dy=50 dh=0 dv=0
EndChar

StartChar: braceright
Encoding: 125 125 96
Width: 533
GlyphClass: 2
Flags: W
LayerCount: 2
Fore
SplineSet
515 594 m 0,0,1
 515 586 515 586 462 375 c 1,2,-1
 522 359 l 1,3,-1
 502 247 l 1,4,-1
 437 231 l 1,5,-1
 416 29 l 2,6,7
 408 -43 408 -43 329 -62 c 0,8,9
 288 -71 288 -71 253.5 -73.5 c 128,-1,10
 219 -76 219 -76 160 -76 c 1,11,-1
 177 71 l 1,12,-1
 257 78 l 1,13,-1
 269 195 l 2,14,15
 274 238 274 238 290.5 260 c 128,-1,16
 307 282 307 282 335 297 c 1,17,-1
 337 309 l 1,18,19
 300 337 300 337 300 386 c 0,20,21
 300 403 300 403 307 429 c 2,22,-1
 336 526 l 1,23,-1
 258 533 l 1,24,-1
 293 680 l 1,25,26
 392 680 392 680 437 670 c 128,-1,27
 482 660 482 660 498.5 641.5 c 128,-1,28
 515 623 515 623 515 594 c 0,0,1
139 3 m 1,29,-1
 -210 48 l 1,30,-1
 144 48 l 1,31,-1
 139 3 l 1,29,-1
290 475 m 1,32,-1
 -125 529 l 1,33,-1
 226 529 l 1,34,-1
 221 506 l 1,35,-1
 297 499 l 1,36,-1
 290 475 l 1,32,-1
239 580 m 1,37,-1
 -108 625 l 1,38,-1
 249 625 l 1,39,-1
 239 580 l 1,37,-1
300 302 m 1,40,-1
 286 293 l 1,41,-1
 -159 337 l 1,42,-1
 279 337 l 1,43,44
 287 317 287 317 300 302 c 1,40,-1
239 197 m 1,45,-1
 -176 241 l 1,46,-1
 248 241 l 1,47,48
 240 218 240 218 239 197 c 1,45,-1
230 106 m 1,49,-1
 -193 145 l 1,50,-1
 234 145 l 1,51,-1
 230 106 l 1,49,-1
270 388 m 1,52,-1
 -142 433 l 1,53,-1
 277 433 l 1,54,55
 270 407 270 407 270 388 c 1,52,-1
EndSplineSet
EndChar

StartChar: asciitilde
Encoding: 126 126 97
Width: 600
GlyphClass: 2
Flags: W
LayerCount: 2
Fore
SplineSet
383 203 m 0,0,1
 348 203 348 203 315 219.5 c 128,-1,2
 282 236 282 236 256.5 252 c 128,-1,3
 231 268 231 268 212 268 c 0,4,5
 174 268 174 268 108 202 c 1,6,-1
 23 293 l 1,7,8
 107 390 107 390 163 412 c 0,9,10
 189 423 189 423 220 423 c 128,-1,11
 251 423 251 423 305.5 388.5 c 128,-1,12
 360 354 360 354 389 354 c 0,13,14
 435 354 435 354 492 420 c 1,15,-1
 578 330 l 1,16,17
 488 203 488 203 383 203 c 0,0,1
EndSplineSet
EndChar

StartChar: exclamdown
Encoding: 161 161 99
Width: 587
GlyphClass: 2
Flags: W
LayerCount: 2
Fore
SplineSet
294 268 m 1,0,-1
 -129 313 l 1,1,-1
 305 313 l 1,2,-1
 294 268 l 1,0,-1
248 76 m 1,3,-1
 -174 121 l 1,4,-1
 258 121 l 1,5,-1
 248 76 l 1,3,-1
-150 217 m 1,6,-1
 282 217 l 1,7,-1
 271 172 l 1,8,-1
 -150 217 l 1,6,-1
-197 25 m 1,9,-1
 235 25 l 1,10,-1
 224 -19 l 1,11,-1
 -197 25 l 1,9,-1
211 -72 m 1,12,13
 206 -92 206 -92 206 -100 c 128,-1,14
 206 -108 206 -108 209 -117 c 1,15,-1
 -220 -72 l 1,16,-1
 211 -72 l 1,12,13
301 409 m 1,17,18
 301 382 301 382 313 364 c 1,19,-1
 -112 409 l 1,20,-1
 301 409 l 1,17,18
324 505 m 1,21,22
 311 488 311 488 305 461 c 1,23,-1
 -95 505 l 1,24,-1
 324 505 l 1,21,22
415 -117 m 2,25,-1
 267 -117 l 2,26,27
 236 -117 236 -117 236 -97 c 0,28,29
 236 -92 236 -92 237 -90 c 2,30,-1
 342 338 l 1,31,-1
 503 338 l 1,32,-1
 456 -90 l 1,33,34
 452 -117 452 -117 415 -117 c 2,25,-1
549 464 m 0,35,36
 549 407 549 407 518 383 c 128,-1,37
 487 359 487 359 430 359 c 128,-1,38
 373 359 373 359 352 371.5 c 128,-1,39
 331 384 331 384 331 412 c 0,40,41
 331 468 331 468 357.5 491.5 c 128,-1,42
 384 515 384 515 445.5 515 c 128,-1,43
 507 515 507 515 528 503.5 c 128,-1,44
 549 492 549 492 549 464 c 0,35,36
EndSplineSet
EndChar

StartChar: cent
Encoding: 162 162 100
Width: 637
GlyphClass: 2
Flags: W
LayerCount: 2
Fore
SplineSet
497 351 m 2,0,1
 479 351 479 351 466.5 348.5 c 128,-1,2
 454 346 454 346 442 334.5 c 128,-1,3
 430 323 430 323 425 302 c 2,4,-1
 400 189 l 1,5,6
 423 186 423 186 461 186 c 128,-1,7
 499 186 499 186 547 201 c 1,8,-1
 527 56 l 1,9,10
 476 36 476 36 419 35 c 1,11,-1
 397 -64 l 1,12,-1
 275 -64 l 1,13,-1
 298 44 l 1,14,15
 203 67 203 67 203 172 c 0,16,17
 203 233 203 233 221 292.5 c 128,-1,18
 239 352 239 352 259 390 c 128,-1,19
 279 428 279 428 315 460 c 128,-1,20
 351 492 351 492 397 504 c 1,21,-1
 417 600 l 1,22,-1
 539 600 l 1,23,-1
 520 513 l 1,24,25
 573 508 573 508 616 496 c 1,26,-1
 563 351 l 1,27,-1
 497 351 l 2,0,1
383 580 m 1,28,-1
 -40 625 l 1,29,-1
 391 625 l 1,30,-1
 383 580 l 1,28,-1
174 196 m 1,31,-1
 -250 241 l 1,32,-1
 179 241 l 1,33,-1
 174 196 l 1,31,-1
204 337 m 1,34,35
 198 322 198 322 190 292 c 1,36,-1
 -228 337 l 1,37,-1
 204 337 l 1,34,35
252 433 m 1,38,39
 245 423 245 423 226 390 c 1,40,-1
 -180 433 l 1,41,-1
 252 433 l 1,38,39
175 145 m 1,42,43
 177 116 177 116 183 100 c 1,44,-1
 -239 145 l 1,45,-1
 175 145 l 1,42,43
264 23 m 1,46,-1
 260 3 l 1,47,-1
 -163 48 l 1,48,-1
 219 48 l 1,49,50
 238 31 238 31 264 23 c 1,46,-1
372 529 m 1,51,-1
 372 525 l 1,52,53
 333 513 333 513 305 490 c 1,54,-1
 -58 529 l 1,55,-1
 372 529 l 1,51,-1
EndSplineSet
EndChar

StartChar: sterling
Encoding: 163 163 101
Width: 794
GlyphClass: 2
Flags: W
LayerCount: 2
Fore
SplineSet
224 292 m 1,0,-1
 -200 337 l 1,1,-1
 232 337 l 1,2,-1
 224 292 l 1,0,-1
174 3 m 1,3,-1
 -250 48 l 1,4,-1
 182 48 l 1,5,-1
 174 3 l 1,3,-1
363 529 m 1,6,7
 349 501 349 501 344 485 c 1,8,-1
 -67 529 l 1,9,-1
 363 529 l 1,6,7
-104 433 m 1,10,-1
 328 433 l 1,11,-1
 319 399 l 1,12,-1
 243 399 l 1,13,-1
 -104 433 l 1,10,-1
271 232 m 1,14,-1
 260 196 l 1,15,-1
 -159 241 l 1,16,-1
 215 241 l 1,17,-1
 214 232 l 1,18,-1
 271 232 l 1,14,-1
445 625 m 1,19,20
 423 608 423 608 400 584 c 1,21,-1
 14 625 l 1,22,-1
 445 625 l 1,19,20
193 118 m 1,23,-1
 191 104 l 1,24,-1
 -195 145 l 1,25,-1
 235 145 l 1,26,-1
 193 118 l 1,23,-1
685 160 m 1,27,-1
 685 0 l 1,28,-1
 204 0 l 1,29,-1
 221 100 l 1,30,-1
 274 135 l 1,31,-1
 311 262 l 1,32,-1
 250 262 l 1,33,-1
 269 369 l 1,34,-1
 341 369 l 1,35,-1
 362 443 l 2,36,37
 418 641 418 641 600 641 c 0,38,39
 696 641 696 641 774 622 c 1,40,-1
 720 477 l 1,41,-1
 627 477 l 2,42,43
 595 477 595 477 576 468 c 128,-1,44
 557 459 557 459 549 428 c 2,45,-1
 533 369 l 1,46,-1
 677 369 l 1,47,-1
 649 262 l 1,48,-1
 505 262 l 1,49,-1
 478 160 l 1,50,-1
 685 160 l 1,27,-1
EndSplineSet
EndChar

StartChar: yen
Encoding: 165 165 102
Width: 695
GlyphClass: 2
Flags: W
LayerCount: 2
Fore
SplineSet
413 625 m 1,0,-1
 424 391 l 1,1,-1
 430 391 l 1,2,-1
 525 625 l 1,3,-1
 725 625 l 1,4,-1
 589 369 l 1,5,-1
 652 369 l 1,6,-1
 633 262 l 1,7,-1
 532 262 l 1,8,-1
 505 212 l 1,9,-1
 624 212 l 1,10,-1
 605 105 l 1,11,-1
 472 105 l 1,12,-1
 454 0 l 1,13,-1
 264 0 l 1,14,-1
 282 105 l 1,15,-1
 149 105 l 1,16,-1
 168 212 l 1,17,-1
 286 212 l 1,18,-1
 278 262 l 1,19,-1
 177 262 l 1,20,-1
 196 369 l 1,21,-1
 259 369 l 1,22,-1
 212 625 l 1,23,-1
 413 625 l 1,0,-1
234 4 m 1,24,-1
 -180 48 l 1,25,-1
 241 48 l 1,26,-1
 234 4 l 1,24,-1
120 101 m 1,27,-1
 -163 145 l 1,28,-1
 127 145 l 1,29,-1
 120 101 l 1,27,-1
143 241 m 1,30,-1
 136 198 l 1,31,-1
 -146 241 l 1,32,-1
 143 241 l 1,30,-1
161 337 m 1,33,-1
 154 298 l 1,34,-1
 -129 337 l 1,35,-1
 161 337 l 1,33,-1
218 433 m 1,36,-1
 225 398 l 1,37,-1
 -112 433 l 1,38,-1
 218 433 l 1,36,-1
200 529 m 1,39,-1
 206 498 l 1,40,-1
 -95 529 l 1,41,-1
 200 529 l 1,39,-1
182 625 m 1,42,-1
 187 597 l 1,43,-1
 -78 625 l 1,44,-1
 182 625 l 1,42,-1
EndSplineSet
EndChar

StartChar: brokenbar
Encoding: 166 166 103
Width: 522
GlyphClass: 2
Flags: W
LayerCount: 2
Fore
SplineSet
279 447 m 1,0,-1
 325 704 l 1,1,-1
 439 704 l 1,2,-1
 393 447 l 1,3,-1
 279 447 l 1,0,-1
187 -79 m 1,4,-1
 228 156 l 1,5,-1
 342 156 l 1,6,-1
 301 -79 l 1,7,-1
 187 -79 l 1,4,-1
171 3 m 1,8,-1
 -253 48 l 1,9,-1
 179 48 l 1,10,-1
 171 3 l 1,8,-1
256 484 m 1,11,-1
 -168 529 l 1,12,-1
 263 529 l 1,13,-1
 256 484 l 1,11,-1
188 100 m 1,14,-1
 -236 145 l 1,15,-1
 196 145 l 1,16,-1
 188 100 l 1,14,-1
272 580 m 1,17,-1
 -151 625 l 1,18,-1
 280 625 l 1,19,-1
 272 580 l 1,17,-1
EndSplineSet
Position2: "'case' Case-Sensitive Forms in Latin lookup 1 subtable" dx=0 dy=50 dh=0 dv=0
EndChar

StartChar: section
Encoding: 167 167 104
Width: 761
GlyphClass: 2
Flags: W
LayerCount: 2
Fore
SplineSet
182 48 m 1,0,-1
 167 3 l 1,1,-1
 -250 48 l 1,2,-1
 182 48 l 1,0,-1
197 196 m 1,3,-1
 -227 241 l 1,4,-1
 201 241 l 1,5,6
 197 211 197 211 197 196 c 1,3,-1
233 388 m 1,7,-1
 -191 433 l 1,8,-1
 235 433 l 1,9,10
 233 419 233 419 233 388 c 1,7,-1
234 337 m 1,11,12
 226 322 226 322 215 293 c 1,13,-1
 -197 337 l 1,14,-1
 234 337 l 1,11,12
260 529 m 1,15,16
 247 497 247 497 244 485 c 1,17,-1
 -171 529 l 1,18,-1
 260 529 l 1,15,16
202 145 m 1,19,20
 208 119 208 119 224 100 c 1,21,-1
 -198 145 l 1,22,-1
 202 145 l 1,19,20
368 625 m 1,23,24
 331 611 331 611 303 586 c 1,25,-1
 -58 625 l 1,26,-1
 368 625 l 1,23,24
537 203 m 1,27,28
 545 253 545 253 545 264 c 0,29,30
 545 290 545 290 504 290 c 2,31,-1
 395 290 l 1,32,33
 387 240 387 240 387 228 c 0,34,35
 387 203 387 203 428 203 c 2,36,-1
 537 203 l 1,27,28
227 190 m 0,37,38
 227 231 227 231 241 273.5 c 128,-1,39
 255 316 255 316 273 342 c 1,40,41
 263 361 263 361 263 404.5 c 128,-1,42
 263 448 263 448 278.5 490 c 128,-1,43
 294 532 294 532 317.5 556.5 c 128,-1,44
 341 581 341 581 378 595 c 0,45,46
 439 618 439 618 540 618 c 128,-1,47
 641 618 641 618 727 593 c 1,48,-1
 684 466 l 1,49,-1
 469 466 l 1,50,-1
 463 432 l 1,51,52
 592 432 592 432 644 400 c 128,-1,53
 696 368 696 368 696 306 c 0,54,55
 696 264 696 264 682 222.5 c 128,-1,56
 668 181 668 181 649 155 c 1,57,58
 660 132 660 132 660 87 c 128,-1,59
 660 42 660 42 642.5 0 c 128,-1,60
 625 -42 625 -42 598.5 -64.5 c 128,-1,61
 572 -87 572 -87 532 -100 c 0,62,63
 471 -121 471 -121 365 -121 c 128,-1,64
 259 -121 259 -121 165 -91 c 1,65,-1
 208 31 l 1,66,-1
 463 31 l 1,67,-1
 469 65 l 1,68,69
 336 65 336 65 281.5 95 c 128,-1,70
 227 125 227 125 227 190 c 0,37,38
EndSplineSet
EndChar

StartChar: dieresis
Encoding: 168 168 105
Width: 430
GlyphClass: 2
Flags: W
LayerCount: 2
Fore
SplineSet
282.5 713.5 m 128,-1,1
 303 738 303 738 345.5 738 c 128,-1,2
 388 738 388 738 402.5 727 c 128,-1,3
 417 716 417 716 417 690 c 0,4,5
 417 631 417 631 396.5 606.5 c 128,-1,6
 376 582 376 582 333.5 582 c 128,-1,7
 291 582 291 582 276.5 593 c 128,-1,8
 262 604 262 604 262 630 c 0,9,0
 262 689 262 689 282.5 713.5 c 128,-1,1
74.5 713.5 m 128,-1,11
 95 738 95 738 137.5 738 c 128,-1,12
 180 738 180 738 194.5 727 c 128,-1,13
 209 716 209 716 209 690 c 0,14,15
 209 631 209 631 188 606.5 c 128,-1,16
 167 582 167 582 125 582 c 128,-1,17
 83 582 83 582 68.5 593 c 128,-1,18
 54 604 54 604 54 630 c 0,19,10
 54 689 54 689 74.5 713.5 c 128,-1,11
41 723 m 1,20,21
 32 706 32 706 27 677 c 1,22,-1
 -275 723 l 1,23,-1
 41 723 l 1,20,21
24 630 m 2,24,25
 24 612 24 612 27 598 c 1,26,-1
 -275 644 l 1,27,-1
 24 644 l 1,28,-1
 24 630 l 2,24,25
EndSplineSet
EndChar

StartChar: copyright
Encoding: 169 169 106
Width: 788
GlyphClass: 2
Flags: W
LayerCount: 2
Fore
SplineSet
469 344 m 1,0,-1
 499 341 l 1,1,2
 537 341 537 341 573 355 c 1,3,-1
 564 268 l 1,4,5
 529 254 529 254 476 254 c 128,-1,6
 423 254 423 254 397 277.5 c 128,-1,7
 371 301 371 301 371 351 c 0,8,9
 371 376 371 376 377 411 c 0,10,11
 392 494 392 494 427 531 c 128,-1,12
 462 568 462 568 539 568 c 0,13,14
 589 568 589 568 615 554 c 1,15,-1
 587 476 l 1,16,17
 560 483 560 483 535 483 c 128,-1,18
 510 483 510 483 501 479 c 128,-1,19
 492 475 492 475 490 464 c 2,20,-1
 469 344 l 1,0,-1
252 333 m 0,21,22
 252 472 252 472 318 562 c 1,23,24
 351 609 351 609 409 635.5 c 128,-1,25
 467 662 467 662 545 662 c 0,26,27
 649 662 649 662 697.5 619.5 c 128,-1,28
 746 577 746 577 746 499.5 c 128,-1,29
 746 422 746 422 730.5 364.5 c 128,-1,30
 715 307 715 307 682 260 c 128,-1,31
 649 213 649 213 591.5 186 c 128,-1,32
 534 159 534 159 456 159 c 0,33,34
 350 159 350 159 301 202 c 128,-1,35
 252 245 252 245 252 333 c 0,21,22
537 616 m 0,36,37
 413 616 413 616 356.5 545.5 c 128,-1,38
 300 475 300 475 300 336 c 0,39,40
 300 264 300 264 338.5 234.5 c 128,-1,41
 377 205 377 205 464 205 c 0,42,43
 588 205 588 205 643.5 276 c 128,-1,44
 699 347 699 347 699 487 c 0,45,46
 699 558 699 558 660.5 587 c 128,-1,47
 622 616 622 616 537 616 c 0,36,37
231 433 m 1,48,-1
 224 388 l 1,49,-1
 -200 433 l 1,50,-1
 231 433 l 1,48,-1
222 337 m 1,51,-1
 222 333 l 2,52,53
 222 318 222 318 224 292 c 1,54,-1
 -200 337 l 1,55,-1
 222 337 l 1,51,-1
261 529 m 1,56,57
 253 512 253 512 244 485 c 1,58,-1
 -170 529 l 1,59,-1
 261 529 l 1,56,57
334 625 m 1,60,61
 313 607 313 607 294 583 c 1,62,-1
 -96 625 l 1,63,-1
 334 625 l 1,60,61
236 241 m 1,64,65
 247 213 247 213 262 196 c 1,66,-1
 -161 241 l 1,67,-1
 236 241 l 1,64,65
EndSplineSet
EndChar

StartChar: ordfeminine
Encoding: 170 170 107
Width: 633
GlyphClass: 2
Flags: W
LayerCount: 2
Fore
SplineSet
269 300 m 2,0,-1
 592 300 l 1,1,-1
 579 222 l 2,2,3
 576 202 576 202 564 196.5 c 128,-1,4
 552 191 552 191 527 191 c 2,5,-1
 204 191 l 1,6,-1
 218 271 l 2,7,8
 221 291 221 291 232.5 295.5 c 128,-1,9
 244 300 244 300 269 300 c 2,0,-1
362 344 m 0,10,11
 228 344 228 344 228 489 c 0,12,13
 228 604 228 604 289.5 687 c 128,-1,14
 351 770 351 770 460 770 c 0,15,16
 553 770 553 770 660 738 c 1,17,-1
 594 356 l 1,18,-1
 517 356 l 1,19,-1
 481 402 l 1,20,21
 429 344 429 344 362 344 c 0,10,11
406 461 m 2,22,23
 439 461 439 461 450.5 469 c 128,-1,24
 462 477 462 477 464 490 c 2,25,-1
 493 653 l 1,26,-1
 469 653 l 2,27,28
 442 653 442 653 428 646.5 c 128,-1,29
 414 640 414 640 410 619 c 2,30,-1
 383 461 l 1,31,-1
 406 461 l 2,22,23
174 196 m 1,32,-1
 -250 241 l 1,33,-1
 182 241 l 1,34,-1
 174 196 l 1,32,-1
198 489 m 2,35,-1
 198 484 l 1,36,-1
 -226 529 l 1,37,-1
 200 529 l 1,38,39
 198 516 198 516 198 489 c 2,35,-1
221 625 m 1,40,41
 216 610 216 610 208 580 c 1,42,-1
 -209 625 l 1,43,-1
 221 625 l 1,40,41
203 433 m 1,44,45
 208 409 208 409 218 388 c 1,46,-1
 -205 433 l 1,47,-1
 203 433 l 1,44,45
269 330 m 2,48,49
 236 330 236 330 219.5 325 c 128,-1,50
 203 320 203 320 194 300 c 1,51,-1
 -151 337 l 1,52,-1
 266 337 l 1,53,54
 271 333 271 333 279 330 c 1,55,-1
 269 330 l 2,48,49
EndSplineSet
EndChar

StartChar: guillemotleft
Encoding: 171 171 108
Width: 767
GlyphClass: 2
Flags: W
LayerCount: 2
Fore
SplineSet
124 228 m 1,0,-1
 -200 273 l 1,1,-1
 132 273 l 1,2,-1
 124 228 l 1,0,-1
155 328 m 1,3,-1
 -126 369 l 1,4,-1
 205 369 l 1,5,-1
 155 328 l 1,3,-1
273 424 m 1,6,-1
 -8 465 l 1,7,-1
 323 465 l 1,8,-1
 273 424 l 1,6,-1
-154 177 m 1,9,-1
 130 177 l 1,10,-1
 169 132 l 1,11,-1
 -154 177 l 1,9,-1
-69 80 m 1,12,-1
 214 80 l 1,13,-1
 254 35 l 1,14,-1
 -69 80 l 1,12,-1
167 300 m 1,15,-1
 382 475 l 1,16,-1
 450 424 l 1,17,-1
 325 250 l 1,18,-1
 389 76 l 1,19,-1
 303 25 l 1,20,-1
 150 200 l 1,21,-1
 167 300 l 1,15,-1
404 300 m 1,22,-1
 620 475 l 1,23,-1
 687 424 l 1,24,-1
 562 250 l 1,25,-1
 626 76 l 1,26,-1
 541 25 l 1,27,-1
 382 200 l 1,28,-1
 404 300 l 1,22,-1
EndSplineSet
Position2: "'case' Case-Sensitive Forms in Latin lookup 1 subtable" dx=0 dy=50 dh=0 dv=0
EndChar

StartChar: logicalnot
Encoding: 172 172 109
Width: 600
GlyphClass: 2
Flags: W
LayerCount: 2
Fore
SplineSet
72 240 m 1,0,-1
 97 384 l 1,1,-1
 530 384 l 1,2,-1
 480 100 l 1,3,-1
 352 100 l 1,4,-1
 377 240 l 1,5,-1
 72 240 l 1,0,-1
EndSplineSet
EndChar

StartChar: registered
Encoding: 174 174 110
Width: 788
GlyphClass: 2
Flags: W
LayerCount: 2
Fore
SplineSet
252 333 m 0,0,1
 252 472 252 472 318 562 c 1,2,3
 351 609 351 609 409 635.5 c 128,-1,4
 467 662 467 662 545 662 c 0,5,6
 649 662 649 662 697.5 619.5 c 128,-1,7
 746 577 746 577 746 499.5 c 128,-1,8
 746 422 746 422 730.5 364.5 c 128,-1,9
 715 307 715 307 682 260 c 128,-1,10
 649 213 649 213 591.5 186 c 128,-1,11
 534 159 534 159 456 159 c 0,12,13
 350 159 350 159 301 202 c 128,-1,14
 252 245 252 245 252 333 c 0,0,1
537 616 m 0,15,16
 413 616 413 616 356.5 545.5 c 128,-1,17
 300 475 300 475 300 336 c 0,18,19
 300 264 300 264 338.5 234.5 c 128,-1,20
 377 205 377 205 464 205 c 0,21,22
 588 205 588 205 643.5 276 c 128,-1,23
 699 347 699 347 699 487 c 0,24,25
 699 558 699 558 660.5 587 c 128,-1,26
 622 616 622 616 537 616 c 0,15,16
554 561 m 2,27,28
 638 561 638 561 638 487 c 0,29,30
 638 451 638 451 624 414 c 128,-1,31
 610 377 610 377 578 360 c 1,32,-1
 610 261 l 1,33,-1
 503 261 l 1,34,-1
 481 348 l 1,35,-1
 470 348 l 1,36,-1
 455 261 l 1,37,-1
 358 261 l 1,38,-1
 411 561 l 1,39,-1
 554 561 l 2,27,28
500 428 m 2,40,41
 516 428 516 428 522 430.5 c 128,-1,42
 528 433 528 433 531 448.5 c 128,-1,43
 534 464 534 464 534 468 c 0,44,45
 534 478 534 478 509 478 c 2,46,-1
 493 478 l 1,47,-1
 484 428 l 1,48,-1
 500 428 l 2,40,41
231 433 m 1,49,-1
 224 388 l 1,50,-1
 -200 433 l 1,51,-1
 231 433 l 1,49,-1
222 337 m 1,52,-1
 222 333 l 2,53,54
 222 318 222 318 224 292 c 1,55,-1
 -200 337 l 1,56,-1
 222 337 l 1,52,-1
261 529 m 1,57,58
 253 512 253 512 244 485 c 1,59,-1
 -170 529 l 1,60,-1
 261 529 l 1,57,58
334 625 m 1,61,62
 313 607 313 607 294 583 c 1,63,-1
 -96 625 l 1,64,-1
 334 625 l 1,61,62
236 241 m 1,65,66
 247 213 247 213 262 196 c 1,67,-1
 -161 241 l 1,68,-1
 236 241 l 1,65,66
EndSplineSet
EndChar

StartChar: macron
Encoding: 175 175 111
Width: 399
GlyphClass: 2
Flags: W
LayerCount: 2
Fore
SplineSet
101 596 m 2,0,1
 76 596 76 596 66.5 603 c 128,-1,2
 57 610 57 610 57 625.5 c 128,-1,3
 57 641 57 641 61 660 c 2,4,-1
 72 723 l 1,5,-1
 307 723 l 2,6,7
 332 723 332 723 341 717 c 128,-1,8
 350 711 350 711 350 699.5 c 128,-1,9
 350 688 350 688 346 660 c 2,10,-1
 335 596 l 1,11,-1
 101 596 l 2,0,1
34 684 m 1,12,-1
 -326 723 l 1,13,-1
 41 723 l 1,14,-1
 34 684 l 1,12,-1
28 642 m 1,15,16
 27 638 27 638 27 625.5 c 128,-1,17
 27 613 27 613 30 601 c 1,18,-1
 -330 642 l 1,19,-1
 28 642 l 1,15,16
EndSplineSet
EndChar

StartChar: degree
Encoding: 176 176 112
Width: 578
GlyphClass: 2
Flags: W
LayerCount: 2
Fore
SplineSet
204 477 m 0,0,1
 204 576 204 576 254.5 640 c 128,-1,2
 305 704 305 704 406 704 c 0,3,4
 478 704 478 704 511 674.5 c 128,-1,5
 544 645 544 645 544 585 c 0,6,7
 544 486 544 486 494 421.5 c 128,-1,8
 444 357 444 357 344 357 c 0,9,10
 271 357 271 357 237.5 386.5 c 128,-1,11
 204 416 204 416 204 477 c 0,0,1
362 461 m 2,12,13
 383 461 383 461 393.5 462.5 c 128,-1,14
 404 464 404 464 414.5 473 c 128,-1,15
 425 482 425 482 428 500 c 2,16,-1
 445 600 l 1,17,-1
 391 600 l 2,18,19
 367 600 367 600 355.5 598.5 c 128,-1,20
 344 597 344 597 333.5 588.5 c 128,-1,21
 323 580 323 580 320 562 c 2,22,-1
 302 461 l 1,23,-1
 362 461 l 2,12,13
174 484 m 1,24,-1
 -250 529 l 1,25,-1
 177 529 l 1,26,27
 174 506 174 506 174 484 c 1,24,-1
207 625 m 1,28,29
 194 601 194 601 189 581 c 1,30,-1
 -224 625 l 1,31,-1
 207 625 l 1,28,29
178 433 m 1,32,33
 183 406 183 406 194 388 c 1,34,-1
 -229 433 l 1,35,-1
 178 433 l 1,32,33
EndSplineSet
EndChar

StartChar: plusminus
Encoding: 177 177 113
Width: 600
GlyphClass: 2
Flags: W
LayerCount: 2
Fore
SplineSet
91 341 m 1,0,-1
 116 485 l 1,1,-1
 264 485 l 1,2,-1
 292 640 l 1,3,-1
 428 640 l 1,4,-1
 400 485 l 1,5,-1
 549 485 l 1,6,-1
 524 341 l 1,7,-1
 375 341 l 1,8,-1
 347 185 l 1,9,-1
 211 185 l 1,10,-1
 239 341 l 1,11,-1
 91 341 l 1,0,-1
31 0 m 1,12,-1
 56 144 l 1,13,-1
 489 144 l 1,14,-1
 464 0 l 1,15,-1
 31 0 l 1,12,-1
EndSplineSet
EndChar

StartChar: twosuperior
Encoding: 178 178 114
Width: 400
GlyphClass: 2
Flags: W
LayerCount: 2
Fore
SplineSet
85 724 m 1,0,1
 153 741 153 741 218.5 741 c 128,-1,2
 284 741 284 741 310 736 c 128,-1,3
 336 731 336 731 355.5 710.5 c 128,-1,4
 375 690 375 690 375 652 c 0,5,6
 375 643 375 643 371 613 c 1,7,8
 361 554 361 554 327 530 c 128,-1,9
 293 506 293 506 180 468 c 1,10,-1
 176 448 l 1,11,-1
 336 448 l 1,12,-1
 318 343 l 1,13,-1
 12 343 l 1,14,-1
 26 425 l 1,15,16
 35 471 35 471 48.5 487 c 128,-1,17
 62 503 62 503 68 511 c 128,-1,18
 74 519 74 519 93.5 529.5 c 128,-1,19
 113 540 113 540 120 544 c 128,-1,20
 127 548 127 548 155 560 c 128,-1,21
 183 572 183 572 192 576 c 2,22,-1
 232 594 l 1,23,-1
 238 629 l 1,24,25
 217 631 217 631 184 631 c 128,-1,26
 151 631 151 631 84 616 c 1,27,-1
 85 724 l 1,0,1
EndSplineSet
EndChar

StartChar: threesuperior
Encoding: 179 179 115
Width: 400
GlyphClass: 2
Flags: W
LayerCount: 2
Fore
SplineSet
235 628 m 1,0,1
 213 631 213 631 174.5 631 c 128,-1,2
 136 631 136 631 84 616 c 1,3,-1
 85 724 l 1,4,5
 153 741 153 741 226 741 c 128,-1,6
 299 741 299 741 332.5 726 c 128,-1,7
 366 711 366 711 366 665 c 0,8,9
 366 588 366 588 308 550 c 1,10,11
 343 529 343 529 343 486 c 0,12,13
 343 478 343 478 339 452 c 128,-1,14
 335 426 335 426 321 402 c 128,-1,15
 307 378 307 378 290.5 365 c 128,-1,16
 274 352 274 352 248 345 c 0,17,18
 208 334 208 334 142.5 334 c 128,-1,19
 77 334 77 334 13 351 c 1,20,-1
 50 460 l 1,21,22
 112 444 112 444 149 444 c 128,-1,23
 186 444 186 444 203 446 c 1,24,-1
 211 492 l 1,25,-1
 115 503 l 1,26,-1
 127 572 l 1,27,-1
 227 584 l 1,28,-1
 235 628 l 1,0,1
EndSplineSet
EndChar

StartChar: acute
Encoding: 180 180 116
Width: 429
GlyphClass: 2
Flags: W
LayerCount: 2
Fore
SplineSet
229 765 m 2,0,1
 235 769 235 769 242 769 c 128,-1,2
 249 769 249 769 258 758 c 2,3,-1
 321 684 l 2,4,5
 330 674 330 674 330 667.5 c 128,-1,6
 330 661 330 661 327.5 657.5 c 128,-1,7
 325 654 325 654 281 616 c 0,8,9
 271 607 271 607 255 604 c 2,10,-1
 81 569 l 1,11,-1
 40 626 l 1,12,-1
 229 765 l 2,0,1
67 684 m 1,13,-1
 -293 723 l 1,14,-1
 120 723 l 1,15,-1
 67 684 l 1,13,-1
-44 603 m 1,16,-1
 -404 642 l 1,17,-1
 9 642 l 1,18,-1
 -44 603 l 1,16,-1
EndSplineSet
EndChar

StartChar: mu
Encoding: 181 181 117
Width: 784
GlyphClass: 2
Flags: W
LayerCount: 2
Fore
SplineSet
446 131 m 2,0,1
 480 131 480 131 497 138.5 c 128,-1,2
 514 146 514 146 519 173 c 2,3,-1
 583 529 l 1,4,-1
 775 544 l 1,5,-1
 679 0 l 1,6,-1
 584 0 l 1,7,-1
 550 43 l 1,8,9
 507 0 507 0 426 0 c 2,10,-1
 358 0 l 1,11,-1
 297 -165 l 1,12,-1
 174 -165 l 1,13,-1
 298 529 l 1,14,-1
 488 529 l 1,15,-1
 417 131 l 1,16,-1
 446 131 l 2,0,1
171 3 m 1,17,-1
 -253 48 l 1,18,-1
 179 48 l 1,19,-1
 171 3 l 1,17,-1
205 196 m 1,20,-1
 -219 241 l 1,21,-1
 213 241 l 1,22,-1
 205 196 l 1,20,-1
222 292 m 1,23,-1
 -202 337 l 1,24,-1
 230 337 l 1,25,-1
 222 292 l 1,23,-1
239 388 m 1,26,-1
 -185 433 l 1,27,-1
 247 433 l 1,28,-1
 239 388 l 1,26,-1
256 484 m 1,29,-1
 -168 529 l 1,30,-1
 263 529 l 1,31,-1
 256 484 l 1,29,-1
188 100 m 1,32,-1
 -236 145 l 1,33,-1
 196 145 l 1,34,-1
 188 100 l 1,32,-1
EndSplineSet
EndChar

StartChar: paragraph
Encoding: 182 182 118
Width: 766
GlyphClass: 2
Flags: W
LayerCount: 2
Fore
SplineSet
283 100 m 1,0,-1
 -141 145 l 1,1,-1
 291 145 l 1,2,-1
 283 100 l 1,0,-1
266 3 m 1,3,-1
 -158 48 l 1,4,-1
 274 48 l 1,5,-1
 266 3 l 1,3,-1
187 388 m 1,6,-1
 -237 433 l 1,7,-1
 192 433 l 1,8,9
 188 403 188 403 187 388 c 1,6,-1
224 529 m 1,10,11
 212 507 212 507 205 485 c 1,12,-1
 -207 529 l 1,13,-1
 224 529 l 1,10,11
186 337 m 1,14,15
 188 311 188 311 193 292 c 1,16,-1
 -230 337 l 1,17,-1
 186 337 l 1,14,15
322 625 m 1,18,19
 290 608 290 608 267 585 c 1,20,-1
 -106 625 l 1,21,-1
 322 625 l 1,18,19
218 241 m 1,22,23
 244 210 244 210 294 196 c 1,24,-1
 -124 241 l 1,25,-1
 218 241 l 1,22,23
216 359 m 0,26,27
 216 468 216 468 270 542 c 0,28,29
 298 581 298 581 347.5 603 c 128,-1,30
 397 625 397 625 464 625 c 2,31,-1
 767 625 l 1,32,-1
 738 465 l 1,33,-1
 690 465 l 1,34,-1
 608 0 l 2,35,36
 579 -165 579 -165 437 -165 c 2,37,-1
 157 -165 l 1,38,-1
 166 -114 l 1,39,-1
 368 -55 l 2,40,41
 415 -42 415 -42 420 -12 c 2,42,-1
 505 465 l 1,43,-1
 477 465 l 1,44,-1
 396 0 l 1,45,-1
 293 -25 l 1,46,-1
 335 218 l 1,47,48
 216 236 216 236 216 359 c 0,26,27
EndSplineSet
EndChar

StartChar: periodcentered
Encoding: 183 183 119
Width: 325
GlyphClass: 2
Flags: W
LayerCount: 2
Fore
SplineSet
72 338 m 1,0,1
 66 318 66 318 63 293 c 1,2,-1
 -159 338 l 1,3,-1
 72 338 l 1,0,1
70 196 m 1,4,-1
 -154 241 l 1,5,-1
 59 241 l 1,6,7
 61 212 61 212 70 196 c 1,4,-1
128.5 375 m 128,-1,9
 154 399 154 399 209.5 399 c 128,-1,10
 265 399 265 399 284.5 384 c 128,-1,11
 304 369 304 369 304 341 c 128,-1,12
 304 313 304 313 300 292 c 0,13,14
 290 233 290 233 264.5 210 c 128,-1,15
 239 187 239 187 183.5 187 c 128,-1,16
 128 187 128 187 108.5 201.5 c 128,-1,17
 89 216 89 216 89 243.5 c 128,-1,18
 89 271 89 271 93 292 c 0,19,8
 103 351 103 351 128.5 375 c 128,-1,9
EndSplineSet
EndChar

StartChar: cedilla
Encoding: 184 184 120
Width: 469
GlyphClass: 2
Flags: W
LayerCount: 2
Fore
SplineSet
326 -64 m 0,0,1
 326 -105 326 -105 294 -135 c 128,-1,2
 262 -165 262 -165 208.5 -165 c 128,-1,3
 155 -165 155 -165 109 -146 c 1,4,-1
 135 -58 l 1,5,-1
 166 -58 l 2,6,7
 186 -58 186 -58 192.5 -52.5 c 128,-1,8
 199 -47 199 -47 203 -26 c 2,9,-1
 211 21 l 1,10,-1
 269 21 l 1,11,12
 326 -3 326 -3 326 -64 c 0,0,1
94 -89 m 1,13,-1
 -88 -58 l 1,14,-1
 103 -58 l 1,15,-1
 94 -89 l 1,13,-1
73 -161 m 1,16,-1
 -101 -130 l 1,17,-1
 82 -130 l 1,18,-1
 73 -161 l 1,16,-1
EndSplineSet
EndChar

StartChar: onesuperior
Encoding: 185 185 121
Width: 400
GlyphClass: 2
Flags: W
LayerCount: 2
Fore
SplineSet
316 343 m 1,0,-1
 37 343 l 1,1,-1
 55 448 l 1,2,-1
 136 448 l 1,3,-1
 162 596 l 1,4,-1
 70 591 l 1,5,-1
 90 700 l 1,6,-1
 220 732 l 1,7,-1
 319 732 l 1,8,-1
 269 448 l 1,9,-1
 334 448 l 1,10,-1
 316 343 l 1,0,-1
EndSplineSet
EndChar

StartChar: ordmasculine
Encoding: 186 186 122
Width: 633
GlyphClass: 2
Flags: W
LayerCount: 2
Fore
SplineSet
237 490 m 0,0,1
 237 611 237 611 298.5 690.5 c 128,-1,2
 360 770 360 770 483 770 c 0,3,4
 572 770 572 770 613.5 733.5 c 128,-1,5
 655 697 655 697 655 623 c 0,6,7
 655 503 655 503 593 423.5 c 128,-1,8
 531 344 531 344 408 344 c 0,9,10
 319 344 319 344 278 380.5 c 128,-1,11
 237 417 237 417 237 490 c 0,0,1
415 461 m 2,12,13
 442 461 442 461 456 467.5 c 128,-1,14
 470 474 470 474 473 495 c 2,15,-1
 501 653 l 1,16,-1
 477 653 l 2,17,18
 450 653 450 653 436 646.5 c 128,-1,19
 422 640 422 640 419 619 c 2,20,-1
 391 461 l 1,21,-1
 415 461 l 2,12,13
269 300 m 2,22,-1
 592 300 l 1,23,-1
 579 222 l 2,24,25
 576 202 576 202 564 196.5 c 128,-1,26
 552 191 552 191 527 191 c 2,27,-1
 204 191 l 1,28,-1
 218 271 l 2,29,30
 221 291 221 291 232.5 295.5 c 128,-1,31
 244 300 244 300 269 300 c 2,22,-1
174 196 m 1,32,-1
 -250 241 l 1,33,-1
 182 241 l 1,34,-1
 174 196 l 1,32,-1
228 625 m 1,35,36
 220 598 220 598 216 580 c 1,37,-1
 -203 625 l 1,38,-1
 228 625 l 1,35,36
207 490 m 2,39,-1
 207 484 l 1,40,-1
 -217 529 l 1,41,-1
 208 529 l 1,42,43
 207 516 207 516 207 490 c 2,39,-1
213 433 m 1,44,45
 220 405 220 405 230 388 c 1,46,-1
 -193 433 l 1,47,-1
 213 433 l 1,44,45
269 330 m 2,48,49
 247 330 247 330 236 329 c 0,50,51
 206 326 206 326 195 302 c 1,52,-1
 -129 337 l 1,53,-1
 286 337 l 1,54,55
 292 333 292 333 302 330 c 1,56,-1
 269 330 l 2,48,49
EndSplineSet
EndChar

StartChar: guillemotright
Encoding: 187 187 123
Width: 758
GlyphClass: 2
Flags: W
LayerCount: 2
Fore
SplineSet
563 475 m 1,0,-1
 716 300 l 1,1,-1
 699 200 l 1,2,-1
 484 25 l 1,3,-1
 416 76 l 1,4,-1
 542 250 l 1,5,-1
 477 424 l 1,6,-1
 563 475 l 1,0,-1
326 475 m 1,7,-1
 479 300 l 1,8,-1
 462 200 l 1,9,-1
 247 25 l 1,10,-1
 179 76 l 1,11,-1
 305 250 l 1,12,-1
 240 424 l 1,13,-1
 326 475 l 1,7,-1
252 228 m 1,14,-1
 -150 273 l 1,15,-1
 265 273 l 1,16,-1
 272 255 l 1,17,-1
 252 228 l 1,14,-1
245 328 m 1,18,-1
 -76 369 l 1,19,-1
 229 369 l 1,20,-1
 245 328 l 1,18,-1
208 424 m 1,21,-1
 42 465 l 1,22,-1
 249 465 l 1,23,-1
 203 438 l 1,24,-1
 208 424 l 1,21,-1
-104 177 m 1,25,-1
 215 177 l 1,26,-1
 182 132 l 1,27,-1
 -104 177 l 1,25,-1
-19 80 m 1,28,-1
 145 80 l 1,29,-1
 138 70 l 1,30,-1
 184 35 l 1,31,-1
 -19 80 l 1,28,-1
EndSplineSet
Position2: "'case' Case-Sensitive Forms in Latin lookup 1 subtable" dx=0 dy=50 dh=0 dv=0
EndChar

StartChar: onequarter
Encoding: 188 188 124
Width: 971
GlyphClass: 2
Flags: W
LayerCount: 2
Fore
SplineSet
377 -40 m 2,0,-1
 326 -40 l 1,1,-1
 595 640 l 2,2,3
 600 650 600 650 604 654 c 0,4,5
 615 665 615 665 638 665 c 2,6,-1
 689 665 l 1,7,-1
 420 -15 l 2,8,9
 415 -25 415 -25 411 -29 c 0,10,11
 400 -40 400 -40 377 -40 c 2,0,-1
728 0 m 1,12,-1
 738 60 l 1,13,-1
 563 60 l 1,14,-1
 578 144 l 1,15,-1
 710 389 l 1,16,-1
 923 389 l 1,17,-1
 883 160 l 1,18,-1
 920 160 l 1,19,-1
 902 60 l 1,20,-1
 865 60 l 1,21,-1
 855 0 l 1,22,-1
 728 0 l 1,12,-1
756 160 m 1,23,-1
 780 295 l 1,24,-1
 763 295 l 1,25,-1
 696 160 l 1,26,-1
 756 160 l 1,23,-1
342 227 m 1,27,-1
 63 227 l 1,28,-1
 81 332 l 1,29,-1
 162 332 l 1,30,-1
 188 480 l 1,31,-1
 96 475 l 1,32,-1
 116 584 l 1,33,-1
 246 616 l 1,34,-1
 345 616 l 1,35,-1
 295 332 l 1,36,-1
 360 332 l 1,37,-1
 342 227 l 1,27,-1
EndSplineSet
EndChar

StartChar: onehalf
Encoding: 189 189 125
Width: 971
GlyphClass: 2
Flags: W
LayerCount: 2
Fore
SplineSet
347 -40 m 2,0,-1
 296 -40 l 1,1,-1
 565 640 l 2,2,3
 570 650 570 650 574 654 c 0,4,5
 585 665 585 665 608 665 c 2,6,-1
 659 665 l 1,7,-1
 390 -15 l 2,8,9
 385 -25 385 -25 381 -29 c 0,10,11
 370 -40 370 -40 347 -40 c 2,0,-1
642 381 m 1,12,13
 710 398 710 398 775.5 398 c 128,-1,14
 841 398 841 398 867 393 c 128,-1,15
 893 388 893 388 912.5 367.5 c 128,-1,16
 932 347 932 347 932 309 c 0,17,18
 932 300 932 300 928 270 c 1,19,20
 918 211 918 211 884 187 c 128,-1,21
 850 163 850 163 737 125 c 1,22,-1
 733 105 l 1,23,-1
 893 105 l 1,24,-1
 875 0 l 1,25,-1
 569 0 l 1,26,-1
 583 82 l 1,27,28
 592 128 592 128 605.5 144 c 128,-1,29
 619 160 619 160 625 168 c 128,-1,30
 631 176 631 176 650.5 186.5 c 128,-1,31
 670 197 670 197 677 201 c 128,-1,32
 684 205 684 205 712 217 c 128,-1,33
 740 229 740 229 749 233 c 2,34,-1
 789 251 l 1,35,-1
 795 286 l 1,36,37
 774 288 774 288 741 288 c 128,-1,38
 708 288 708 288 641 273 c 1,39,-1
 642 381 l 1,12,13
322 227 m 1,40,-1
 43 227 l 1,41,-1
 61 332 l 1,42,-1
 142 332 l 1,43,-1
 168 480 l 1,44,-1
 76 475 l 1,45,-1
 96 584 l 1,46,-1
 226 616 l 1,47,-1
 325 616 l 1,48,-1
 275 332 l 1,49,-1
 340 332 l 1,50,-1
 322 227 l 1,40,-1
EndSplineSet
EndChar

StartChar: threequarters
Encoding: 190 190 126
Width: 971
GlyphClass: 2
Flags: W
LayerCount: 2
Fore
SplineSet
358 -40 m 2,0,-1
 307 -40 l 1,1,-1
 576 640 l 2,2,3
 581 650 581 650 585 654 c 0,4,5
 596 665 596 665 619 665 c 2,6,-1
 670 665 l 1,7,-1
 401 -15 l 2,8,9
 396 -25 396 -25 392 -29 c 0,10,11
 381 -40 381 -40 358 -40 c 2,0,-1
728 0 m 1,12,-1
 738 60 l 1,13,-1
 563 60 l 1,14,-1
 578 144 l 1,15,-1
 710 389 l 1,16,-1
 923 389 l 1,17,-1
 883 160 l 1,18,-1
 920 160 l 1,19,-1
 902 60 l 1,20,-1
 865 60 l 1,21,-1
 855 0 l 1,22,-1
 728 0 l 1,12,-1
756 160 m 1,23,-1
 780 295 l 1,24,-1
 763 295 l 1,25,-1
 696 160 l 1,26,-1
 756 160 l 1,23,-1
251 512 m 1,27,28
 229 515 229 515 190.5 515 c 128,-1,29
 152 515 152 515 100 500 c 1,30,-1
 101 608 l 1,31,32
 169 625 169 625 242 625 c 128,-1,33
 315 625 315 625 348.5 610 c 128,-1,34
 382 595 382 595 382 549 c 0,35,36
 382 472 382 472 324 434 c 1,37,38
 359 413 359 413 359 370 c 0,39,40
 359 362 359 362 355 336 c 128,-1,41
 351 310 351 310 337 286 c 128,-1,42
 323 262 323 262 306.5 249 c 128,-1,43
 290 236 290 236 264 229 c 0,44,45
 224 218 224 218 158.5 218 c 128,-1,46
 93 218 93 218 29 235 c 1,47,-1
 66 344 l 1,48,49
 128 328 128 328 165 328 c 128,-1,50
 202 328 202 328 219 330 c 1,51,-1
 227 376 l 1,52,-1
 131 387 l 1,53,-1
 143 456 l 1,54,-1
 243 468 l 1,55,-1
 251 512 l 1,27,28
EndSplineSet
EndChar

StartChar: questiondown
Encoding: 191 191 127
Width: 610
GlyphClass: 2
Flags: W
LayerCount: 2
Fore
SplineSet
112 49 m 1,0,-1
 106 4 l 1,1,-1
 -318 49 l 1,2,-1
 112 49 l 1,0,-1
328 292 m 1,3,-1
 -90 337 l 1,4,-1
 341 337 l 1,5,-1
 328 292 l 1,3,-1
332 433 m 1,6,-1
 332 412 l 2,7,8
 332 395 332 395 334 388 c 1,9,-1
 -90 433 l 1,10,-1
 332 433 l 1,6,-1
161 145 m 1,11,12
 142 125 142 125 131 102 c 1,13,-1
 -271 145 l 1,14,-1
 161 145 l 1,11,12
387 529 m 1,15,16
 356 514 356 514 345 487 c 1,17,-1
 -43 529 l 1,18,-1
 387 529 l 1,15,16
310 230 m 1,19,20
 267 215 267 215 242 202 c 1,21,-1
 -119 241 l 1,22,-1
 313 241 l 1,23,-1
 310 230 l 1,19,20
330 21 m 1,24,25
 354 19 354 19 386 19 c 128,-1,26
 418 19 418 19 471.5 25.5 c 128,-1,27
 525 32 525 32 546 39 c 1,28,-1
 544 -104 l 1,29,30
 435 -132 435 -132 341 -132 c 0,31,32
 249 -132 249 -132 208 -117 c 128,-1,33
 167 -102 167 -102 151.5 -77.5 c 128,-1,34
 136 -53 136 -53 136 -15 c 0,35,36
 136 70 136 70 181.5 121.5 c 128,-1,37
 227 173 227 173 334 206 c 1,38,-1
 373 333 l 1,39,-1
 535 333 l 1,40,-1
 515 145 l 2,41,42
 513 127 513 127 500 117 c 128,-1,43
 487 107 487 107 444 92 c 2,44,-1
 336 55 l 1,45,-1
 330 21 l 1,24,25
580 464 m 0,46,47
 580 408 580 408 549.5 383.5 c 128,-1,48
 519 359 519 359 461.5 359 c 128,-1,49
 404 359 404 359 383 371.5 c 128,-1,50
 362 384 362 384 362 412 c 0,51,52
 362 468 362 468 389 491.5 c 128,-1,53
 416 515 416 515 477 515 c 128,-1,54
 538 515 538 515 559 503.5 c 128,-1,55
 580 492 580 492 580 464 c 0,46,47
EndSplineSet
EndChar

StartChar: Agrave
Encoding: 192 192 128
Width: 851
GlyphClass: 2
Flags: W
LayerCount: 2
Fore
SplineSet
392 0 m 1,0,-1
 192 0 l 1,1,-1
 455 625 l 1,2,-1
 749 625 l 1,3,-1
 793 0 l 1,4,-1
 592 0 l 1,5,-1
 588 99 l 1,6,-1
 431 99 l 1,7,-1
 392 0 l 1,0,-1
573 258 m 1,8,-1
 573 433 l 1,9,-1
 563 433 l 1,10,-1
 493 258 l 1,11,-1
 573 258 l 1,8,-1
160 4 m 1,12,-1
 -250 48 l 1,13,-1
 179 48 l 1,14,-1
 160 4 l 1,12,-1
201 101 m 1,15,-1
 -209 145 l 1,16,-1
 220 145 l 1,17,-1
 201 101 l 1,15,-1
242 197 m 1,18,-1
 -168 241 l 1,19,-1
 260 241 l 1,20,-1
 242 197 l 1,18,-1
282 293 m 1,21,-1
 -127 337 l 1,22,-1
 301 337 l 1,23,-1
 282 293 l 1,21,-1
323 389 m 1,24,-1
 -86 433 l 1,25,-1
 341 433 l 1,26,-1
 323 389 l 1,24,-1
404 582 m 1,27,-1
 -4 625 l 1,28,-1
 422 625 l 1,29,-1
 404 582 l 1,27,-1
363 486 m 1,30,-1
 -45 529 l 1,31,-1
 381 529 l 1,32,-1
 363 486 l 1,30,-1
404 582 m 1,33,-1
 422 625 l 1,34,-1
 -4 625 l 1,35,-1
 404 582 l 1,33,-1
485 765 m 2,36,37
 481 769 481 769 481 776 c 128,-1,38
 481 783 481 783 490 794 c 2,39,-1
 553 868 l 2,40,41
 562 879 562 879 569 879 c 128,-1,42
 576 879 576 879 582 875 c 2,43,-1
 771 736 l 1,44,-1
 730 679 l 1,45,-1
 556 714 l 2,46,47
 540 717 540 717 530 726 c 2,48,-1
 485 765 l 2,36,37
455 794 m 1,49,-1
 60 833 l 1,50,-1
 484 833 l 1,51,52
 481 829 481 829 474 822 c 0,53,54
 461 807 461 807 455 794 c 1,49,-1
498 713 m 1,55,-1
 90 752 l 1,56,-1
 457 752 l 1,57,58
 463 743 463 743 498 713 c 1,55,-1
EndSplineSet
Position2: "'cpsp' Capital Spacing in Latin lookup 0 subtable" dx=0 dy=0 dh=15 dv=0
EndChar

StartChar: Aacute
Encoding: 193 193 129
Width: 851
GlyphClass: 2
Flags: W
LayerCount: 2
Fore
SplineSet
392 0 m 1,0,-1
 192 0 l 1,1,-1
 455 625 l 1,2,-1
 749 625 l 1,3,-1
 793 0 l 1,4,-1
 592 0 l 1,5,-1
 588 99 l 1,6,-1
 431 99 l 1,7,-1
 392 0 l 1,0,-1
573 258 m 1,8,-1
 573 433 l 1,9,-1
 563 433 l 1,10,-1
 493 258 l 1,11,-1
 573 258 l 1,8,-1
160 4 m 1,12,-1
 -250 48 l 1,13,-1
 179 48 l 1,14,-1
 160 4 l 1,12,-1
201 101 m 1,15,-1
 -209 145 l 1,16,-1
 220 145 l 1,17,-1
 201 101 l 1,15,-1
242 197 m 1,18,-1
 -168 241 l 1,19,-1
 260 241 l 1,20,-1
 242 197 l 1,18,-1
282 293 m 1,21,-1
 -127 337 l 1,22,-1
 301 337 l 1,23,-1
 282 293 l 1,21,-1
323 389 m 1,24,-1
 -86 433 l 1,25,-1
 341 433 l 1,26,-1
 323 389 l 1,24,-1
404 582 m 1,27,-1
 -4 625 l 1,28,-1
 422 625 l 1,29,-1
 404 582 l 1,27,-1
363 486 m 1,30,-1
 -45 529 l 1,31,-1
 381 529 l 1,32,-1
 363 486 l 1,30,-1
404 582 m 1,33,-1
 422 625 l 1,34,-1
 -4 625 l 1,35,-1
 404 582 l 1,33,-1
681 875 m 2,36,37
 687 879 687 879 694 879 c 128,-1,38
 701 879 701 879 710 868 c 2,39,-1
 773 794 l 2,40,41
 782 784 782 784 782 777.5 c 128,-1,42
 782 771 782 771 779.5 767.5 c 128,-1,43
 777 764 777 764 733 726 c 0,44,45
 723 717 723 717 707 714 c 2,46,-1
 533 679 l 1,47,-1
 492 736 l 1,48,-1
 681 875 l 2,36,37
519 794 m 1,49,-1
 159 833 l 1,50,-1
 572 833 l 1,51,-1
 519 794 l 1,49,-1
408 713 m 1,52,-1
 48 752 l 1,53,-1
 461 752 l 1,54,-1
 408 713 l 1,52,-1
EndSplineSet
Position2: "'cpsp' Capital Spacing in Latin lookup 0 subtable" dx=0 dy=0 dh=15 dv=0
EndChar

StartChar: Acircumflex
Encoding: 194 194 130
Width: 851
GlyphClass: 2
Flags: W
LayerCount: 2
Fore
SplineSet
392 0 m 1,0,-1
 192 0 l 1,1,-1
 455 625 l 1,2,-1
 749 625 l 1,3,-1
 793 0 l 1,4,-1
 592 0 l 1,5,-1
 588 99 l 1,6,-1
 431 99 l 1,7,-1
 392 0 l 1,0,-1
573 258 m 1,8,-1
 573 433 l 1,9,-1
 563 433 l 1,10,-1
 493 258 l 1,11,-1
 573 258 l 1,8,-1
160 4 m 1,12,-1
 -250 48 l 1,13,-1
 179 48 l 1,14,-1
 160 4 l 1,12,-1
201 101 m 1,15,-1
 -209 145 l 1,16,-1
 220 145 l 1,17,-1
 201 101 l 1,15,-1
242 197 m 1,18,-1
 -168 241 l 1,19,-1
 260 241 l 1,20,-1
 242 197 l 1,18,-1
282 293 m 1,21,-1
 -127 337 l 1,22,-1
 301 337 l 1,23,-1
 282 293 l 1,21,-1
323 389 m 1,24,-1
 -86 433 l 1,25,-1
 341 433 l 1,26,-1
 323 389 l 1,24,-1
404 582 m 1,27,-1
 -4 625 l 1,28,-1
 422 625 l 1,29,-1
 404 582 l 1,27,-1
363 486 m 1,30,-1
 -45 529 l 1,31,-1
 381 529 l 1,32,-1
 363 486 l 1,30,-1
404 582 m 1,33,-1
 422 625 l 1,34,-1
 -4 625 l 1,35,-1
 404 582 l 1,33,-1
621 880 m 2,36,-1
 666 880 l 2,37,38
 674 880 674 880 679 871 c 2,39,-1
 762 726 l 1,40,-1
 696 677 l 1,41,-1
 618 740 l 1,42,-1
 519 677 l 1,43,-1
 471 726 l 1,44,-1
 603 871 l 2,45,46
 610 880 610 880 621 880 c 2,36,-1
492 794 m 1,47,-1
 169 833 l 1,48,-1
 527 833 l 1,49,-1
 492 794 l 1,47,-1
418 713 m 1,50,-1
 88 752 l 1,51,-1
 454 752 l 1,52,-1
 418 713 l 1,50,-1
EndSplineSet
Position2: "'cpsp' Capital Spacing in Latin lookup 0 subtable" dx=0 dy=0 dh=15 dv=0
EndChar

StartChar: Atilde
Encoding: 195 195 131
Width: 851
GlyphClass: 2
Flags: W
LayerCount: 2
Fore
SplineSet
392 0 m 1,0,-1
 192 0 l 1,1,-1
 455 625 l 1,2,-1
 749 625 l 1,3,-1
 793 0 l 1,4,-1
 592 0 l 1,5,-1
 588 99 l 1,6,-1
 431 99 l 1,7,-1
 392 0 l 1,0,-1
573 258 m 1,8,-1
 573 433 l 1,9,-1
 563 433 l 1,10,-1
 493 258 l 1,11,-1
 573 258 l 1,8,-1
160 4 m 1,12,-1
 -250 48 l 1,13,-1
 179 48 l 1,14,-1
 160 4 l 1,12,-1
201 101 m 1,15,-1
 -209 145 l 1,16,-1
 220 145 l 1,17,-1
 201 101 l 1,15,-1
242 197 m 1,18,-1
 -168 241 l 1,19,-1
 260 241 l 1,20,-1
 242 197 l 1,18,-1
282 293 m 1,21,-1
 -127 337 l 1,22,-1
 301 337 l 1,23,-1
 282 293 l 1,21,-1
323 389 m 1,24,-1
 -86 433 l 1,25,-1
 341 433 l 1,26,-1
 323 389 l 1,24,-1
404 582 m 1,27,-1
 -4 625 l 1,28,-1
 422 625 l 1,29,-1
 404 582 l 1,27,-1
363 486 m 1,30,-1
 -45 529 l 1,31,-1
 381 529 l 1,32,-1
 363 486 l 1,30,-1
404 582 m 1,33,-1
 422 625 l 1,34,-1
 -4 625 l 1,35,-1
 404 582 l 1,33,-1
680 816 m 1,36,-1
 766 856 l 1,37,-1
 799 775 l 1,38,39
 670 694 670 694 655.5 688.5 c 128,-1,40
 641 683 641 683 628.5 683 c 128,-1,41
 616 683 616 683 608 685 c 128,-1,42
 600 687 600 687 592 692.5 c 128,-1,43
 584 698 584 698 579 702 c 0,44,45
 571 707 571 707 550 728 c 1,46,-1
 465 688 l 1,47,-1
 431 769 l 1,48,49
 560 850 560 850 574.5 855.5 c 128,-1,50
 589 861 589 861 601.5 861 c 128,-1,51
 614 861 614 861 622 859 c 128,-1,52
 630 857 630 857 638 851.5 c 128,-1,53
 646 846 646 846 651 842 c 0,54,55
 659 837 659 837 680 816 c 1,36,-1
477 833 m 1,56,-1
 405 787 l 1,57,-1
 111 833 l 1,58,-1
 477 833 l 1,56,-1
405 754 m 1,59,-1
 424 708 l 1,60,-1
 111 754 l 1,61,-1
 405 754 l 1,59,-1
EndSplineSet
Position2: "'cpsp' Capital Spacing in Latin lookup 0 subtable" dx=0 dy=0 dh=15 dv=0
EndChar

StartChar: Adieresis
Encoding: 196 196 132
Width: 851
GlyphClass: 2
Flags: W
LayerCount: 2
Fore
SplineSet
392 0 m 1,0,-1
 192 0 l 1,1,-1
 455 625 l 1,2,-1
 749 625 l 1,3,-1
 793 0 l 1,4,-1
 592 0 l 1,5,-1
 588 99 l 1,6,-1
 431 99 l 1,7,-1
 392 0 l 1,0,-1
573 258 m 1,8,-1
 573 433 l 1,9,-1
 563 433 l 1,10,-1
 493 258 l 1,11,-1
 573 258 l 1,8,-1
160 4 m 1,12,-1
 -250 48 l 1,13,-1
 179 48 l 1,14,-1
 160 4 l 1,12,-1
201 101 m 1,15,-1
 -209 145 l 1,16,-1
 220 145 l 1,17,-1
 201 101 l 1,15,-1
242 197 m 1,18,-1
 -168 241 l 1,19,-1
 260 241 l 1,20,-1
 242 197 l 1,18,-1
282 293 m 1,21,-1
 -127 337 l 1,22,-1
 301 337 l 1,23,-1
 282 293 l 1,21,-1
323 389 m 1,24,-1
 -86 433 l 1,25,-1
 341 433 l 1,26,-1
 323 389 l 1,24,-1
404 582 m 1,27,-1
 -4 625 l 1,28,-1
 422 625 l 1,29,-1
 404 582 l 1,27,-1
363 486 m 1,30,-1
 -45 529 l 1,31,-1
 381 529 l 1,32,-1
 363 486 l 1,30,-1
404 582 m 1,33,-1
 422 625 l 1,34,-1
 -4 625 l 1,35,-1
 404 582 l 1,33,-1
656.5 823.5 m 128,-1,37
 677 848 677 848 719.5 848 c 128,-1,38
 762 848 762 848 776.5 837 c 128,-1,39
 791 826 791 826 791 800 c 0,40,41
 791 741 791 741 770.5 716.5 c 128,-1,42
 750 692 750 692 707.5 692 c 128,-1,43
 665 692 665 692 650.5 703 c 128,-1,44
 636 714 636 714 636 740 c 0,45,36
 636 799 636 799 656.5 823.5 c 128,-1,37
448.5 823.5 m 128,-1,47
 469 848 469 848 511.5 848 c 128,-1,48
 554 848 554 848 568.5 837 c 128,-1,49
 583 826 583 826 583 800 c 0,50,51
 583 741 583 741 562 716.5 c 128,-1,52
 541 692 541 692 499 692 c 128,-1,53
 457 692 457 692 442.5 703 c 128,-1,54
 428 714 428 714 428 740 c 0,55,46
 428 799 428 799 448.5 823.5 c 128,-1,47
415 833 m 1,56,57
 406 816 406 816 401 787 c 1,58,-1
 99 833 l 1,59,-1
 415 833 l 1,56,57
398 740 m 2,60,61
 398 722 398 722 401 708 c 1,62,-1
 99 754 l 1,63,-1
 398 754 l 1,64,-1
 398 740 l 2,60,61
EndSplineSet
Position2: "'cpsp' Capital Spacing in Latin lookup 0 subtable" dx=0 dy=0 dh=15 dv=0
EndChar

StartChar: Aring
Encoding: 197 197 133
Width: 851
GlyphClass: 2
Flags: W
LayerCount: 2
Fore
SplineSet
392 0 m 1,0,-1
 192 0 l 1,1,-1
 455 625 l 1,2,-1
 749 625 l 1,3,-1
 793 0 l 1,4,-1
 592 0 l 1,5,-1
 588 99 l 1,6,-1
 431 99 l 1,7,-1
 392 0 l 1,0,-1
573 258 m 1,8,-1
 573 433 l 1,9,-1
 563 433 l 1,10,-1
 493 258 l 1,11,-1
 573 258 l 1,8,-1
160 4 m 1,12,-1
 -250 48 l 1,13,-1
 179 48 l 1,14,-1
 160 4 l 1,12,-1
201 101 m 1,15,-1
 -209 145 l 1,16,-1
 220 145 l 1,17,-1
 201 101 l 1,15,-1
242 197 m 1,18,-1
 -168 241 l 1,19,-1
 260 241 l 1,20,-1
 242 197 l 1,18,-1
282 293 m 1,21,-1
 -127 337 l 1,22,-1
 301 337 l 1,23,-1
 282 293 l 1,21,-1
323 389 m 1,24,-1
 -86 433 l 1,25,-1
 341 433 l 1,26,-1
 323 389 l 1,24,-1
404 582 m 1,27,-1
 -4 625 l 1,28,-1
 422 625 l 1,29,-1
 404 582 l 1,27,-1
363 486 m 1,30,-1
 -45 529 l 1,31,-1
 381 529 l 1,32,-1
 363 486 l 1,30,-1
404 582 m 1,33,-1
 422 625 l 1,34,-1
 -4 625 l 1,35,-1
 404 582 l 1,33,-1
616 736 m 2,36,37
 643 736 643 736 650.5 743 c 128,-1,38
 658 750 658 750 660 762 c 2,39,-1
 672 829 l 1,40,-1
 635 829 l 2,41,42
 606 829 606 829 598 822 c 128,-1,43
 590 815 590 815 588 804 c 2,44,-1
 576 736 l 1,45,-1
 616 736 l 2,36,37
645 898 m 0,46,47
 738 898 738 898 738 818 c 0,48,49
 738 744 738 744 703 705.5 c 128,-1,50
 668 667 668 667 604 667 c 0,51,52
 511 667 511 667 511 747 c 0,53,54
 511 821 511 821 546 859.5 c 128,-1,55
 581 898 581 898 645 898 c 0,46,47
484 787 m 1,56,-1
 186 833 l 1,57,-1
 494 833 l 1,58,59
 486 807 486 807 484 787 c 1,56,-1
481 747 m 2,60,61
 481 726 481 726 486 708 c 1,62,-1
 188 754 l 1,63,-1
 481 754 l 1,64,-1
 481 747 l 2,60,61
EndSplineSet
Position2: "'cpsp' Capital Spacing in Latin lookup 0 subtable" dx=0 dy=0 dh=15 dv=0
EndChar

StartChar: AE
Encoding: 198 198 134
Width: 1010
GlyphClass: 2
Flags: W
LayerCount: 2
Fore
SplineSet
392 0 m 1,0,-1
 192 0 l 1,1,-1
 455 625 l 1,2,-1
 1016 625 l 1,3,-1
 964 465 l 1,4,-1
 760 465 l 1,5,-1
 766 381 l 1,6,-1
 935 381 l 1,7,-1
 909 236 l 1,8,-1
 776 236 l 1,9,-1
 782 160 l 1,10,-1
 982 160 l 1,11,-1
 954 0 l 1,12,-1
 592 0 l 1,13,-1
 588 99 l 1,14,-1
 431 99 l 1,15,-1
 392 0 l 1,0,-1
160 4 m 1,16,-1
 -250 48 l 1,17,-1
 179 48 l 1,18,-1
 160 4 l 1,16,-1
201 101 m 1,19,-1
 -209 145 l 1,20,-1
 220 145 l 1,21,-1
 201 101 l 1,19,-1
242 197 m 1,22,-1
 -168 241 l 1,23,-1
 260 241 l 1,24,-1
 242 197 l 1,22,-1
282 293 m 1,25,-1
 -127 337 l 1,26,-1
 301 337 l 1,27,-1
 282 293 l 1,25,-1
323 389 m 1,28,-1
 -86 433 l 1,29,-1
 341 433 l 1,30,-1
 323 389 l 1,28,-1
404 582 m 1,31,-1
 -4 625 l 1,32,-1
 422 625 l 1,33,-1
 404 582 l 1,31,-1
363 486 m 1,34,-1
 -45 529 l 1,35,-1
 381 529 l 1,36,-1
 363 486 l 1,34,-1
573 258 m 1,37,-1
 573 433 l 1,38,-1
 563 433 l 1,39,-1
 493 258 l 1,40,-1
 573 258 l 1,37,-1
EndSplineSet
Position2: "'cpsp' Capital Spacing in Latin lookup 0 subtable" dx=0 dy=0 dh=15 dv=0
EndChar

StartChar: Ccedilla
Encoding: 199 199 135
Width: 683
GlyphClass: 2
Flags: W
LayerCount: 2
Fore
SplineSet
192 317 m 2,0,1
 190 309 190 309 188 295 c 1,2,-1
 -205 337 l 1,3,-1
 195 337 l 1,4,-1
 192 317 l 2,0,1
181 241 m 1,5,6
 178 218 178 218 178 199 c 1,7,-1
 -216 241 l 1,8,-1
 181 241 l 1,5,6
219 433 m 1,9,-1
 207 392 l 1,10,-1
 -181 433 l 1,11,-1
 219 433 l 1,9,-1
179 145 m 1,12,13
 183 117 183 117 186 103 c 1,14,-1
 -203 145 l 1,15,-1
 179 145 l 1,12,13
260 529 m 1,16,17
 246 503 246 503 240 489 c 1,18,-1
 -134 529 l 1,19,-1
 260 529 l 1,16,17
209 48 m 1,20,21
 222 25 222 25 239 11 c 1,22,-1
 -107 48 l 1,23,-1
 209 48 l 1,20,21
355 625 m 1,24,25
 326 607 326 607 310 592 c 1,26,-1
 4 625 l 1,27,-1
 355 625 l 1,24,25
443 -15 m 0,28,29
 541 -15 541 -15 605 11 c 1,30,-1
 621 179 l 1,31,32
 554 155 554 155 473 155 c 0,33,34
 435 155 435 155 399 163 c 1,35,-1
 445 425 l 2,36,37
 450 455 450 455 472 465 c 128,-1,38
 494 475 494 475 545.5 475 c 128,-1,39
 597 475 597 475 656 461 c 1,40,-1
 712 614 l 1,41,42
 690 625 690 625 642.5 632.5 c 128,-1,43
 595 640 595 640 558 640 c 0,44,45
 399 640 399 640 325.5 562 c 128,-1,46
 252 484 252 484 222 312 c 0,47,48
 208 228 208 228 208 185 c 0,49,50
 208 83 208 83 262.5 34 c 128,-1,51
 317 -15 317 -15 443 -15 c 0,28,29
485 -64 m 0,52,53
 485 -105 485 -105 453 -135 c 128,-1,54
 421 -165 421 -165 367.5 -165 c 128,-1,55
 314 -165 314 -165 268 -146 c 1,56,-1
 294 -58 l 1,57,-1
 325 -58 l 2,58,59
 345 -58 345 -58 351.5 -52.5 c 128,-1,60
 358 -47 358 -47 362 -26 c 2,61,-1
 370 21 l 1,62,-1
 428 21 l 1,63,64
 485 -3 485 -3 485 -64 c 0,52,53
253 -89 m 1,65,-1
 71 -58 l 1,66,-1
 262 -58 l 1,67,-1
 253 -89 l 1,65,-1
232 -161 m 1,68,-1
 58 -130 l 1,69,-1
 241 -130 l 1,70,-1
 232 -161 l 1,68,-1
EndSplineSet
Position2: "'cpsp' Capital Spacing in Latin lookup 0 subtable" dx=0 dy=0 dh=15 dv=0
EndChar

StartChar: Egrave
Encoding: 200 200 136
Width: 726
GlyphClass: 2
Flags: W
LayerCount: 2
Fore
SplineSet
625 236 m 1,0,-1
 435 236 l 1,1,-1
 422 160 l 1,2,-1
 655 160 l 1,3,-1
 627 0 l 1,4,-1
 204 0 l 1,5,-1
 314 625 l 1,6,-1
 732 625 l 1,7,-1
 680 465 l 1,8,-1
 475 465 l 1,9,-1
 461 381 l 1,10,-1
 651 381 l 1,11,-1
 625 236 l 1,0,-1
174 3 m 1,12,-1
 -250 48 l 1,13,-1
 182 48 l 1,14,-1
 174 3 l 1,12,-1
208 196 m 1,15,-1
 -216 241 l 1,16,-1
 216 241 l 1,17,-1
 208 196 l 1,15,-1
225 292 m 1,18,-1
 -199 337 l 1,19,-1
 233 337 l 1,20,-1
 225 292 l 1,18,-1
242 388 m 1,21,-1
 -182 433 l 1,22,-1
 250 433 l 1,23,-1
 242 388 l 1,21,-1
259 484 m 1,24,-1
 -165 529 l 1,25,-1
 266 529 l 1,26,-1
 259 484 l 1,24,-1
191 100 m 1,27,-1
 -233 145 l 1,28,-1
 199 145 l 1,29,-1
 191 100 l 1,27,-1
275 580 m 1,30,-1
 -148 625 l 1,31,-1
 283 625 l 1,32,-1
 275 580 l 1,30,-1
383 765 m 2,33,34
 379 769 379 769 379 776 c 128,-1,35
 379 783 379 783 388 794 c 2,36,-1
 451 868 l 2,37,38
 460 879 460 879 467 879 c 128,-1,39
 474 879 474 879 480 875 c 2,40,-1
 669 736 l 1,41,-1
 628 679 l 1,42,-1
 454 714 l 2,43,44
 438 717 438 717 428 726 c 2,45,-1
 383 765 l 2,33,34
353 794 m 1,46,-1
 -42 833 l 1,47,-1
 382 833 l 1,48,49
 379 829 379 829 372 822 c 0,50,51
 359 807 359 807 353 794 c 1,46,-1
396 713 m 1,52,-1
 -12 752 l 1,53,-1
 355 752 l 1,54,55
 361 743 361 743 396 713 c 1,52,-1
EndSplineSet
Position2: "'cpsp' Capital Spacing in Latin lookup 0 subtable" dx=0 dy=0 dh=15 dv=0
EndChar

StartChar: Eacute
Encoding: 201 201 137
Width: 726
GlyphClass: 2
Flags: W
LayerCount: 2
Fore
SplineSet
625 236 m 1,0,-1
 435 236 l 1,1,-1
 422 160 l 1,2,-1
 655 160 l 1,3,-1
 627 0 l 1,4,-1
 204 0 l 1,5,-1
 314 625 l 1,6,-1
 732 625 l 1,7,-1
 680 465 l 1,8,-1
 475 465 l 1,9,-1
 461 381 l 1,10,-1
 651 381 l 1,11,-1
 625 236 l 1,0,-1
174 3 m 1,12,-1
 -250 48 l 1,13,-1
 182 48 l 1,14,-1
 174 3 l 1,12,-1
208 196 m 1,15,-1
 -216 241 l 1,16,-1
 216 241 l 1,17,-1
 208 196 l 1,15,-1
225 292 m 1,18,-1
 -199 337 l 1,19,-1
 233 337 l 1,20,-1
 225 292 l 1,18,-1
242 388 m 1,21,-1
 -182 433 l 1,22,-1
 250 433 l 1,23,-1
 242 388 l 1,21,-1
259 484 m 1,24,-1
 -165 529 l 1,25,-1
 266 529 l 1,26,-1
 259 484 l 1,24,-1
191 100 m 1,27,-1
 -233 145 l 1,28,-1
 199 145 l 1,29,-1
 191 100 l 1,27,-1
275 580 m 1,30,-1
 -148 625 l 1,31,-1
 283 625 l 1,32,-1
 275 580 l 1,30,-1
597 875 m 2,33,34
 603 879 603 879 610 879 c 128,-1,35
 617 879 617 879 626 868 c 2,36,-1
 689 794 l 2,37,38
 698 784 698 784 698 777.5 c 128,-1,39
 698 771 698 771 695.5 767.5 c 128,-1,40
 693 764 693 764 649 726 c 0,41,42
 639 717 639 717 623 714 c 2,43,-1
 449 679 l 1,44,-1
 408 736 l 1,45,-1
 597 875 l 2,33,34
435 794 m 1,46,-1
 75 833 l 1,47,-1
 488 833 l 1,48,-1
 435 794 l 1,46,-1
324 713 m 1,49,-1
 -36 752 l 1,50,-1
 377 752 l 1,51,-1
 324 713 l 1,49,-1
EndSplineSet
Position2: "'cpsp' Capital Spacing in Latin lookup 0 subtable" dx=0 dy=0 dh=15 dv=0
EndChar

StartChar: Ecircumflex
Encoding: 202 202 138
Width: 726
GlyphClass: 2
Flags: W
LayerCount: 2
Fore
SplineSet
625 236 m 1,0,-1
 435 236 l 1,1,-1
 422 160 l 1,2,-1
 655 160 l 1,3,-1
 627 0 l 1,4,-1
 204 0 l 1,5,-1
 314 625 l 1,6,-1
 732 625 l 1,7,-1
 680 465 l 1,8,-1
 475 465 l 1,9,-1
 461 381 l 1,10,-1
 651 381 l 1,11,-1
 625 236 l 1,0,-1
174 3 m 1,12,-1
 -250 48 l 1,13,-1
 182 48 l 1,14,-1
 174 3 l 1,12,-1
208 196 m 1,15,-1
 -216 241 l 1,16,-1
 216 241 l 1,17,-1
 208 196 l 1,15,-1
225 292 m 1,18,-1
 -199 337 l 1,19,-1
 233 337 l 1,20,-1
 225 292 l 1,18,-1
242 388 m 1,21,-1
 -182 433 l 1,22,-1
 250 433 l 1,23,-1
 242 388 l 1,21,-1
259 484 m 1,24,-1
 -165 529 l 1,25,-1
 266 529 l 1,26,-1
 259 484 l 1,24,-1
191 100 m 1,27,-1
 -233 145 l 1,28,-1
 199 145 l 1,29,-1
 191 100 l 1,27,-1
275 580 m 1,30,-1
 -148 625 l 1,31,-1
 283 625 l 1,32,-1
 275 580 l 1,30,-1
538 880 m 2,33,-1
 583 880 l 2,34,35
 591 880 591 880 596 871 c 2,36,-1
 679 726 l 1,37,-1
 613 677 l 1,38,-1
 535 740 l 1,39,-1
 436 677 l 1,40,-1
 388 726 l 1,41,-1
 520 871 l 2,42,43
 528 880 528 880 538 880 c 2,33,-1
409 794 m 1,44,-1
 86 833 l 1,45,-1
 444 833 l 1,46,-1
 409 794 l 1,44,-1
335 713 m 1,47,-1
 5 752 l 1,48,-1
 371 752 l 1,49,-1
 335 713 l 1,47,-1
EndSplineSet
Position2: "'cpsp' Capital Spacing in Latin lookup 0 subtable" dx=0 dy=0 dh=15 dv=0
EndChar

StartChar: Edieresis
Encoding: 203 203 139
Width: 726
GlyphClass: 2
Flags: W
LayerCount: 2
Fore
SplineSet
625 236 m 1,0,-1
 435 236 l 1,1,-1
 422 160 l 1,2,-1
 655 160 l 1,3,-1
 627 0 l 1,4,-1
 204 0 l 1,5,-1
 314 625 l 1,6,-1
 732 625 l 1,7,-1
 680 465 l 1,8,-1
 475 465 l 1,9,-1
 461 381 l 1,10,-1
 651 381 l 1,11,-1
 625 236 l 1,0,-1
174 3 m 1,12,-1
 -250 48 l 1,13,-1
 182 48 l 1,14,-1
 174 3 l 1,12,-1
208 196 m 1,15,-1
 -216 241 l 1,16,-1
 216 241 l 1,17,-1
 208 196 l 1,15,-1
225 292 m 1,18,-1
 -199 337 l 1,19,-1
 233 337 l 1,20,-1
 225 292 l 1,18,-1
242 388 m 1,21,-1
 -182 433 l 1,22,-1
 250 433 l 1,23,-1
 242 388 l 1,21,-1
259 484 m 1,24,-1
 -165 529 l 1,25,-1
 266 529 l 1,26,-1
 259 484 l 1,24,-1
191 100 m 1,27,-1
 -233 145 l 1,28,-1
 199 145 l 1,29,-1
 191 100 l 1,27,-1
275 580 m 1,30,-1
 -148 625 l 1,31,-1
 283 625 l 1,32,-1
 275 580 l 1,30,-1
594.5 823.5 m 128,-1,34
 615 848 615 848 657.5 848 c 128,-1,35
 700 848 700 848 714.5 837 c 128,-1,36
 729 826 729 826 729 800 c 0,37,38
 729 741 729 741 708.5 716.5 c 128,-1,39
 688 692 688 692 645.5 692 c 128,-1,40
 603 692 603 692 588.5 703 c 128,-1,41
 574 714 574 714 574 740 c 0,42,33
 574 799 574 799 594.5 823.5 c 128,-1,34
386.5 823.5 m 128,-1,44
 407 848 407 848 449.5 848 c 128,-1,45
 492 848 492 848 506.5 837 c 128,-1,46
 521 826 521 826 521 800 c 0,47,48
 521 741 521 741 500 716.5 c 128,-1,49
 479 692 479 692 437 692 c 128,-1,50
 395 692 395 692 380.5 703 c 128,-1,51
 366 714 366 714 366 740 c 0,52,43
 366 799 366 799 386.5 823.5 c 128,-1,44
353 833 m 1,53,54
 344 816 344 816 339 787 c 1,55,-1
 37 833 l 1,56,-1
 353 833 l 1,53,54
336 740 m 2,57,58
 336 722 336 722 339 708 c 1,59,-1
 37 754 l 1,60,-1
 336 754 l 1,61,-1
 336 740 l 2,57,58
EndSplineSet
Position2: "'cpsp' Capital Spacing in Latin lookup 0 subtable" dx=0 dy=0 dh=15 dv=0
EndChar

StartChar: Igrave
Encoding: 204 204 140
Width: 504
GlyphClass: 2
Flags: W
LayerCount: 2
Fore
SplineSet
204 0 m 1,0,-1
 314 625 l 1,1,-1
 504 625 l 1,2,-1
 394 0 l 1,3,-1
 204 0 l 1,0,-1
174 3 m 1,4,-1
 -250 48 l 1,5,-1
 182 48 l 1,6,-1
 174 3 l 1,4,-1
208 196 m 1,7,-1
 -216 241 l 1,8,-1
 216 241 l 1,9,-1
 208 196 l 1,7,-1
225 292 m 1,10,-1
 -199 337 l 1,11,-1
 233 337 l 1,12,-1
 225 292 l 1,10,-1
242 388 m 1,13,-1
 -182 433 l 1,14,-1
 250 433 l 1,15,-1
 242 388 l 1,13,-1
259 484 m 1,16,-1
 -165 529 l 1,17,-1
 266 529 l 1,18,-1
 259 484 l 1,16,-1
191 100 m 1,19,-1
 -233 145 l 1,20,-1
 199 145 l 1,21,-1
 191 100 l 1,19,-1
275 580 m 1,22,-1
 -148 625 l 1,23,-1
 283 625 l 1,24,-1
 275 580 l 1,22,-1
272 765 m 2,25,26
 268 769 268 769 268 776 c 128,-1,27
 268 783 268 783 277 794 c 2,28,-1
 340 868 l 2,29,30
 349 879 349 879 356 879 c 128,-1,31
 363 879 363 879 369 875 c 2,32,-1
 558 736 l 1,33,-1
 517 679 l 1,34,-1
 343 714 l 2,35,36
 327 717 327 717 317 726 c 2,37,-1
 272 765 l 2,25,26
242 794 m 1,38,-1
 -153 833 l 1,39,-1
 271 833 l 1,40,41
 268 829 268 829 261 822 c 0,42,43
 248 807 248 807 242 794 c 1,38,-1
285 713 m 1,44,-1
 -123 752 l 1,45,-1
 244 752 l 1,46,47
 250 743 250 743 285 713 c 1,44,-1
EndSplineSet
Position2: "'cpsp' Capital Spacing in Latin lookup 0 subtable" dx=0 dy=0 dh=15 dv=0
EndChar

StartChar: Iacute
Encoding: 205 205 141
Width: 504
GlyphClass: 2
Flags: W
LayerCount: 2
Fore
SplineSet
204 0 m 1,0,-1
 314 625 l 1,1,-1
 504 625 l 1,2,-1
 394 0 l 1,3,-1
 204 0 l 1,0,-1
174 3 m 1,4,-1
 -250 48 l 1,5,-1
 182 48 l 1,6,-1
 174 3 l 1,4,-1
208 196 m 1,7,-1
 -216 241 l 1,8,-1
 216 241 l 1,9,-1
 208 196 l 1,7,-1
225 292 m 1,10,-1
 -199 337 l 1,11,-1
 233 337 l 1,12,-1
 225 292 l 1,10,-1
242 388 m 1,13,-1
 -182 433 l 1,14,-1
 250 433 l 1,15,-1
 242 388 l 1,13,-1
259 484 m 1,16,-1
 -165 529 l 1,17,-1
 266 529 l 1,18,-1
 259 484 l 1,16,-1
191 100 m 1,19,-1
 -233 145 l 1,20,-1
 199 145 l 1,21,-1
 191 100 l 1,19,-1
275 580 m 1,22,-1
 -148 625 l 1,23,-1
 283 625 l 1,24,-1
 275 580 l 1,22,-1
486 875 m 2,25,26
 492 879 492 879 499 879 c 128,-1,27
 506 879 506 879 515 868 c 2,28,-1
 578 794 l 2,29,30
 587 784 587 784 587 777.5 c 128,-1,31
 587 771 587 771 584.5 767.5 c 128,-1,32
 582 764 582 764 538 726 c 0,33,34
 528 717 528 717 512 714 c 2,35,-1
 338 679 l 1,36,-1
 297 736 l 1,37,-1
 486 875 l 2,25,26
324 794 m 1,38,-1
 -36 833 l 1,39,-1
 377 833 l 1,40,-1
 324 794 l 1,38,-1
213 713 m 1,41,-1
 -147 752 l 1,42,-1
 266 752 l 1,43,-1
 213 713 l 1,41,-1
EndSplineSet
Position2: "'cpsp' Capital Spacing in Latin lookup 0 subtable" dx=0 dy=0 dh=15 dv=0
EndChar

StartChar: Icircumflex
Encoding: 206 206 142
Width: 504
GlyphClass: 2
Flags: W
LayerCount: 2
Fore
SplineSet
204 0 m 1,0,-1
 314 625 l 1,1,-1
 504 625 l 1,2,-1
 394 0 l 1,3,-1
 204 0 l 1,0,-1
174 3 m 1,4,-1
 -250 48 l 1,5,-1
 182 48 l 1,6,-1
 174 3 l 1,4,-1
208 196 m 1,7,-1
 -216 241 l 1,8,-1
 216 241 l 1,9,-1
 208 196 l 1,7,-1
225 292 m 1,10,-1
 -199 337 l 1,11,-1
 233 337 l 1,12,-1
 225 292 l 1,10,-1
242 388 m 1,13,-1
 -182 433 l 1,14,-1
 250 433 l 1,15,-1
 242 388 l 1,13,-1
259 484 m 1,16,-1
 -165 529 l 1,17,-1
 266 529 l 1,18,-1
 259 484 l 1,16,-1
191 100 m 1,19,-1
 -233 145 l 1,20,-1
 199 145 l 1,21,-1
 191 100 l 1,19,-1
275 580 m 1,22,-1
 -148 625 l 1,23,-1
 283 625 l 1,24,-1
 275 580 l 1,22,-1
427 880 m 2,25,-1
 472 880 l 2,26,27
 480 880 480 880 485 871 c 2,28,-1
 568 726 l 1,29,-1
 502 677 l 1,30,-1
 424 740 l 1,31,-1
 325 677 l 1,32,-1
 277 726 l 1,33,-1
 409 871 l 2,34,35
 416 880 416 880 427 880 c 2,25,-1
298 794 m 1,36,-1
 -25 833 l 1,37,-1
 333 833 l 1,38,-1
 298 794 l 1,36,-1
224 713 m 1,39,-1
 -106 752 l 1,40,-1
 260 752 l 1,41,-1
 224 713 l 1,39,-1
EndSplineSet
Position2: "'cpsp' Capital Spacing in Latin lookup 0 subtable" dx=0 dy=0 dh=15 dv=0
EndChar

StartChar: Idieresis
Encoding: 207 207 143
Width: 504
GlyphClass: 2
Flags: W
LayerCount: 2
Fore
SplineSet
204 0 m 1,0,-1
 314 625 l 1,1,-1
 504 625 l 1,2,-1
 394 0 l 1,3,-1
 204 0 l 1,0,-1
174 3 m 1,4,-1
 -250 48 l 1,5,-1
 182 48 l 1,6,-1
 174 3 l 1,4,-1
208 196 m 1,7,-1
 -216 241 l 1,8,-1
 216 241 l 1,9,-1
 208 196 l 1,7,-1
225 292 m 1,10,-1
 -199 337 l 1,11,-1
 233 337 l 1,12,-1
 225 292 l 1,10,-1
242 388 m 1,13,-1
 -182 433 l 1,14,-1
 250 433 l 1,15,-1
 242 388 l 1,13,-1
259 484 m 1,16,-1
 -165 529 l 1,17,-1
 266 529 l 1,18,-1
 259 484 l 1,16,-1
191 100 m 1,19,-1
 -233 145 l 1,20,-1
 199 145 l 1,21,-1
 191 100 l 1,19,-1
275 580 m 1,22,-1
 -148 625 l 1,23,-1
 283 625 l 1,24,-1
 275 580 l 1,22,-1
483.5 823.5 m 128,-1,26
 504 848 504 848 546.5 848 c 128,-1,27
 589 848 589 848 603.5 837 c 128,-1,28
 618 826 618 826 618 800 c 0,29,30
 618 741 618 741 597.5 716.5 c 128,-1,31
 577 692 577 692 534.5 692 c 128,-1,32
 492 692 492 692 477.5 703 c 128,-1,33
 463 714 463 714 463 740 c 0,34,25
 463 799 463 799 483.5 823.5 c 128,-1,26
275.5 823.5 m 128,-1,36
 296 848 296 848 338.5 848 c 128,-1,37
 381 848 381 848 395.5 837 c 128,-1,38
 410 826 410 826 410 800 c 0,39,40
 410 741 410 741 389 716.5 c 128,-1,41
 368 692 368 692 326 692 c 128,-1,42
 284 692 284 692 269.5 703 c 128,-1,43
 255 714 255 714 255 740 c 0,44,35
 255 799 255 799 275.5 823.5 c 128,-1,36
242 833 m 1,45,46
 233 816 233 816 228 787 c 1,47,-1
 -74 833 l 1,48,-1
 242 833 l 1,45,46
225 740 m 2,49,50
 225 722 225 722 228 708 c 1,51,-1
 -74 754 l 1,52,-1
 225 754 l 1,53,-1
 225 740 l 2,49,50
EndSplineSet
Position2: "'cpsp' Capital Spacing in Latin lookup 0 subtable" dx=0 dy=0 dh=15 dv=0
EndChar

StartChar: Eth
Encoding: 208 208 144
Width: 841
GlyphClass: 2
Flags: W
LayerCount: 2
Fore
SplineSet
471 255 m 2,0,1
 495 255 495 255 507.5 261 c 128,-1,2
 520 267 520 267 523 286 c 2,3,-1
 537 363 l 1,4,-1
 363 363 l 1,5,-1
 344 255 l 1,6,-1
 471 255 l 2,0,1
580 625 m 2,7,8
 709 625 709 625 763.5 579.5 c 128,-1,9
 818 534 818 534 818 432 c 0,10,11
 818 380 818 380 806 312 c 0,12,13
 776 144 776 144 703.5 72 c 128,-1,14
 631 0 631 0 470 0 c 2,15,-1
 204 0 l 1,16,-1
 314 625 l 1,17,-1
 580 625 l 2,7,8
554 465 m 2,18,-1
 475 465 l 1,19,-1
 422 160 l 1,20,-1
 501 160 l 2,21,22
 540 160 540 160 559 169.5 c 128,-1,23
 578 179 578 179 584 213 c 2,24,-1
 619 412 l 2,25,26
 620 418 620 418 620 428 c 0,27,28
 620 451 620 451 604 458 c 128,-1,29
 588 465 588 465 554 465 c 2,18,-1
174 3 m 1,30,-1
 -250 48 l 1,31,-1
 182 48 l 1,32,-1
 174 3 l 1,30,-1
208 196 m 1,33,-1
 -216 241 l 1,34,-1
 216 241 l 1,35,-1
 208 196 l 1,33,-1
225 292 m 1,36,-1
 -199 337 l 1,37,-1
 233 337 l 1,38,-1
 225 292 l 1,36,-1
242 388 m 1,39,-1
 -182 433 l 1,40,-1
 250 433 l 1,41,-1
 242 388 l 1,39,-1
259 484 m 1,42,-1
 -165 529 l 1,43,-1
 266 529 l 1,44,-1
 259 484 l 1,42,-1
191 100 m 1,45,-1
 -233 145 l 1,46,-1
 199 145 l 1,47,-1
 191 100 l 1,45,-1
275 580 m 1,48,-1
 -148 625 l 1,49,-1
 283 625 l 1,50,-1
 275 580 l 1,48,-1
EndSplineSet
Position2: "'cpsp' Capital Spacing in Latin lookup 0 subtable" dx=0 dy=0 dh=15 dv=0
EndChar

StartChar: Ntilde
Encoding: 209 209 145
Width: 851
GlyphClass: 2
Flags: W
LayerCount: 2
Fore
SplineSet
451 222 m 2,0,1
 447 229 447 229 447 241.5 c 128,-1,2
 447 254 447 254 449 270 c 1,3,-1
 441 270 l 1,4,-1
 394 0 l 1,5,-1
 204 0 l 1,6,-1
 314 625 l 1,7,-1
 493 625 l 1,8,-1
 595 403 l 2,9,10
 598 396 598 396 598 383.5 c 128,-1,11
 598 371 598 371 596 355 c 1,12,-1
 604 355 l 1,13,-1
 652 625 l 1,14,-1
 842 625 l 1,15,-1
 732 0 l 1,16,-1
 553 0 l 1,17,-1
 451 222 l 2,0,1
174 3 m 1,18,-1
 -250 48 l 1,19,-1
 182 48 l 1,20,-1
 174 3 l 1,18,-1
208 196 m 1,21,-1
 -216 241 l 1,22,-1
 216 241 l 1,23,-1
 208 196 l 1,21,-1
225 292 m 1,24,-1
 -199 337 l 1,25,-1
 233 337 l 1,26,-1
 225 292 l 1,24,-1
242 388 m 1,27,-1
 -182 433 l 1,28,-1
 250 433 l 1,29,-1
 242 388 l 1,27,-1
259 484 m 1,30,-1
 -165 529 l 1,31,-1
 266 529 l 1,32,-1
 259 484 l 1,30,-1
191 100 m 1,33,-1
 -233 145 l 1,34,-1
 199 145 l 1,35,-1
 191 100 l 1,33,-1
275 580 m 1,36,-1
 -148 625 l 1,37,-1
 283 625 l 1,38,-1
 275 580 l 1,36,-1
650 816 m 1,39,-1
 736 856 l 1,40,-1
 769 775 l 1,41,42
 640 694 640 694 625.5 688.5 c 128,-1,43
 611 683 611 683 598.5 683 c 128,-1,44
 586 683 586 683 578 685 c 128,-1,45
 570 687 570 687 562 692.5 c 128,-1,46
 554 698 554 698 549 702 c 0,47,48
 541 707 541 707 520 728 c 1,49,-1
 435 688 l 1,50,-1
 401 769 l 1,51,52
 530 850 530 850 544.5 855.5 c 128,-1,53
 559 861 559 861 571.5 861 c 128,-1,54
 584 861 584 861 592 859 c 128,-1,55
 600 857 600 857 608 851.5 c 128,-1,56
 616 846 616 846 621 842 c 0,57,58
 629 837 629 837 650 816 c 1,39,-1
447 833 m 1,59,-1
 375 787 l 1,60,-1
 81 833 l 1,61,-1
 447 833 l 1,59,-1
375 754 m 1,62,-1
 394 708 l 1,63,-1
 81 754 l 1,64,-1
 375 754 l 1,62,-1
EndSplineSet
Position2: "'cpsp' Capital Spacing in Latin lookup 0 subtable" dx=0 dy=0 dh=15 dv=0
EndChar

StartChar: Ograve
Encoding: 210 210 146
Width: 815
GlyphClass: 2
Flags: W
LayerCount: 2
Fore
SplineSet
475 156 m 2,0,1
 514 156 514 156 533 165.5 c 128,-1,2
 552 175 552 175 558 209 c 2,3,-1
 604 469 l 1,4,-1
 524 469 l 2,5,6
 486 469 486 469 467 459.5 c 128,-1,7
 448 450 448 450 442 416 c 2,8,-1
 396 156 l 1,9,-1
 475 156 l 2,0,1
557 640 m 0,10,11
 684 640 684 640 738 590.5 c 128,-1,12
 792 541 792 541 792 438 c 128,-1,13
 792 335 792 335 759.5 222.5 c 128,-1,14
 727 110 727 110 656.5 47.5 c 128,-1,15
 586 -15 586 -15 450.5 -15 c 128,-1,16
 315 -15 315 -15 261 34.5 c 128,-1,17
 207 84 207 84 207 187 c 0,18,19
 207 236 207 236 221 316.5 c 128,-1,20
 235 397 235 397 258 455.5 c 128,-1,21
 281 514 281 514 320 557 c 0,22,23
 395 640 395 640 557 640 c 0,10,11
192 317 m 2,24,25
 190 309 190 309 188 295 c 1,26,-1
 -205 337 l 1,27,-1
 195 337 l 1,28,-1
 192 317 l 2,24,25
181 241 m 1,29,30
 178 218 178 218 178 199 c 1,31,-1
 -216 241 l 1,32,-1
 181 241 l 1,29,30
219 433 m 1,33,-1
 207 392 l 1,34,-1
 -181 433 l 1,35,-1
 219 433 l 1,33,-1
179 145 m 1,36,37
 183 117 183 117 186 103 c 1,38,-1
 -203 145 l 1,39,-1
 179 145 l 1,36,37
260 529 m 1,40,41
 246 503 246 503 240 489 c 1,42,-1
 -134 529 l 1,43,-1
 260 529 l 1,40,41
209 48 m 1,44,45
 222 25 222 25 239 11 c 1,46,-1
 -107 48 l 1,47,-1
 209 48 l 1,44,45
355 625 m 1,48,49
 326 607 326 607 310 592 c 1,50,-1
 4 625 l 1,51,-1
 355 625 l 1,48,49
427 765 m 2,52,53
 423 769 423 769 423 776 c 128,-1,54
 423 783 423 783 432 794 c 2,55,-1
 495 868 l 2,56,57
 504 879 504 879 511 879 c 128,-1,58
 518 879 518 879 524 875 c 2,59,-1
 713 736 l 1,60,-1
 672 679 l 1,61,-1
 498 714 l 2,62,63
 482 717 482 717 472 726 c 2,64,-1
 427 765 l 2,52,53
397 794 m 1,65,-1
 2 833 l 1,66,-1
 426 833 l 1,67,68
 423 829 423 829 416 822 c 0,69,70
 403 807 403 807 397 794 c 1,65,-1
440 713 m 1,71,-1
 32 752 l 1,72,-1
 399 752 l 1,73,74
 405 743 405 743 440 713 c 1,71,-1
EndSplineSet
Position2: "'cpsp' Capital Spacing in Latin lookup 0 subtable" dx=0 dy=0 dh=15 dv=0
EndChar

StartChar: Oacute
Encoding: 211 211 147
Width: 815
GlyphClass: 2
Flags: W
LayerCount: 2
Fore
SplineSet
475 156 m 2,0,1
 514 156 514 156 533 165.5 c 128,-1,2
 552 175 552 175 558 209 c 2,3,-1
 604 469 l 1,4,-1
 524 469 l 2,5,6
 486 469 486 469 467 459.5 c 128,-1,7
 448 450 448 450 442 416 c 2,8,-1
 396 156 l 1,9,-1
 475 156 l 2,0,1
557 640 m 0,10,11
 684 640 684 640 738 590.5 c 128,-1,12
 792 541 792 541 792 438 c 128,-1,13
 792 335 792 335 759.5 222.5 c 128,-1,14
 727 110 727 110 656.5 47.5 c 128,-1,15
 586 -15 586 -15 450.5 -15 c 128,-1,16
 315 -15 315 -15 261 34.5 c 128,-1,17
 207 84 207 84 207 187 c 0,18,19
 207 236 207 236 221 316.5 c 128,-1,20
 235 397 235 397 258 455.5 c 128,-1,21
 281 514 281 514 320 557 c 0,22,23
 395 640 395 640 557 640 c 0,10,11
192 317 m 2,24,25
 190 309 190 309 188 295 c 1,26,-1
 -205 337 l 1,27,-1
 195 337 l 1,28,-1
 192 317 l 2,24,25
181 241 m 1,29,30
 178 218 178 218 178 199 c 1,31,-1
 -216 241 l 1,32,-1
 181 241 l 1,29,30
219 433 m 1,33,-1
 207 392 l 1,34,-1
 -181 433 l 1,35,-1
 219 433 l 1,33,-1
179 145 m 1,36,37
 183 117 183 117 186 103 c 1,38,-1
 -203 145 l 1,39,-1
 179 145 l 1,36,37
260 529 m 1,40,41
 246 503 246 503 240 489 c 1,42,-1
 -134 529 l 1,43,-1
 260 529 l 1,40,41
209 48 m 1,44,45
 222 25 222 25 239 11 c 1,46,-1
 -107 48 l 1,47,-1
 209 48 l 1,44,45
355 625 m 1,48,49
 326 607 326 607 310 592 c 1,50,-1
 4 625 l 1,51,-1
 355 625 l 1,48,49
642 875 m 2,52,53
 648 879 648 879 655 879 c 128,-1,54
 662 879 662 879 671 868 c 2,55,-1
 734 794 l 2,56,57
 743 784 743 784 743 777.5 c 128,-1,58
 743 771 743 771 740.5 767.5 c 128,-1,59
 738 764 738 764 694 726 c 0,60,61
 684 717 684 717 668 714 c 2,62,-1
 494 679 l 1,63,-1
 453 736 l 1,64,-1
 642 875 l 2,52,53
480 794 m 1,65,-1
 120 833 l 1,66,-1
 533 833 l 1,67,-1
 480 794 l 1,65,-1
369 713 m 1,68,-1
 9 752 l 1,69,-1
 422 752 l 1,70,-1
 369 713 l 1,68,-1
EndSplineSet
Position2: "'cpsp' Capital Spacing in Latin lookup 0 subtable" dx=0 dy=0 dh=15 dv=0
EndChar

StartChar: Ocircumflex
Encoding: 212 212 148
Width: 815
GlyphClass: 2
Flags: W
LayerCount: 2
Fore
SplineSet
475 156 m 2,0,1
 514 156 514 156 533 165.5 c 128,-1,2
 552 175 552 175 558 209 c 2,3,-1
 604 469 l 1,4,-1
 524 469 l 2,5,6
 486 469 486 469 467 459.5 c 128,-1,7
 448 450 448 450 442 416 c 2,8,-1
 396 156 l 1,9,-1
 475 156 l 2,0,1
557 640 m 0,10,11
 684 640 684 640 738 590.5 c 128,-1,12
 792 541 792 541 792 438 c 128,-1,13
 792 335 792 335 759.5 222.5 c 128,-1,14
 727 110 727 110 656.5 47.5 c 128,-1,15
 586 -15 586 -15 450.5 -15 c 128,-1,16
 315 -15 315 -15 261 34.5 c 128,-1,17
 207 84 207 84 207 187 c 0,18,19
 207 236 207 236 221 316.5 c 128,-1,20
 235 397 235 397 258 455.5 c 128,-1,21
 281 514 281 514 320 557 c 0,22,23
 395 640 395 640 557 640 c 0,10,11
192 317 m 2,24,25
 190 309 190 309 188 295 c 1,26,-1
 -205 337 l 1,27,-1
 195 337 l 1,28,-1
 192 317 l 2,24,25
181 241 m 1,29,30
 178 218 178 218 178 199 c 1,31,-1
 -216 241 l 1,32,-1
 181 241 l 1,29,30
219 433 m 1,33,-1
 207 392 l 1,34,-1
 -181 433 l 1,35,-1
 219 433 l 1,33,-1
179 145 m 1,36,37
 183 117 183 117 186 103 c 1,38,-1
 -203 145 l 1,39,-1
 179 145 l 1,36,37
260 529 m 1,40,41
 246 503 246 503 240 489 c 1,42,-1
 -134 529 l 1,43,-1
 260 529 l 1,40,41
209 48 m 1,44,45
 222 25 222 25 239 11 c 1,46,-1
 -107 48 l 1,47,-1
 209 48 l 1,44,45
355 625 m 1,48,49
 326 607 326 607 310 592 c 1,50,-1
 4 625 l 1,51,-1
 355 625 l 1,48,49
573 880 m 2,52,-1
 618 880 l 2,53,54
 626 880 626 880 631 871 c 2,55,-1
 714 726 l 1,56,-1
 648 677 l 1,57,-1
 570 740 l 1,58,-1
 471 677 l 1,59,-1
 423 726 l 1,60,-1
 555 871 l 2,61,62
 562 880 562 880 573 880 c 2,52,-1
444 794 m 1,63,-1
 121 833 l 1,64,-1
 479 833 l 1,65,-1
 444 794 l 1,63,-1
370 713 m 1,66,-1
 40 752 l 1,67,-1
 406 752 l 1,68,-1
 370 713 l 1,66,-1
EndSplineSet
Position2: "'cpsp' Capital Spacing in Latin lookup 0 subtable" dx=0 dy=0 dh=15 dv=0
EndChar

StartChar: Otilde
Encoding: 213 213 149
Width: 815
GlyphClass: 2
Flags: W
LayerCount: 2
Fore
SplineSet
475 156 m 2,0,1
 514 156 514 156 533 165.5 c 128,-1,2
 552 175 552 175 558 209 c 2,3,-1
 604 469 l 1,4,-1
 524 469 l 2,5,6
 486 469 486 469 467 459.5 c 128,-1,7
 448 450 448 450 442 416 c 2,8,-1
 396 156 l 1,9,-1
 475 156 l 2,0,1
557 640 m 0,10,11
 684 640 684 640 738 590.5 c 128,-1,12
 792 541 792 541 792 438 c 128,-1,13
 792 335 792 335 759.5 222.5 c 128,-1,14
 727 110 727 110 656.5 47.5 c 128,-1,15
 586 -15 586 -15 450.5 -15 c 128,-1,16
 315 -15 315 -15 261 34.5 c 128,-1,17
 207 84 207 84 207 187 c 0,18,19
 207 236 207 236 221 316.5 c 128,-1,20
 235 397 235 397 258 455.5 c 128,-1,21
 281 514 281 514 320 557 c 0,22,23
 395 640 395 640 557 640 c 0,10,11
192 317 m 2,24,25
 190 309 190 309 188 295 c 1,26,-1
 -205 337 l 1,27,-1
 195 337 l 1,28,-1
 192 317 l 2,24,25
181 241 m 1,29,30
 178 218 178 218 178 199 c 1,31,-1
 -216 241 l 1,32,-1
 181 241 l 1,29,30
219 433 m 1,33,-1
 207 392 l 1,34,-1
 -181 433 l 1,35,-1
 219 433 l 1,33,-1
179 145 m 1,36,37
 183 117 183 117 186 103 c 1,38,-1
 -203 145 l 1,39,-1
 179 145 l 1,36,37
260 529 m 1,40,41
 246 503 246 503 240 489 c 1,42,-1
 -134 529 l 1,43,-1
 260 529 l 1,40,41
209 48 m 1,44,45
 222 25 222 25 239 11 c 1,46,-1
 -107 48 l 1,47,-1
 209 48 l 1,44,45
355 625 m 1,48,49
 326 607 326 607 310 592 c 1,50,-1
 4 625 l 1,51,-1
 355 625 l 1,48,49
647 816 m 1,52,-1
 733 856 l 1,53,-1
 766 775 l 1,54,55
 637 694 637 694 622.5 688.5 c 128,-1,56
 608 683 608 683 595.5 683 c 128,-1,57
 583 683 583 683 575 685 c 128,-1,58
 567 687 567 687 559 692.5 c 128,-1,59
 551 698 551 698 546 702 c 0,60,61
 538 707 538 707 517 728 c 1,62,-1
 432 688 l 1,63,-1
 398 769 l 1,64,65
 527 850 527 850 541.5 855.5 c 128,-1,66
 556 861 556 861 568.5 861 c 128,-1,67
 581 861 581 861 589 859 c 128,-1,68
 597 857 597 857 605 851.5 c 128,-1,69
 613 846 613 846 618 842 c 0,70,71
 626 837 626 837 647 816 c 1,52,-1
444 833 m 1,72,-1
 372 787 l 1,73,-1
 78 833 l 1,74,-1
 444 833 l 1,72,-1
372 754 m 1,75,-1
 391 708 l 1,76,-1
 78 754 l 1,77,-1
 372 754 l 1,75,-1
EndSplineSet
Position2: "'cpsp' Capital Spacing in Latin lookup 0 subtable" dx=0 dy=0 dh=15 dv=0
EndChar

StartChar: Odieresis
Encoding: 214 214 150
Width: 815
GlyphClass: 2
Flags: W
LayerCount: 2
Fore
SplineSet
475 156 m 2,0,1
 514 156 514 156 533 165.5 c 128,-1,2
 552 175 552 175 558 209 c 2,3,-1
 604 469 l 1,4,-1
 524 469 l 2,5,6
 486 469 486 469 467 459.5 c 128,-1,7
 448 450 448 450 442 416 c 2,8,-1
 396 156 l 1,9,-1
 475 156 l 2,0,1
557 640 m 0,10,11
 684 640 684 640 738 590.5 c 128,-1,12
 792 541 792 541 792 438 c 128,-1,13
 792 335 792 335 759.5 222.5 c 128,-1,14
 727 110 727 110 656.5 47.5 c 128,-1,15
 586 -15 586 -15 450.5 -15 c 128,-1,16
 315 -15 315 -15 261 34.5 c 128,-1,17
 207 84 207 84 207 187 c 0,18,19
 207 236 207 236 221 316.5 c 128,-1,20
 235 397 235 397 258 455.5 c 128,-1,21
 281 514 281 514 320 557 c 0,22,23
 395 640 395 640 557 640 c 0,10,11
192 317 m 2,24,25
 190 309 190 309 188 295 c 1,26,-1
 -205 337 l 1,27,-1
 195 337 l 1,28,-1
 192 317 l 2,24,25
181 241 m 1,29,30
 178 218 178 218 178 199 c 1,31,-1
 -216 241 l 1,32,-1
 181 241 l 1,29,30
219 433 m 1,33,-1
 207 392 l 1,34,-1
 -181 433 l 1,35,-1
 219 433 l 1,33,-1
179 145 m 1,36,37
 183 117 183 117 186 103 c 1,38,-1
 -203 145 l 1,39,-1
 179 145 l 1,36,37
260 529 m 1,40,41
 246 503 246 503 240 489 c 1,42,-1
 -134 529 l 1,43,-1
 260 529 l 1,40,41
209 48 m 1,44,45
 222 25 222 25 239 11 c 1,46,-1
 -107 48 l 1,47,-1
 209 48 l 1,44,45
355 625 m 1,48,49
 326 607 326 607 310 592 c 1,50,-1
 4 625 l 1,51,-1
 355 625 l 1,48,49
638.5 823.5 m 128,-1,53
 659 848 659 848 701.5 848 c 128,-1,54
 744 848 744 848 758.5 837 c 128,-1,55
 773 826 773 826 773 800 c 0,56,57
 773 741 773 741 752.5 716.5 c 128,-1,58
 732 692 732 692 689.5 692 c 128,-1,59
 647 692 647 692 632.5 703 c 128,-1,60
 618 714 618 714 618 740 c 0,61,52
 618 799 618 799 638.5 823.5 c 128,-1,53
430.5 823.5 m 128,-1,63
 451 848 451 848 493.5 848 c 128,-1,64
 536 848 536 848 550.5 837 c 128,-1,65
 565 826 565 826 565 800 c 0,66,67
 565 741 565 741 544 716.5 c 128,-1,68
 523 692 523 692 481 692 c 128,-1,69
 439 692 439 692 424.5 703 c 128,-1,70
 410 714 410 714 410 740 c 0,71,62
 410 799 410 799 430.5 823.5 c 128,-1,63
397 833 m 1,72,73
 388 816 388 816 383 787 c 1,74,-1
 81 833 l 1,75,-1
 397 833 l 1,72,73
380 740 m 2,76,77
 380 722 380 722 383 708 c 1,78,-1
 81 754 l 1,79,-1
 380 754 l 1,80,-1
 380 740 l 2,76,77
EndSplineSet
Position2: "'cpsp' Capital Spacing in Latin lookup 0 subtable" dx=0 dy=0 dh=15 dv=0
EndChar

StartChar: multiply
Encoding: 215 215 151
Width: 600
GlyphClass: 2
Flags: W
LayerCount: 2
Fore
SplineSet
129 75 m 1,0,-1
 50 177 l 1,1,-1
 202 312 l 1,2,-1
 97 447 l 1,3,-1
 212 549 l 1,4,-1
 316 414 l 1,5,-1
 468 549 l 1,6,-1
 547 447 l 1,7,-1
 396 312 l 1,8,-1
 500 177 l 1,9,-1
 385 75 l 1,10,-1
 281 210 l 1,11,-1
 129 75 l 1,0,-1
EndSplineSet
EndChar

StartChar: Oslash
Encoding: 216 216 152
Width: 815
GlyphClass: 2
Flags: W
LayerCount: 2
Fore
SplineSet
697 704 m 1,0,-1
 747 704 l 1,1,-1
 303 -79 l 1,2,-1
 251 -79 l 1,3,-1
 697 704 l 1,0,-1
475 156 m 2,4,5
 514 156 514 156 533 165.5 c 128,-1,6
 552 175 552 175 558 209 c 2,7,-1
 604 469 l 1,8,-1
 524 469 l 2,9,10
 486 469 486 469 467 459.5 c 128,-1,11
 448 450 448 450 442 416 c 2,12,-1
 396 156 l 1,13,-1
 475 156 l 2,4,5
557 640 m 0,14,15
 684 640 684 640 738 590.5 c 128,-1,16
 792 541 792 541 792 438 c 128,-1,17
 792 335 792 335 759.5 222.5 c 128,-1,18
 727 110 727 110 656.5 47.5 c 128,-1,19
 586 -15 586 -15 450.5 -15 c 128,-1,20
 315 -15 315 -15 261 34.5 c 128,-1,21
 207 84 207 84 207 187 c 0,22,23
 207 236 207 236 221 316.5 c 128,-1,24
 235 397 235 397 258 455.5 c 128,-1,25
 281 514 281 514 320 557 c 0,26,27
 395 640 395 640 557 640 c 0,14,15
192 317 m 2,28,29
 190 309 190 309 188 295 c 1,30,-1
 -205 337 l 1,31,-1
 195 337 l 1,32,-1
 192 317 l 2,28,29
181 241 m 1,33,34
 178 218 178 218 178 199 c 1,35,-1
 -216 241 l 1,36,-1
 181 241 l 1,33,34
219 433 m 1,37,-1
 207 392 l 1,38,-1
 -181 433 l 1,39,-1
 219 433 l 1,37,-1
179 145 m 1,40,41
 183 117 183 117 186 103 c 1,42,-1
 -203 145 l 1,43,-1
 179 145 l 1,40,41
260 529 m 1,44,45
 246 503 246 503 240 489 c 1,46,-1
 -134 529 l 1,47,-1
 260 529 l 1,44,45
209 48 m 1,48,49
 222 25 222 25 239 11 c 1,50,-1
 -107 48 l 1,51,-1
 209 48 l 1,48,49
355 625 m 1,52,53
 326 607 326 607 310 592 c 1,54,-1
 4 625 l 1,55,-1
 355 625 l 1,52,53
EndSplineSet
EndChar

StartChar: Ugrave
Encoding: 217 217 153
Width: 814
GlyphClass: 2
Flags: W
LayerCount: 2
Fore
SplineSet
238 388 m 1,0,-1
 -186 433 l 1,1,-1
 246 433 l 1,2,-1
 238 388 l 1,0,-1
221 292 m 1,3,-1
 -202 337 l 1,4,-1
 229 337 l 1,5,-1
 221 292 l 1,3,-1
272 580 m 1,6,-1
 -151 625 l 1,7,-1
 280 625 l 1,8,-1
 272 580 l 1,6,-1
-168 529 m 1,9,-1
 263 529 l 1,10,-1
 255 484 l 1,11,-1
 -168 529 l 1,9,-1
212 241 m 1,12,13
 208 208 208 208 207 196 c 1,14,-1
 -216 241 l 1,15,-1
 212 241 l 1,12,13
205 145 m 1,16,17
 205 121 205 121 208 100 c 1,18,-1
 -215 145 l 1,19,-1
 205 145 l 1,16,17
222 48 m 1,20,21
 235 20 235 20 254 3 c 1,22,-1
 -169 48 l 1,23,-1
 222 48 l 1,20,21
486 156 m 2,24,25
 521 156 521 156 536 165.5 c 128,-1,26
 551 175 551 175 557 209 c 2,27,-1
 631 625 l 1,28,-1
 821 625 l 1,29,-1
 759 274 l 2,30,31
 744 189 744 189 724.5 137 c 128,-1,32
 705 85 705 85 670 49 c 128,-1,33
 635 13 635 13 583.5 -1 c 128,-1,34
 532 -15 532 -15 453 -15 c 0,35,36
 332 -15 332 -15 283.5 21.5 c 128,-1,37
 235 58 235 58 235 147 c 0,38,39
 235 196 235 196 249 274 c 2,40,-1
 311 625 l 1,41,-1
 501 625 l 1,42,-1
 418 156 l 1,43,-1
 486 156 l 2,24,25
427 765 m 2,44,45
 423 769 423 769 423 776 c 128,-1,46
 423 783 423 783 432 794 c 2,47,-1
 495 868 l 2,48,49
 504 879 504 879 511 879 c 128,-1,50
 518 879 518 879 524 875 c 2,51,-1
 713 736 l 1,52,-1
 672 679 l 1,53,-1
 498 714 l 2,54,55
 482 717 482 717 472 726 c 2,56,-1
 427 765 l 2,44,45
397 794 m 1,57,-1
 2 833 l 1,58,-1
 426 833 l 1,59,60
 423 829 423 829 416 822 c 0,61,62
 403 807 403 807 397 794 c 1,57,-1
440 713 m 1,63,-1
 32 752 l 1,64,-1
 399 752 l 1,65,66
 405 743 405 743 440 713 c 1,63,-1
EndSplineSet
Position2: "'cpsp' Capital Spacing in Latin lookup 0 subtable" dx=0 dy=0 dh=15 dv=0
EndChar

StartChar: Uacute
Encoding: 218 218 154
Width: 814
GlyphClass: 2
Flags: W
LayerCount: 2
Fore
SplineSet
238 388 m 1,0,-1
 -186 433 l 1,1,-1
 246 433 l 1,2,-1
 238 388 l 1,0,-1
221 292 m 1,3,-1
 -202 337 l 1,4,-1
 229 337 l 1,5,-1
 221 292 l 1,3,-1
272 580 m 1,6,-1
 -151 625 l 1,7,-1
 280 625 l 1,8,-1
 272 580 l 1,6,-1
-168 529 m 1,9,-1
 263 529 l 1,10,-1
 255 484 l 1,11,-1
 -168 529 l 1,9,-1
212 241 m 1,12,13
 208 208 208 208 207 196 c 1,14,-1
 -216 241 l 1,15,-1
 212 241 l 1,12,13
205 145 m 1,16,17
 205 121 205 121 208 100 c 1,18,-1
 -215 145 l 1,19,-1
 205 145 l 1,16,17
222 48 m 1,20,21
 235 20 235 20 254 3 c 1,22,-1
 -169 48 l 1,23,-1
 222 48 l 1,20,21
486 156 m 2,24,25
 521 156 521 156 536 165.5 c 128,-1,26
 551 175 551 175 557 209 c 2,27,-1
 631 625 l 1,28,-1
 821 625 l 1,29,-1
 759 274 l 2,30,31
 744 189 744 189 724.5 137 c 128,-1,32
 705 85 705 85 670 49 c 128,-1,33
 635 13 635 13 583.5 -1 c 128,-1,34
 532 -15 532 -15 453 -15 c 0,35,36
 332 -15 332 -15 283.5 21.5 c 128,-1,37
 235 58 235 58 235 147 c 0,38,39
 235 196 235 196 249 274 c 2,40,-1
 311 625 l 1,41,-1
 501 625 l 1,42,-1
 418 156 l 1,43,-1
 486 156 l 2,24,25
641 875 m 2,44,45
 647 879 647 879 654 879 c 128,-1,46
 661 879 661 879 670 868 c 2,47,-1
 733 794 l 2,48,49
 742 784 742 784 742 777.5 c 128,-1,50
 742 771 742 771 739.5 767.5 c 128,-1,51
 737 764 737 764 693 726 c 0,52,53
 683 717 683 717 667 714 c 2,54,-1
 493 679 l 1,55,-1
 452 736 l 1,56,-1
 641 875 l 2,44,45
479 794 m 1,57,-1
 119 833 l 1,58,-1
 532 833 l 1,59,-1
 479 794 l 1,57,-1
368 713 m 1,60,-1
 8 752 l 1,61,-1
 421 752 l 1,62,-1
 368 713 l 1,60,-1
EndSplineSet
Position2: "'cpsp' Capital Spacing in Latin lookup 0 subtable" dx=0 dy=0 dh=15 dv=0
EndChar

StartChar: Ucircumflex
Encoding: 219 219 155
Width: 814
GlyphClass: 2
Flags: W
LayerCount: 2
Fore
SplineSet
238 388 m 1,0,-1
 -186 433 l 1,1,-1
 246 433 l 1,2,-1
 238 388 l 1,0,-1
221 292 m 1,3,-1
 -202 337 l 1,4,-1
 229 337 l 1,5,-1
 221 292 l 1,3,-1
272 580 m 1,6,-1
 -151 625 l 1,7,-1
 280 625 l 1,8,-1
 272 580 l 1,6,-1
-168 529 m 1,9,-1
 263 529 l 1,10,-1
 255 484 l 1,11,-1
 -168 529 l 1,9,-1
212 241 m 1,12,13
 208 208 208 208 207 196 c 1,14,-1
 -216 241 l 1,15,-1
 212 241 l 1,12,13
205 145 m 1,16,17
 205 121 205 121 208 100 c 1,18,-1
 -215 145 l 1,19,-1
 205 145 l 1,16,17
222 48 m 1,20,21
 235 20 235 20 254 3 c 1,22,-1
 -169 48 l 1,23,-1
 222 48 l 1,20,21
486 156 m 2,24,25
 521 156 521 156 536 165.5 c 128,-1,26
 551 175 551 175 557 209 c 2,27,-1
 631 625 l 1,28,-1
 821 625 l 1,29,-1
 759 274 l 2,30,31
 744 189 744 189 724.5 137 c 128,-1,32
 705 85 705 85 670 49 c 128,-1,33
 635 13 635 13 583.5 -1 c 128,-1,34
 532 -15 532 -15 453 -15 c 0,35,36
 332 -15 332 -15 283.5 21.5 c 128,-1,37
 235 58 235 58 235 147 c 0,38,39
 235 196 235 196 249 274 c 2,40,-1
 311 625 l 1,41,-1
 501 625 l 1,42,-1
 418 156 l 1,43,-1
 486 156 l 2,24,25
582 880 m 2,44,-1
 627 880 l 2,45,46
 635 880 635 880 640 871 c 2,47,-1
 723 726 l 1,48,-1
 657 677 l 1,49,-1
 579 740 l 1,50,-1
 480 677 l 1,51,-1
 432 726 l 1,52,-1
 564 871 l 2,53,54
 572 880 572 880 582 880 c 2,44,-1
453 794 m 1,55,-1
 130 833 l 1,56,-1
 488 833 l 1,57,-1
 453 794 l 1,55,-1
379 713 m 1,58,-1
 49 752 l 1,59,-1
 415 752 l 1,60,-1
 379 713 l 1,58,-1
EndSplineSet
Position2: "'cpsp' Capital Spacing in Latin lookup 0 subtable" dx=0 dy=0 dh=15 dv=0
EndChar

StartChar: Udieresis
Encoding: 220 220 156
Width: 814
GlyphClass: 2
Flags: W
LayerCount: 2
Fore
SplineSet
238 388 m 1,0,-1
 -186 433 l 1,1,-1
 246 433 l 1,2,-1
 238 388 l 1,0,-1
221 292 m 1,3,-1
 -202 337 l 1,4,-1
 229 337 l 1,5,-1
 221 292 l 1,3,-1
272 580 m 1,6,-1
 -151 625 l 1,7,-1
 280 625 l 1,8,-1
 272 580 l 1,6,-1
-168 529 m 1,9,-1
 263 529 l 1,10,-1
 255 484 l 1,11,-1
 -168 529 l 1,9,-1
212 241 m 1,12,13
 208 208 208 208 207 196 c 1,14,-1
 -216 241 l 1,15,-1
 212 241 l 1,12,13
205 145 m 1,16,17
 205 121 205 121 208 100 c 1,18,-1
 -215 145 l 1,19,-1
 205 145 l 1,16,17
222 48 m 1,20,21
 235 20 235 20 254 3 c 1,22,-1
 -169 48 l 1,23,-1
 222 48 l 1,20,21
486 156 m 2,24,25
 521 156 521 156 536 165.5 c 128,-1,26
 551 175 551 175 557 209 c 2,27,-1
 631 625 l 1,28,-1
 821 625 l 1,29,-1
 759 274 l 2,30,31
 744 189 744 189 724.5 137 c 128,-1,32
 705 85 705 85 670 49 c 128,-1,33
 635 13 635 13 583.5 -1 c 128,-1,34
 532 -15 532 -15 453 -15 c 0,35,36
 332 -15 332 -15 283.5 21.5 c 128,-1,37
 235 58 235 58 235 147 c 0,38,39
 235 196 235 196 249 274 c 2,40,-1
 311 625 l 1,41,-1
 501 625 l 1,42,-1
 418 156 l 1,43,-1
 486 156 l 2,24,25
638.5 823.5 m 128,-1,45
 659 848 659 848 701.5 848 c 128,-1,46
 744 848 744 848 758.5 837 c 128,-1,47
 773 826 773 826 773 800 c 0,48,49
 773 741 773 741 752.5 716.5 c 128,-1,50
 732 692 732 692 689.5 692 c 128,-1,51
 647 692 647 692 632.5 703 c 128,-1,52
 618 714 618 714 618 740 c 0,53,44
 618 799 618 799 638.5 823.5 c 128,-1,45
430.5 823.5 m 128,-1,55
 451 848 451 848 493.5 848 c 128,-1,56
 536 848 536 848 550.5 837 c 128,-1,57
 565 826 565 826 565 800 c 0,58,59
 565 741 565 741 544 716.5 c 128,-1,60
 523 692 523 692 481 692 c 128,-1,61
 439 692 439 692 424.5 703 c 128,-1,62
 410 714 410 714 410 740 c 0,63,54
 410 799 410 799 430.5 823.5 c 128,-1,55
397 833 m 1,64,65
 388 816 388 816 383 787 c 1,66,-1
 81 833 l 1,67,-1
 397 833 l 1,64,65
380 740 m 2,68,69
 380 722 380 722 383 708 c 1,70,-1
 81 754 l 1,71,-1
 380 754 l 1,72,-1
 380 740 l 2,68,69
EndSplineSet
Position2: "'cpsp' Capital Spacing in Latin lookup 0 subtable" dx=0 dy=0 dh=15 dv=0
EndChar

StartChar: Yacute
Encoding: 221 221 157
Width: 654
GlyphClass: 2
Flags: W
LayerCount: 2
Fore
SplineSet
233 3 m 1,0,-1
 -190 48 l 1,1,-1
 241 48 l 1,2,-1
 233 3 l 1,0,-1
250 100 m 1,3,-1
 -173 145 l 1,4,-1
 257 145 l 1,5,-1
 250 100 l 1,3,-1
257 196 m 1,6,-1
 -167 241 l 1,7,-1
 248 241 l 1,8,-1
 257 196 l 1,6,-1
238 292 m 1,9,-1
 -186 337 l 1,10,-1
 229 337 l 1,11,-1
 238 292 l 1,9,-1
191 529 m 1,12,-1
 200 484 l 1,13,-1
 -223 529 l 1,14,-1
 191 529 l 1,12,-1
210 433 m 1,15,-1
 219 388 l 1,16,-1
 -204 433 l 1,17,-1
 210 433 l 1,15,-1
182 580 m 1,18,-1
 -241 625 l 1,19,-1
 173 625 l 1,20,-1
 182 580 l 1,18,-1
413 625 m 1,21,-1
 426 405 l 1,22,-1
 433 405 l 1,23,-1
 525 625 l 1,24,-1
 735 625 l 1,25,-1
 483 170 l 1,26,-1
 454 0 l 1,27,-1
 264 0 l 1,28,-1
 293 170 l 1,29,-1
 203 625 l 1,30,-1
 413 625 l 1,21,-1
523 875 m 2,31,32
 529 879 529 879 536 879 c 128,-1,33
 543 879 543 879 552 868 c 2,34,-1
 615 794 l 2,35,36
 624 784 624 784 624 777.5 c 128,-1,37
 624 771 624 771 621.5 767.5 c 128,-1,38
 619 764 619 764 575 726 c 0,39,40
 565 717 565 717 549 714 c 2,41,-1
 375 679 l 1,42,-1
 334 736 l 1,43,-1
 523 875 l 2,31,32
361 794 m 1,44,-1
 1 833 l 1,45,-1
 414 833 l 1,46,-1
 361 794 l 1,44,-1
250 713 m 1,47,-1
 -110 752 l 1,48,-1
 303 752 l 1,49,-1
 250 713 l 1,47,-1
EndSplineSet
Position2: "'cpsp' Capital Spacing in Latin lookup 0 subtable" dx=0 dy=0 dh=15 dv=0
EndChar

StartChar: Thorn
Encoding: 222 222 158
Width: 769
GlyphClass: 2
Flags: W
LayerCount: 2
Fore
SplineSet
174 3 m 1,0,-1
 -250 48 l 1,1,-1
 182 48 l 1,2,-1
 174 3 l 1,0,-1
208 196 m 1,3,-1
 -216 241 l 1,4,-1
 216 241 l 1,5,-1
 208 196 l 1,3,-1
241 388 m 1,6,-1
 -182 433 l 1,7,-1
 249 433 l 1,8,-1
 241 388 l 1,6,-1
258 484 m 1,9,-1
 -165 529 l 1,10,-1
 266 529 l 1,11,-1
 258 484 l 1,9,-1
191 100 m 1,12,-1
 -233 145 l 1,13,-1
 199 145 l 1,14,-1
 191 100 l 1,12,-1
275 580 m 1,15,-1
 -148 625 l 1,16,-1
 283 625 l 1,17,-1
 275 580 l 1,15,-1
224 292 m 1,18,-1
 -199 337 l 1,19,-1
 232 337 l 1,20,-1
 224 292 l 1,18,-1
531 76 m 2,21,-1
 407 76 l 1,22,-1
 394 0 l 1,23,-1
 204 0 l 1,24,-1
 314 625 l 1,25,-1
 504 625 l 1,26,-1
 490 550 l 1,27,-1
 600 550 l 2,28,29
 771 550 771 550 771 391 c 0,30,31
 771 315 771 315 749.5 255.5 c 128,-1,32
 728 196 728 196 703 160.5 c 128,-1,33
 678 125 678 125 633 100.5 c 128,-1,34
 588 76 588 76 531 76 c 2,21,-1
479 236 m 2,35,36
 513 236 513 236 530.5 243.5 c 128,-1,37
 548 251 548 251 553 278 c 2,38,-1
 565 348 l 2,39,40
 566 352 566 352 566 359 c 0,41,42
 566 378 566 378 551 384 c 128,-1,43
 536 390 536 390 506 390 c 2,44,-1
 462 390 l 1,45,-1
 435 236 l 1,46,-1
 479 236 l 2,35,36
EndSplineSet
EndChar

StartChar: germandbls
Encoding: 223 223 159
Width: 773
GlyphClass: 2
Flags: W
LayerCount: 2
Fore
SplineSet
570 675 m 0,0,1
 755 675 755 675 755 550 c 0,2,3
 755 449 755 449 639 314 c 1,4,5
 778 314 778 314 778 198 c 0,6,7
 778 101 778 101 720 43 c 128,-1,8
 662 -15 662 -15 560.5 -15 c 128,-1,9
 459 -15 459 -15 428 -1 c 1,10,-1
 472 141 l 1,11,12
 511 130 511 130 532 130 c 128,-1,13
 553 130 553 130 568 134 c 1,14,-1
 574 166 l 1,15,16
 519 166 519 166 498.5 183 c 128,-1,17
 478 200 478 200 478 244 c 128,-1,18
 478 288 478 288 518.5 373 c 128,-1,19
 559 458 559 458 559 487 c 0,20,21
 559 519 559 519 519 519 c 0,22,23
 504 519 504 519 484 515 c 1,24,-1
 394 0 l 1,25,-1
 204 0 l 1,26,-1
 269 370 l 1,27,-1
 222 370 l 1,28,-1
 245 500 l 1,29,-1
 292 500 l 1,30,-1
 309 560 l 2,31,32
 331 636 331 636 404 657 c 0,33,34
 466 675 466 675 570 675 c 0,0,1
174 3 m 1,35,-1
 -250 48 l 1,36,-1
 182 48 l 1,37,-1
 174 3 l 1,35,-1
208 196 m 1,38,-1
 -216 241 l 1,39,-1
 216 241 l 1,40,-1
 208 196 l 1,38,-1
225 292 m 1,41,-1
 -199 337 l 1,42,-1
 233 337 l 1,43,-1
 225 292 l 1,41,-1
194 388 m 1,44,-1
 -230 433 l 1,45,-1
 202 433 l 1,46,-1
 194 388 l 1,44,-1
212 484 m 1,47,-1
 -212 529 l 1,48,-1
 219 529 l 1,49,-1
 212 484 l 1,47,-1
191 100 m 1,50,-1
 -233 145 l 1,51,-1
 199 145 l 1,52,-1
 191 100 l 1,50,-1
306 625 m 1,53,54
 292 603 292 603 285 581 c 1,55,-1
 -125 625 l 1,56,-1
 306 625 l 1,53,54
EndSplineSet
Position2: "'cpsp' Capital Spacing in Latin lookup 0 subtable" dx=0 dy=0 dh=15 dv=0
EndChar

StartChar: agrave
Encoding: 224 224 160
Width: 758
GlyphClass: 2
Flags: W
LayerCount: 2
Fore
SplineSet
526 0 m 1,0,-1
 522 81 l 1,1,-1
 396 81 l 1,2,-1
 365 0 l 1,3,-1
 192 0 l 1,4,-1
 414 529 l 1,5,-1
 662 529 l 1,6,-1
 701 0 l 1,7,-1
 526 0 l 1,0,-1
522 224 m 1,8,-1
 522 376 l 1,9,-1
 508 376 l 1,10,-1
 449 224 l 1,11,-1
 522 224 l 1,8,-1
160 4 m 1,12,-1
 -250 48 l 1,13,-1
 179 48 l 1,14,-1
 160 4 l 1,12,-1
201 101 m 1,15,-1
 -209 145 l 1,16,-1
 220 145 l 1,17,-1
 201 101 l 1,15,-1
242 197 m 1,18,-1
 -168 241 l 1,19,-1
 260 241 l 1,20,-1
 242 197 l 1,18,-1
282 293 m 1,21,-1
 -127 337 l 1,22,-1
 301 337 l 1,23,-1
 282 293 l 1,21,-1
323 389 m 1,24,-1
 -86 433 l 1,25,-1
 341 433 l 1,26,-1
 323 389 l 1,24,-1
363 486 m 1,27,-1
 -45 529 l 1,28,-1
 381 529 l 1,29,-1
 363 486 l 1,27,-1
389 655 m 2,30,31
 385 659 385 659 385 666 c 128,-1,32
 385 673 385 673 394 684 c 2,33,-1
 457 758 l 2,34,35
 466 769 466 769 473 769 c 128,-1,36
 480 769 480 769 486 765 c 2,37,-1
 675 626 l 1,38,-1
 634 569 l 1,39,-1
 460 604 l 2,40,41
 444 607 444 607 434 616 c 2,42,-1
 389 655 l 2,30,31
359 684 m 1,43,-1
 -36 723 l 1,44,-1
 388 723 l 1,45,46
 385 719 385 719 378 712 c 0,47,48
 365 697 365 697 359 684 c 1,43,-1
402 603 m 1,49,-1
 -6 642 l 1,50,-1
 361 642 l 1,51,52
 367 633 367 633 402 603 c 1,49,-1
EndSplineSet
EndChar

StartChar: aacute
Encoding: 225 225 161
Width: 758
GlyphClass: 2
Flags: W
LayerCount: 2
Fore
SplineSet
526 0 m 1,0,-1
 522 81 l 1,1,-1
 396 81 l 1,2,-1
 365 0 l 1,3,-1
 192 0 l 1,4,-1
 414 529 l 1,5,-1
 662 529 l 1,6,-1
 701 0 l 1,7,-1
 526 0 l 1,0,-1
522 224 m 1,8,-1
 522 376 l 1,9,-1
 508 376 l 1,10,-1
 449 224 l 1,11,-1
 522 224 l 1,8,-1
160 4 m 1,12,-1
 -250 48 l 1,13,-1
 179 48 l 1,14,-1
 160 4 l 1,12,-1
201 101 m 1,15,-1
 -209 145 l 1,16,-1
 220 145 l 1,17,-1
 201 101 l 1,15,-1
242 197 m 1,18,-1
 -168 241 l 1,19,-1
 260 241 l 1,20,-1
 242 197 l 1,18,-1
282 293 m 1,21,-1
 -127 337 l 1,22,-1
 301 337 l 1,23,-1
 282 293 l 1,21,-1
323 389 m 1,24,-1
 -86 433 l 1,25,-1
 341 433 l 1,26,-1
 323 389 l 1,24,-1
363 486 m 1,27,-1
 -45 529 l 1,28,-1
 381 529 l 1,29,-1
 363 486 l 1,27,-1
643 765 m 2,30,31
 649 769 649 769 656 769 c 128,-1,32
 663 769 663 769 672 758 c 2,33,-1
 735 684 l 2,34,35
 744 674 744 674 744 667.5 c 128,-1,36
 744 661 744 661 741.5 657.5 c 128,-1,37
 739 654 739 654 695 616 c 0,38,39
 685 607 685 607 669 604 c 2,40,-1
 495 569 l 1,41,-1
 454 626 l 1,42,-1
 643 765 l 2,30,31
481 684 m 1,43,-1
 121 723 l 1,44,-1
 534 723 l 1,45,-1
 481 684 l 1,43,-1
370 603 m 1,46,-1
 10 642 l 1,47,-1
 423 642 l 1,48,-1
 370 603 l 1,46,-1
EndSplineSet
EndChar

StartChar: acircumflex
Encoding: 226 226 162
Width: 758
GlyphClass: 2
Flags: W
LayerCount: 2
Fore
SplineSet
526 0 m 1,0,-1
 522 81 l 1,1,-1
 396 81 l 1,2,-1
 365 0 l 1,3,-1
 192 0 l 1,4,-1
 414 529 l 1,5,-1
 662 529 l 1,6,-1
 701 0 l 1,7,-1
 526 0 l 1,0,-1
522 224 m 1,8,-1
 522 376 l 1,9,-1
 508 376 l 1,10,-1
 449 224 l 1,11,-1
 522 224 l 1,8,-1
160 4 m 1,12,-1
 -250 48 l 1,13,-1
 179 48 l 1,14,-1
 160 4 l 1,12,-1
201 101 m 1,15,-1
 -209 145 l 1,16,-1
 220 145 l 1,17,-1
 201 101 l 1,15,-1
242 197 m 1,18,-1
 -168 241 l 1,19,-1
 260 241 l 1,20,-1
 242 197 l 1,18,-1
282 293 m 1,21,-1
 -127 337 l 1,22,-1
 301 337 l 1,23,-1
 282 293 l 1,21,-1
323 389 m 1,24,-1
 -86 433 l 1,25,-1
 341 433 l 1,26,-1
 323 389 l 1,24,-1
363 486 m 1,27,-1
 -45 529 l 1,28,-1
 381 529 l 1,29,-1
 363 486 l 1,27,-1
574 770 m 2,30,-1
 619 770 l 2,31,32
 627 770 627 770 632 761 c 2,33,-1
 715 616 l 1,34,-1
 649 567 l 1,35,-1
 571 630 l 1,36,-1
 472 567 l 1,37,-1
 424 616 l 1,38,-1
 556 761 l 2,39,40
 564 770 564 770 574 770 c 2,30,-1
445 684 m 1,41,-1
 122 723 l 1,42,-1
 480 723 l 1,43,-1
 445 684 l 1,41,-1
371 603 m 1,44,-1
 41 642 l 1,45,-1
 407 642 l 1,46,-1
 371 603 l 1,44,-1
EndSplineSet
EndChar

StartChar: atilde
Encoding: 227 227 163
Width: 758
GlyphClass: 2
Flags: W
LayerCount: 2
Fore
SplineSet
526 0 m 1,0,-1
 522 81 l 1,1,-1
 396 81 l 1,2,-1
 365 0 l 1,3,-1
 192 0 l 1,4,-1
 414 529 l 1,5,-1
 662 529 l 1,6,-1
 701 0 l 1,7,-1
 526 0 l 1,0,-1
522 224 m 1,8,-1
 522 376 l 1,9,-1
 508 376 l 1,10,-1
 449 224 l 1,11,-1
 522 224 l 1,8,-1
160 4 m 1,12,-1
 -250 48 l 1,13,-1
 179 48 l 1,14,-1
 160 4 l 1,12,-1
201 101 m 1,15,-1
 -209 145 l 1,16,-1
 220 145 l 1,17,-1
 201 101 l 1,15,-1
242 197 m 1,18,-1
 -168 241 l 1,19,-1
 260 241 l 1,20,-1
 242 197 l 1,18,-1
282 293 m 1,21,-1
 -127 337 l 1,22,-1
 301 337 l 1,23,-1
 282 293 l 1,21,-1
323 389 m 1,24,-1
 -86 433 l 1,25,-1
 341 433 l 1,26,-1
 323 389 l 1,24,-1
363 486 m 1,27,-1
 -45 529 l 1,28,-1
 381 529 l 1,29,-1
 363 486 l 1,27,-1
634 706 m 1,30,-1
 720 746 l 1,31,-1
 753 665 l 1,32,33
 624 584 624 584 609.5 578.5 c 128,-1,34
 595 573 595 573 582.5 573 c 128,-1,35
 570 573 570 573 562 575 c 128,-1,36
 554 577 554 577 546 582.5 c 128,-1,37
 538 588 538 588 533 592 c 0,38,39
 525 597 525 597 504 618 c 1,40,-1
 419 578 l 1,41,-1
 385 659 l 1,42,43
 514 740 514 740 528.5 745.5 c 128,-1,44
 543 751 543 751 555.5 751 c 128,-1,45
 568 751 568 751 576 749 c 128,-1,46
 584 747 584 747 592 741.5 c 128,-1,47
 600 736 600 736 605 732 c 0,48,49
 613 727 613 727 634 706 c 1,30,-1
431 723 m 1,50,-1
 359 677 l 1,51,-1
 65 723 l 1,52,-1
 431 723 l 1,50,-1
359 644 m 1,53,-1
 378 598 l 1,54,-1
 65 644 l 1,55,-1
 359 644 l 1,53,-1
EndSplineSet
EndChar

